<!-- icon666.com - MILLIONS OF FREE VECTOR ICONS --><svg id="Capa_1" enable-background="new 0 0 512.23 512.23" viewBox="0 0 512.23 512.23" xmlns="http://www.w3.org/2000/svg"><g><path d="m402.165 362.23c-41.36 0-75 33.65-75 75s33.64 75 75 75 75-33.65 75-75-33.64-75-75-75z" fill="#97de3d"></path><path d="m27.165 362.23v150h150v-150z" fill="#ff7d43"></path><path d="m102.165 0-85.85 150.23h171.7z" fill="#fed843"></path><g fill="#575f64"><path d="m87.165 301.23h30v30h-30z"></path><path d="m87.165 241.23h30v30h-30z"></path><path d="m87.165 181.23h30v30h-30z"></path></g><path d="m387.165 301.23h30v30h-30z" fill="#474f54"></path><path d="m387.165 241.23h30v30h-30z" fill="#474f54"></path><path d="m387.165 181.23h30v30h-30z" fill="#474f54"></path><path d="m207.165 60.23h30v30h-30z" fill="#575f64"></path><path d="m267.165 60.23h30v30h-30z" fill="#474f54"></path><path d="m207.165 422.23h30v30h-30z" fill="#575f64"></path><path d="m267.165 422.23h30v30h-30z" fill="#474f54"></path><path d="m439.665.23h-75l-56.25 75 56.25 75h75l56.25-75z" fill="#7ed8f6"></path><path d="m102.165 362.23h75v150h-75z" fill="#ff4b00"></path><path d="m188.015 150.23h-85.85v-150.23z" fill="#fabe2c"></path><path d="m477.165 437.23c0 41.35-33.64 75-75 75v-150c41.36 0 75 33.65 75 75z" fill="#59c36a"></path><path d="m439.665 150.23h-37.5v-150h37.5l56.25 75z" fill="#6aa9ff"></path></g></svg>