<!-- icon666.com - MILLIONS OF FREE VECTOR ICONS --><svg id="Icons" viewBox="0 0 60 60" xmlns="http://www.w3.org/2000/svg"><path d="m16.538 59.471a.5.5 0 0 1 -.268-.922l5.9-3.765-8 4.619a.5.5 0 0 1 -.52-.853l6.894-4.424-9.144 5.274a.5.5 0 0 1 -.529-.847l11.676-7.864-15.085 8.711a.5.5 0 0 1 -.527-.848l11-7.334-14.173 8.182a.5.5 0 0 1 -.519-.854l6.014-3.838-7.643 4.415a.5.5 0 0 1 -.514-.853l6.441-4.133-6.261 3.611a.5.5 0 0 1 -.52-.848l4.632-2.978-4.112 2.368a.5.5 0 0 1 -.537-.842l8.962-6.279-8.426 4.864a.5.5 0 0 1 -.527-.848l2.782-1.852-2.255 1.3a.5.5 0 0 1 -.541-.833l4.527-3.244-3.986 2.3a.5.5 0 0 1 -.542-.838l2.2-1.584-1.657.956a.5.5 0 0 1 -.551-.831l1.416-1.073-.865.5a.5.5 0 0 1 -.626-.761l1.968-2.247-1.342.773a.5.5 0 0 1 -.691-.667l.478-.9a.5.5 0 0 1 -.2-.931l1.127-.653a.5.5 0 0 1 .692.667l-.4.745 2.45-1.412a.5.5 0 0 1 .626.761l-1.962 2.245 5.207-3.006a.5.5 0 0 1 .552.831l-1.417 1.069 3.3-1.9a.5.5 0 0 1 .542.838l-2.193 1.58 4.19-2.419a.5.5 0 0 1 .541.839l-4.531 3.244 7.076-4.082a.5.5 0 0 1 .527.848l-2.781 1.852 4.676-2.7a.5.5 0 0 1 .537.841l-8.958 6.277 12.332-7.118a.5.5 0 0 1 .521.853l-4.646 2.988 6.649-3.841a.5.5 0 0 1 .52.853l-6.444 4.131 8.64-4.984a.5.5 0 0 1 .519.854l-6.02 3.842 8.135-4.7a.5.5 0 0 1 .527.848l-11 7.334 14.173-8.178a.5.5 0 0 1 .53.847l-11.674 7.859 15.086-8.706a.5.5 0 0 1 .519.853l-6.893 4.424 9.14-5.277a.5.5 0 0 1 .519.854l-5.91 3.77 8.009-4.624a.5.5 0 0 1 .528.848l-11.109 7.414 14.318-8.262a.5.5 0 0 1 .528.847l-11.435 7.669 14.514-8.379a.5.5 0 0 1 .519.855l-5.039 3.2 5-2.886a.5.5 0 0 1 .518.855l-3.669 2.339 3.155-1.821a.5.5 0 0 1 .523.852l-5.094 3.327 4.576-2.642a.5.5 0 0 1 .523.852l-2.31 1.5 1.793-1.035a.5.5 0 0 1 .545.837l-6.7 4.885 6.165-3.555a.5.5 0 0 1 .535.843l-1.943 1.347 3.286-1.9a.5.5 0 0 1 .547.835l-3.561 2.624 5.987-3.449a.5.5 0 0 1 .542.839l-2.854 2.048 4.25-2.454a.5.5 0 0 1 .565.822l-4.353 3.532 3.971-2.287a.5.5 0 0 1 .581.807l-2.429 2.147 1.848-1.067a.5.5 0 0 1 .6.791l-.775.754.177-.1a.5.5 0 0 1 .683.681l-.416.725a.5.5 0 0 1 .147.923l-1.127.639a.5.5 0 0 1 -.684-.682l.287-.5-2.049 1.182a.5.5 0 0 1 -.6-.791l.777-.756-2.678 1.547a.5.5 0 0 1 -.581-.807l2.429-2.147-5.118 2.954a.5.5 0 0 1 -.565-.821l4.35-3.53-7.539 4.351a.5.5 0 0 1 -.542-.839l2.855-2.048-5 2.887a.5.5 0 0 1 -.547-.835l3.56-2.624-5.992 3.459a.5.5 0 0 1 -.535-.843l1.949-1.352-3.8 2.2a.5.5 0 0 1 -.545-.837l6.7-4.883-9.917 5.715a.5.5 0 0 1 -.523-.851l2.306-1.5-4.075 2.351a.5.5 0 0 1 -.524-.851l5.109-3.337-7.256 4.188a.5.5 0 0 1 -.519-.854l3.657-2.328-5.516 3.182a.5.5 0 0 1 -.519-.854l5.036-3.2-7.024 4.054a.5.5 0 0 1 -.528-.847l11.438-7.675-14.763 8.522a.5.5 0 0 1 -.524-.845l11.108-7.417-14.32 8.262a.5.5 0 0 1 -.25.071z" fill="#c18440"></path><path d="m8.523 43.5a.5.5 0 0 1 -.317-.887l3.408-2.8-5.324 3.074a.5.5 0 0 1 -.627-.761l1.119-1.287a.5.5 0 0 1 -.182-.929l2.069-1.195a.5.5 0 0 1 .627.761l-.913 1.05 8.017-4.626a.5.5 0 0 1 .568.82l-3.409 2.8 4.487-2.59a.5.5 0 0 1 .667.157.5.5 0 0 1 -.116.675l-.932.7 2.86-1.65a.5.5 0 0 1 .548.834l-.852.633 2.6-1.5a.5.5 0 0 1 .566.821l-2.282 1.85 6.295-3.634a.5.5 0 0 1 .564.822l-3.349 2.7 5.884-3.4a.5.5 0 0 1 .577.811l-3.661 3.168 4.825-2.786a.5.5 0 0 1 .588.8l-2.538 2.328 2.937-1.7a.5.5 0 0 1 .593.8l-1.12 1.063 3.134-1.81a.5.5 0 0 1 .637.749l-1.484 1.813 3.213-1.853a.5.5 0 0 1 .669.706l-.958 1.465 1.687-.973a.5.5 0 0 1 .748.478l-.1 1.058.165-.095a.5.5 0 1 1 .5.865l-1 .578a.5.5 0 0 1 -.748-.478l.1-1.058-2.673 1.539a.5.5 0 0 1 -.669-.706l.958-1.465-3.766 2.174a.5.5 0 0 1 -.636-.749l1.483-1.812-4.441 2.564a.5.5 0 0 1 -.594-.8l1.123-1.062-3.224 1.86a.5.5 0 0 1 -.653-.137.5.5 0 0 1 .065-.665l2.536-2.32-5.412 3.129a.5.5 0 0 1 -.577-.811l3.662-3.168-6.9 3.982a.5.5 0 0 1 -.564-.821l3.348-2.7-6.107 3.527a.5.5 0 0 1 -.567-.82l2.275-1.856-4.63 2.675a.5.5 0 0 1 -.549-.834l.854-.635-2.549 1.471a.5.5 0 0 1 -.556-.827l.933-.7-2.66 1.529a.491.491 0 0 1 -.25.071z" fill="#bf7651"></path><path d="m11.371 38.165a.5.5 0 0 1 -.25-.933l2.543-1.468a.5.5 0 1 1 .5.865l-2.543 1.471a.494.494 0 0 1 -.25.065z" fill="#bf7651"></path><path d="m30 32.47a.5.5 0 0 1 -.356-.852l.653-.661-1.4.809a.5.5 0 0 1 -.568-.819l1.771-1.461-2.041 1.177a.5.5 0 0 1 -.548-.834l2.1-1.56-2.287 1.319a.5.5 0 0 1 -.542-.838l3.571-2.573-3.847 2.223a.5.5 0 0 1 -.533-.844l3.635-2.5-3.866 2.231a.5.5 0 0 1 -.53-.847l5-3.391-5.285 3.051a.5.5 0 0 1 -.536-.843l7.138-4.973-7.589 4.382a.5.5 0 0 1 -.538-.842l6.807-4.79-7.259 4.191a.5.5 0 0 1 -.539-.841l5.024-3.562-5.377 3.1a.5.5 0 0 1 -.529-.849l.016-.01-.057.033a.5.5 0 0 1 -.563-.823l4.42-3.548-4.911 2.835a.5.5 0 0 1 -.558-.827l2.165-1.689-2.39 1.379a.5.5 0 0 1 -.557-.827l.685-.535-.761.44a.5.5 0 0 1 -.586-.8l.985-.89-1.03.593a.5.5 0 0 1 -.659-.719l.795-1.137a.5.5 0 0 1 -.326-.927l1.735-1a.5.5 0 0 1 .659.72l-.751 1.072 3.142-1.813a.5.5 0 0 1 .586.8l-.983.89 2.934-1.69a.5.5 0 0 1 .557.827l-.681.531 2.354-1.358a.5.5 0 0 1 .558.827l-2.165 1.69 4.358-2.517a.5.5 0 0 1 .563.822l-4.421 3.55 7.575-4.372a.5.5 0 0 1 .528.848l-.02.013 1.493-.861a.5.5 0 0 1 .539.841l-5.022 3.559 7.624-4.4a.5.5 0 0 1 .538.841l-6.8 4.79 8.147-4.705a.5.5 0 0 1 .536.843l-7.139 4.973 7.018-4.052a.5.5 0 0 1 .531.847l-5.005 3.395 3.009-1.737a.5.5 0 0 1 .534.845l-3.637 2.5 1.337-.772a.5.5 0 0 1 .542.838l-3.57 2.568 1.131-.653a.5.5 0 0 1 .549.834l-2.168 1.614a.5.5 0 0 1 .476.861l-2.112 1.74a.5.5 0 0 1 .343.851l-1.623 1.644a.458.458 0 0 1 .083.107.5.5 0 0 1 -.182.683l-1.641.947a.49.49 0 0 1 -.256.068z" fill="#d6dbe3"></path><path d="m30.048 21.46a.5.5 0 0 1 -.389-.814l.221-.273-.88.507a.5.5 0 0 1 -.6-.78l.578-.581-.581.335a.5.5 0 0 1 -.6-.792l.913-.883-.428.246a.5.5 0 0 1 -.631-.757l1.513-1.774-.882.508a.5.5 0 0 1 -.733-.559l.278-1.064a.5.5 0 0 1 -.045-.889l.507-.292a.5.5 0 0 1 .734.56l-.205.781 2.36-1.363a.5.5 0 0 1 .631.757l-1.516 1.767 1.428-.825a.5.5 0 0 1 .6.792l-.914.885.317-.183a.5.5 0 0 1 .6.786l-.58.584a.5.5 0 0 1 .614.76l-.524.647a.5.5 0 0 1 .087.9l-1.624.938a.5.5 0 0 1 -.249.076z" fill="#acb2bc"></path><path d="m29.859 15.471a.5.5 0 0 1 -.39-.812l1.463-1.835-3.532 2.04a.5.5 0 0 1 -.591-.8l2.67-2.507-2.2 1.267a.5.5 0 0 1 -.563-.822l.887-.713-.325.187a.5.5 0 0 1 -.57-.818l1.445-1.2-.875.505a.5.5 0 0 1 -.565-.82l1.066-.868-.5.289a.5.5 0 0 1 -.582-.806l2.264-2.011-1.682.971a.5.5 0 0 1 -.563-.823l.743-.6-.18.1a.5.5 0 0 1 -.63-.757l1.475-1.719-.845.487a.5.5 0 0 1 -.675-.7l.351-.564a.5.5 0 0 1 -.274-.223.5.5 0 0 1 .183-.684l1.128-.635a.5.5 0 0 1 .675.7l-.159.257 1.652-.957a.5.5 0 0 1 .63.757l-1.475 1.716 3.3-1.9a.5.5 0 0 1 .564.822l-.743.6.288-.166a.5.5 0 0 1 .582.806l-2.27 2.007 1.685-.971a.5.5 0 0 1 .565.82l-1.066.867.5-.289a.5.5 0 0 1 .57.817l-1.445 1.2.875-.5a.5.5 0 0 1 .563.822l-.885.711.322-.185a.5.5 0 0 1 .591.8l-2.669 2.507 2.078-1.2a.5.5 0 0 1 .64.744l-1.46 1.831.823-.475a.5.5 0 0 1 .5.865l-3.112 1.8a.49.49 0 0 1 -.252.065z" fill="#80624b"></path><g fill="#262626"><path d="m54.579 50.693c-2.136-.032-1.914.207-1.855-1.991.044-1.629 0-3.266 0-4.9-.956-2.31-7.291-1.113-9.289-1.113h-.783a1.106 1.106 0 0 0 -.721 0h-.341a5.618 5.618 0 0 0 -7.318-3.828 5.784 5.784 0 0 0 -9.322-1.6 5.936 5.936 0 0 0 -5.689.026 5.918 5.918 0 0 0 -9.3 1.27 4.293 4.293 0 0 0 -4.67 4.059c-.53.021-1.06.042-1.588.075-3.174.2-3.423.988-3.423 4.277 0 2.954-1.661 11.362 1.626 12.337 1.225.363 3.091 0 4.351 0h9.092c.218.312.855.266 1.184 0q4.412 0 8.823.011a1.048 1.048 0 0 0 .739 0q5.193.011 10.384.019a1.209 1.209 0 0 0 .346 0q5.283.008 10.565 0a.961.961 0 0 0 1.07 0q3.643-.008 7.286-.025c3.979-.025 5.257-2.294 3.982-6.744-.768-2.666-2.396-1.831-5.149-1.873zm-3.3-6.5v6.294h-8.555v-7.36c3.189-.249 7.9-.507 8.552 1.067zm-32-.887v7.181h-2.991a1.047 1.047 0 0 0 -.321 0h-5.243v-7.18zm1.448 7.181v-7.18h9.542v7.181zm4.552 1.024v7.181h-8.546v-7.18zm1.448 0h3.973a1.028 1.028 0 0 0 .367 0h5.214v7.181h-9.557zm5.01-1.024v-7.18h8.382.125c.18.261.68.245 1.035.059v7.126zm-21.792-10.908a1.12 1.12 0 0 0 .929-.2c.024-.017.045-.036.067-.055s.02-.014.028-.024.011-.024.019-.035a.477.477 0 0 0 .07-.087c1.441-3.132 5.107-3.475 7.273-.851a.821.821 0 0 0 .863.1c.03-.008.058-.017.087-.027l.065-.031a.72.72 0 0 0 .122-.058 4.113 4.113 0 0 1 4.97.1 1.2 1.2 0 0 0 1.162-.213c2.368-2.868 6.274-1.741 7.437 1.539.136.384.762.361 1.152.144a4.356 4.356 0 0 1 5.838 2.8h-8.37c-.219-.321-.867-.273-1.2 0h-9.4c-4.728 0-9.545-.235-14.3-.122a2.717 2.717 0 0 1 3.188-2.98zm-8.306 3.728c.366-.347 2.857 0 3.342 0h.382c.157.277.719.233 1.085 0h2.828v7.181h-7.688c.073-.822.136-1.565.136-2.135 0-.594-.419-4.73-.085-5.046zm1.787 15.386c-2.281-.537-2.175-4.145-1.925-7.181h4.775v7.519a14.714 14.714 0 0 1 -2.85-.338zm11.392 0c-2.185 0-4.812.317-7.3.35.126-.067.211-.146.211-.237v-7.294h7.543v7.181zm22.906 0v-7.181h9.545v7.181zm20.719 0c-.74.823-7.336 0-8.357 0h-1.355v-7.181h3.2a.788.788 0 0 0 .594-.255c1.773-.132 4.428-.425 5.3.493.575.615 1.147 6.356.618 6.943z"></path><path d="m18.581 18.133c2.1 3.354 4.5 6.547 6.742 9.807 1.043 1.517 2.325 4.507 4.514 4.568 2.027.057 3.029-2.138 3.99-3.536l6.9-10.031c1.2-1.752 3.334-4.332.708-6.036-1.8-1.171-5.435-.563-7.7-.44 0-.1 0-.206 0-.314v-7.588c0-1.062.406-3.111-.656-3.807-1.039-.676-3.898-.416-4.995-.213-1.6.3-1.781 1.17-1.813 2.578-.054 2.447 0 4.9 0 7.348 0 .493-.1 1.247-.138 2.012-4.317-.072-11.313-.366-7.552 5.652zm20.688-4.624c1.405.61 1.478 2.647 1.086 3.817a12.245 12.245 0 0 1 -1.66 2.415c-1.495 2.181-6.095 11.429-8.707 11.192-1.676-.152-2.684-2.671-3.577-3.97l-4.9-7.133a14.346 14.346 0 0 1 -1.746-2.53c-.445-1.166-1.158-2.788.611-3.787 1.143-.646 3.973-.188 5.752-.042a2.724 2.724 0 0 0 .34 1.337 1.607 1.607 0 0 0 .8.564c-.035 2.078-.631 5.712 2.133 5.96a.672.672 0 0 0 .3.025c1.679-.136 2.984-1.022 3.021-2.8.024-1.121.006-2.245 0-3.367a1.854 1.854 0 0 0 .982-1.709c1.749-.131 4.256-.541 5.565.028zm-8.969 7.138c-1.936 0-1.717-3.225-1.608-5.038.915.028 1.887-.082 2.6-.127.058 1.337.427 5.05-.992 5.165zm-2.523-18.954c.464-.624 4.031-.519 4.494.415.387.778 0 2.721 0 3.574 0 .666.36 4.684.179 7.089a.426.426 0 0 0 -.053.537c-.086.675-.236 1.141-.476 1.246-.374.022-.832.064-1.321.093h-1.208c-.751-.053-1.407-.239-1.663-.755a1.955 1.955 0 0 1 -.154-.69.405.405 0 0 0 -.015-.563c.019-.833.169-1.791.169-2.321v-5.518c0-.615-.357-2.564.048-3.107z"></path></g></svg>