<!-- icon666.com - MILLIONS OF FREE VECTOR ICONS --><svg version="1.1" id="Layer_1" xmlns="http://www.w3.org/2000/svg" xmlns:xlink="http://www.w3.org/1999/xlink" x="0px" y="0px" viewBox="0 0 512 512" style="enable-background:new 0 0 512 512;" xml:space="preserve"><rect x="353.18" y="236.223" style="fill:#7F7F7F;" width="55.852" height="135.016"></rect><path style="fill:#E6E9ED;" d="M75.483,184.257V43.939H58.765c-30.603,0-34.594,21.971-34.826,23.432 c-0.002,0.02-0.006,0.039-0.009,0.059c0,0.004-0.002,0.022-0.002,0.022c-4.907,31.886-13.633,88.144-18.507,116.805H75.483z"></path><path style="fill:#97D3EE;" d="M174.73,59.52v-0.002c-5.562-10.702-13.006-14.433-18.773-15.58H75.483v140.318h191.415L174.73,59.52 z"></path><rect x="75.484" y="43.939" style="fill:#49B5CE;" width="22.309" height="140.315"></rect><path style="fill:#5B5E5E;" d="M110.904,115.889c0-9.78-7.929-17.71-17.711-17.71c-9.782,0-17.71,7.93-17.71,17.71v68.368h35.422 V115.889z"></path><path style="fill:#464949;" d="M93.193,98.179c-9.782,0-17.71,7.93-17.71,17.71v68.368h22.309V98.802 C96.323,98.408,94.787,98.179,93.193,98.179z"></path><rect x="353.18" y="350.302" style="fill:#5B5E5E;" width="55.852" height="55.16"></rect><rect x="353.18" y="236.223" style="fill:#6E7070;" width="22.756" height="135.016"></rect><rect x="353.18" y="350.302" style="fill:#464949;" width="22.756" height="55.16"></rect><path style="fill:#E6E9ED;" d="M480.552,182.026h-1.729h-1.432h-7.98c-36.257,0-66.39,26.133-72.644,60.584 c-0.073,0.395-0.146,0.788-0.212,1.185c-0.103,0.628-0.196,1.259-0.283,1.893c-0.076,0.548-0.146,1.098-0.21,1.65 c-0.064,0.544-0.124,1.09-0.175,1.639c-0.067,0.702-0.115,1.41-0.162,2.117c-0.027,0.431-0.062,0.859-0.081,1.289 c-0.056,1.159-0.089,2.325-0.089,3.498v6.577v2.016v26.785v25.194v2.016v11.139v2.017v25.194v26.784v2.016v6.577 c0,1.172,0.033,2.338,0.089,3.497c0.019,0.433,0.055,0.861,0.081,1.289c0.047,0.708,0.095,1.417,0.162,2.119 c0.051,0.548,0.113,1.092,0.175,1.637c0.064,0.551,0.133,1.102,0.21,1.65c0.087,0.634,0.181,1.266,0.283,1.893 c0.066,0.396,0.139,0.791,0.212,1.186c6.253,34.453,36.387,60.586,72.644,60.586h7.98h1.432h1.729H512v-22.735V441.3 c-33.29-15.739-33.989-43.934-34-45.709v-0.089v-24.299v-27.515v-12.063v-2.017v-11.139v-2.016v-63.877v-0.089 c0.011-1.775,0.711-29.968,34-45.709v-2.017v-22.734h-31.448V182.026z"></path><path style="fill:#CCD4DD;" d="M508.394,446.094h-1.486h-1.23h-6.859c-31.164,0-57.062-22.461-62.438-52.073 c-0.062-0.339-0.125-0.677-0.183-1.018c-0.087-0.539-0.167-1.083-0.243-1.627c-0.066-0.471-0.125-0.944-0.18-1.418 c-0.055-0.469-0.107-0.937-0.151-1.408c-0.058-0.605-0.099-1.213-0.138-1.822c-0.023-0.369-0.055-0.736-0.07-1.108 c-0.048-0.997-0.077-1.999-0.077-3.006v-5.652v-1.732v-23.02v-21.653v-1.733v-9.575v-1.732v-21.653V272.84v-1.732v-5.652 c0-1.007,0.029-2.01,0.077-3.005c0.017-0.371,0.047-0.74,0.07-1.109c0.039-0.609,0.08-1.217,0.138-1.82 c0.043-0.472,0.096-0.94,0.151-1.409c0.055-0.474,0.114-0.947,0.18-1.418c0.075-0.544,0.156-1.088,0.243-1.627 c0.058-0.34,0.12-0.678,0.183-1.017c5.375-29.611,31.274-52.073,62.438-52.073h6.859h1.23h1.486H512v-19.952h-31.448h-1.729h-1.432 h-7.98c-36.257,0-66.39,26.133-72.644,60.584c-0.073,0.395-0.146,0.788-0.212,1.185c-0.103,0.628-0.196,1.259-0.283,1.893 c-0.076,0.548-0.146,1.098-0.21,1.65c-0.064,0.544-0.124,1.09-0.175,1.639c-0.067,0.702-0.115,1.41-0.162,2.117 c-0.027,0.431-0.062,0.859-0.081,1.289c-0.056,1.159-0.089,2.325-0.089,3.498v6.577v2.016v26.785v25.194v2.016v11.139v2.017v25.194 v26.783v2.016v6.577c0,1.172,0.033,2.338,0.089,3.497c0.019,0.433,0.055,0.861,0.081,1.289c0.047,0.708,0.095,1.417,0.162,2.119 c0.051,0.548,0.113,1.092,0.175,1.638c0.064,0.551,0.133,1.102,0.21,1.65c0.087,0.634,0.181,1.266,0.283,1.893 c0.066,0.396,0.139,0.791,0.212,1.186c6.253,34.453,36.387,60.586,72.644,60.586h7.98h1.432h1.729H512v-19.952h-3.606V446.094z"></path><path style="fill:#F7A539;" d="M298.049,325.035c33.556,3.928,59.594,32.456,59.594,67.066v-27.728V349.46v-44.234v-9.79v-47.054 V219.38v-9.054c0-15.63-12.668-28.298-28.298-28.298h-29.48h-1.524H5.421c-1.731,10.183-2.977,16.889-3.389,17.769 C0.725,203.051,0,206.601,0,210.324v13.386v71.725v32.217v36.721v27.728c0-37.295,30.233-67.526,67.526-67.526"></path><path style="fill:#CCD4DD;" d="M46.24,67.428c0.003-0.02,0.007-0.039,0.009-0.059c0.216-1.365,3.728-20.679,29.234-23.166v-0.264 H58.765c-30.603,0-34.594,21.971-34.826,23.432c-0.002,0.02-0.006,0.039-0.009,0.059c0,0.004-0.002,0.022-0.002,0.022 c-4.907,31.886-13.633,88.144-18.507,116.805h22.309c4.872-28.66,13.599-84.919,18.507-116.806 C46.237,67.451,46.24,67.433,46.24,67.428z"></path><path style="fill:#F48F2A;" d="M22.309,327.65v-32.217v-71.725v-13.386c0-3.723,0.725-7.272,2.032-10.529 c0.412-0.88,1.658-7.586,3.389-17.769H5.421c-1.731,10.183-2.977,16.889-3.389,17.769C0.725,203.051,0,206.601,0,210.324v13.386 v71.725v32.217v36.721v27.728c0-19.901,8.613-37.788,22.309-50.146V327.65z"></path><path style="fill:#5B5E5E;" d="M237.51,324.575H70.677h-3.151C30.233,324.575,0,354.807,0,392.101v8.434 c0,37.295,30.233,67.527,67.526,67.527h3.151h216.288h3.151c37.293,0,67.526-30.234,67.526-67.527v-8.434 c0-37.295-30.234-67.526-67.526-67.526h-3.151h-21.569"></path><rect x="75.395" y="350.302" style="fill:#F7A539;" width="208.503" height="92.037"></rect><g><circle style="fill:#828282;" cx="283.898" cy="396.315" r="46.024"></circle><circle style="fill:#828282;" cx="73.23" cy="396.315" r="46.024"></circle></g><g><path style="fill:#6E7070;" d="M260.192,396.318c0-21.569,14.84-39.664,34.865-44.65c-3.573-0.89-7.307-1.369-11.155-1.369 c-25.416,0-46.02,20.604-46.02,46.02s20.604,46.021,46.02,46.021c3.847,0,7.582-0.48,11.155-1.37 C275.031,435.983,260.192,417.886,260.192,396.318z"></path><path style="fill:#6E7070;" d="M49.517,396.318c0-21.569,14.84-39.664,34.865-44.65c-3.573-0.89-7.307-1.369-11.155-1.369 c-25.416,0-46.02,20.604-46.02,46.02s20.604,46.021,46.02,46.021c3.847,0,7.582-0.48,11.155-1.37 C64.356,435.983,49.517,417.886,49.517,396.318z"></path></g><g><circle style="fill:#E6E9ED;" cx="283.898" cy="396.315" r="14.121"></circle><circle style="fill:#E6E9ED;" cx="73.219" cy="396.315" r="14.121"></circle></g><g><path style="fill:#ED6529;" d="M315.087,230.483h-51.776c-4.621,0-8.366-3.745-8.366-8.366c0-4.621,3.745-8.366,8.366-8.366h51.776 c4.62,0,8.366,3.745,8.366,8.366C323.453,226.738,319.708,230.483,315.087,230.483z"></path><path style="fill:#ED6529;" d="M315.087,259.372h-51.776c-4.621,0-8.366-3.745-8.366-8.366c0-4.621,3.745-8.366,8.366-8.366h51.776 c4.62,0,8.366,3.745,8.366,8.366C323.453,255.627,319.708,259.372,315.087,259.372z"></path><path style="fill:#ED6529;" d="M315.087,288.261h-51.776c-4.621,0-8.366-3.745-8.366-8.366s3.745-8.366,8.366-8.366h51.776 c4.62,0,8.366,3.745,8.366,8.366C323.453,284.515,319.708,288.261,315.087,288.261z"></path><path style="fill:#ED6529;" d="M133.771,230.483h-22.867c-4.621,0-8.366-3.745-8.366-8.366c0-4.621,3.745-8.366,8.366-8.366h22.867 c4.621,0,8.366,3.745,8.366,8.366C142.137,226.738,138.392,230.483,133.771,230.483z"></path></g></svg>