<!-- icon666.com - MILLIONS OF FREE VECTOR ICONS --><svg viewBox="0 0 96 96" xmlns="http://www.w3.org/2000/svg"><g id="Layer_4"><g><g><path d="m25.127 62.272c.203.339.576.545.972.545h12.017c1.881 0 6.063 24.982 1.241 24.982h-11.684c-4.828 0-17.906-17.214-17.906-38.449 0-20.154 13.078-38.24 17.906-38.24h11.683c4.822 0 1.109 25.563-.824 25.563h-12.986c-.422 0-.807.234-1.003.608-1.388 2.646-6.267 13.544.584 24.991z" fill="#4a95d0"></path></g><g><circle cx="69.925" cy="21.337" fill="#faa93c" r="13.337"></circle></g><g><path d="m86.232 51.781v15.155c0 .646-.524 1.17-1.17 1.17h-5.35c-.629 0-1.146.498-1.169 1.127l-.654 17.64c-.023.629-.54 1.127-1.169 1.127h-13.058c-.629 0-1.146-.498-1.169-1.127l-.654-17.64c-.023-.629-.54-1.127-1.169-1.127h-5.449c-.646 0-1.17-.524-1.17-1.17v-14.904c0-5.32 4.352-9.672 9.672-9.672h13.089c5.202 0 9.42 4.218 9.42 9.421z" fill="#faa93c"></path></g><g><path d="m69.984 62.042c-1.773 0-2.867-1.437-2.867-3.21v-11.51c0-1.772 1.095-3.21 2.867-3.21s2.867 1.437 2.867 3.21v11.511c0 1.772-1.095 3.209-2.867 3.209z" fill="#a06828"></path></g></g></g></svg>