<!-- icon666.com - MILLIONS OF FREE VECTOR ICONS --><svg id="Icons" viewBox="0 0 60 60" xmlns="http://www.w3.org/2000/svg"><path d="m42.54 32.69c1.72.37 7.072 1.14 9.1-2.85l-.64-.84-8-1z" fill="#d3982f"></path><path d="m42.24 19.21a7 7 0 0 0 -3.24-13.21 7.187 7.187 0 0 0 -2.04.3 6 6 0 0 0 -11.41-1.81 6.77 6.77 0 0 0 -2.55-.49 7 7 0 0 0 -4.92 11.98z" fill="#e83d56"></path><path d="m43.59 29.26a18.511 18.511 0 0 1 3.2-.26 16.438 16.438 0 0 1 4.851.84c.35.12.671.23.971.34a1.055 1.055 0 0 0 1.29-1.46c-2.031-4.68-8.082-5.53-10.213-5.68z" fill="#f5b632"></path><path d="m42.54 32.69a20.141 20.141 0 0 0 1.46-6.69 14 14 0 0 0 -14-14c-7.731 0-19 4-19 23a11.248 11.248 0 0 1 -3.86 8.53 3.087 3.087 0 0 0 -.25 4.56 3.183 3.183 0 0 0 3.6.55c1.23-.67 2.66-2.32 4.51-4.64a62.5 62.5 0 0 1 -.5 7.7 3.274 3.274 0 0 0 5.2 3.13 18.354 18.354 0 0 0 5.3-5.83 30.049 30.049 0 0 0 .911 6.58 4.526 4.526 0 0 0 4.399 3.42 4.576 4.576 0 0 0 4.09-2.56 24.515 24.515 0 0 0 1.6-4.44 41.006 41.006 0 0 0 5.03 6.32 2.853 2.853 0 0 0 1.87.68 2.9 2.9 0 0 0 2.53-4.32c-2.9-5.12-4.04-8.35-4.34-11.68z" fill="#fbedbc"></path><path d="m42.54 32.69a5.961 5.961 0 0 0 -5.54 6.31 4 4 0 0 0 4 4 3.964 3.964 0 0 0 4-3.6 3.69 3.69 0 0 0 -.742-2.188 10.6 10.6 0 0 1 -1.718-4.522z" fill="#e83d56"></path><circle cx="35" cy="24" fill="#49262d" r="3"></circle></svg>