<!-- icon666.com - MILLIONS OF FREE VECTOR ICONS --><svg version="1.1" id="Capa_1" xmlns="http://www.w3.org/2000/svg" xmlns:xlink="http://www.w3.org/1999/xlink" x="0px" y="0px" viewBox="0 0 504.123 504.123" style="enable-background:new 0 0 504.123 504.123;" xml:space="preserve"><polyline style="fill:#8FC105;" points="251.68,473.876 251.68,502.863 0,357.124 0,328.353 251.68,473.876 "></polyline><polyline style="fill:#4DA004;" points="251.711,473.876 251.711,502.863 503.387,357.124 503.387,328.353 251.711,473.876 "></polyline><polygon style="fill:#A7DD12;" points="0,328.353 251.68,473.876 504.123,328.353 252.062,182.823 "></polygon><polyline style="fill:#98D80B;" points="0,328.353 251.68,473.876 504.123,328.353 "></polyline><polygon style="fill:#6EBF06;" points="95.464,273.235 95.464,383.551 251.68,473.876 471.402,347.215 471.402,313.108 342.272,364.776 139.559,247.777 "></polygon><polygon style="fill:#8EAEAF;" points="124.412,265.121 131.446,99.076 356.013,228.73 356.013,398.84 "></polygon><polygon style="fill:#6E9191;" points="356.013,228.73 471.812,161.879 471.812,331.985 356.013,398.84 "></polygon><polygon style="fill:#0986D3;" points="124.412,253.708 124.412,83.602 356.013,217.316 356.013,387.423 "></polygon><polyline style="fill:#087FBA;" points="124.412,83.602 356.013,217.316 356.013,387.423 "></polyline><polygon style="fill:#045AB7;" points="356.013,217.316 471.812,150.457 471.812,320.567 356.013,387.423 "></polygon><polygon style="fill:#90A098;" points="124.412,101.801 356.013,235.512 356.013,217.316 124.412,83.602 "></polygon><polyline style="fill:#075399;" points="471.812,150.457 356.013,217.316 356.013,387.423 "></polyline><polygon style="fill:#222B26;" points="424.546,134.975 356.013,217.316 471.812,150.457 "></polygon><polygon style="fill:#323F38;" points="356.013,235.512 471.812,168.653 471.812,150.457 356.013,217.316 "></polygon><polygon style="fill:#566860;" points="124.412,83.602 192.941,1.26 424.546,134.975 356.013,217.316 "></polygon><g><polygon style="fill:#6A7F75;" points="131.777,87.855 136.294,90.463 204.824,8.121 200.31,5.514 "></polygon><polygon style="fill:#6A7F75;" points="138.756,91.873 143.269,94.476 211.799,12.142 207.281,9.535 "></polygon><polygon style="fill:#6A7F75;" points="145.731,95.894 150.244,98.501 218.77,16.163 214.256,13.552 "></polygon><polygon style="fill:#6A7F75;" points="152.706,99.907 157.215,102.514 225.749,20.177 221.231,17.569 "></polygon><polygon style="fill:#6A7F75;" points="159.677,103.928 164.194,106.531 232.724,24.198 228.21,21.587 "></polygon><polygon style="fill:#6A7F75;" points="166.656,107.945 171.169,110.553 239.699,28.215 235.181,25.608 "></polygon><polygon style="fill:#6A7F75;" points="173.631,111.963 178.144,114.57 246.67,32.232 242.156,29.621 "></polygon><polygon style="fill:#6A7F75;" points="180.606,115.98 185.116,118.583 253.649,36.25 249.131,33.642 "></polygon><polygon style="fill:#6A7F75;" points="187.577,120.001 192.095,122.608 260.624,40.271 256.11,37.66 "></polygon><polygon style="fill:#6A7F75;" points="194.556,124.014 199.07,126.622 267.603,44.284 263.081,41.677 "></polygon><polygon style="fill:#6A7F75;" points="201.531,128.035 206.045,130.639 274.574,48.305 270.056,45.698 "></polygon><polygon style="fill:#6A7F75;" points="208.506,132.053 213.016,134.66 281.549,52.322 277.031,49.715 "></polygon><polygon style="fill:#6A7F75;" points="215.477,136.07 219.995,138.677 288.524,56.34 284.01,53.732 "></polygon><polygon style="fill:#6A7F75;" points="222.456,140.087 226.97,142.69 295.503,60.357 290.985,57.75 "></polygon><polygon style="fill:#6A7F75;" points="229.431,144.108 233.945,146.716 302.474,64.378 297.96,61.771 "></polygon><polygon style="fill:#6A7F75;" points="236.406,148.122 240.916,150.729 309.449,68.391 304.931,65.784 "></polygon><polygon style="fill:#6A7F75;" points="243.377,152.143 247.895,154.75 316.424,72.413 311.91,69.805 "></polygon><polygon style="fill:#6A7F75;" points="250.356,156.16 254.87,158.767 323.403,76.43 318.885,73.823 "></polygon><polygon style="fill:#6A7F75;" points="257.331,160.177 261.845,162.785 330.374,80.447 325.86,77.84 "></polygon><polygon style="fill:#6A7F75;" points="264.306,164.194 268.816,166.806 337.349,84.464 332.832,81.857 "></polygon><polygon style="fill:#6A7F75;" points="271.277,168.216 275.795,170.823 344.324,88.485 339.81,85.878 "></polygon><polygon style="fill:#6A7F75;" points="278.256,172.229 282.77,174.84 351.303,92.499 346.785,89.891 "></polygon><polygon style="fill:#6A7F75;" points="285.231,176.25 289.745,178.857 358.274,96.52 353.76,93.913 "></polygon><polygon style="fill:#6A7F75;" points="292.206,180.267 296.716,182.879 365.249,100.537 360.732,97.93 "></polygon><polygon style="fill:#6A7F75;" points="299.177,184.285 303.695,186.892 372.224,104.554 367.711,101.947 "></polygon><polygon style="fill:#6A7F75;" points="306.156,188.306 310.67,190.913 379.203,108.572 374.686,105.964 "></polygon><polygon style="fill:#6A7F75;" points="313.131,192.323 317.649,194.93 386.174,112.593 381.661,109.985 "></polygon><polygon style="fill:#6A7F75;" points="320.106,196.34 324.62,198.947 393.149,116.606 388.632,113.999 "></polygon><polygon style="fill:#6A7F75;" points="327.077,200.357 331.595,202.965 400.124,120.627 395.611,118.024 "></polygon><polygon style="fill:#6A7F75;" points="334.056,204.379 338.57,206.986 407.103,124.644 402.586,122.037 "></polygon><polygon style="fill:#6A7F75;" points="341.031,208.392 345.549,210.999 414.074,128.662 409.561,126.054 "></polygon><polygon style="fill:#6A7F75;" points="348.01,212.413 352.52,215.02 421.049,132.679 416.532,130.076 "></polygon></g><polygon style="fill:#45564E;" points="356.013,217.316 369.81,200.739 369.81,159.185 334.056,160.492 334.056,204.639 "></polygon><polygon style="fill:#323F38;" points="471.812,150.457 424.546,134.975 192.941,1.26 263.369,31.748 "></polygon><polygon style="fill:#0986D3;" points="334.718,154.825 334.718,189.263 349.653,197.884 349.653,163.43 "></polygon><polyline style="fill:#087FBA;" points="349.653,197.884 349.653,163.43 334.718,154.825 "></polyline><polygon style="fill:#075399;" points="349.724,197.841 349.653,197.884 349.653,163.43 369.625,151.891 "></polygon><polygon style="fill:#323F38;" points="369.81,149.709 349.649,161.347 349.649,170.819 369.81,159.185 "></polygon><polygon style="fill:#566860;" points="329.496,149.709 349.657,161.347 349.657,170.819 329.496,159.185 "></polygon><polygon style="fill:#90A098;" points="349.657,138.071 329.496,149.709 349.657,161.347 369.81,149.709 "></polygon><polygon style="fill:#323F38;" points="349.657,142.655 337.432,149.709 349.657,156.77 361.87,149.709 "></polygon><polyline style="fill:#566860;" points="349.657,142.655 337.432,149.709 349.657,156.77 "></polyline><polygon style="fill:#45564E;" points="162.3,105.409 176.096,88.832 176.096,47.281 141.005,69.518 140.343,92.731 "></polygon><polygon style="fill:#0986D3;" points="141.005,42.913 141.005,77.359 155.939,85.981 155.939,51.523 "></polygon><polyline style="fill:#087FBA;" points="155.939,85.981 155.939,51.523 141.005,42.913 "></polyline><polygon style="fill:#075399;" points="156.014,85.937 155.939,85.981 155.939,51.523 175.915,39.983 "></polygon><polygon style="fill:#323F38;" points="176.096,37.805 155.936,49.44 155.936,58.915 176.096,47.281 "></polygon><polygon style="fill:#566860;" points="135.782,37.805 155.943,49.44 155.943,58.915 135.782,47.281 "></polygon><polygon style="fill:#90A098;" points="155.943,26.163 135.782,37.805 155.943,49.44 176.096,37.805 "></polygon><polygon style="fill:#323F38;" points="155.943,30.748 143.722,37.801 155.943,44.863 168.16,37.801 "></polygon><polyline style="fill:#566860;" points="155.943,30.748 143.722,37.801 155.943,44.863 "></polyline><polygon style="fill:#45564E;" points="286.484,76.906 236.938,105.275 216.222,129.264 217.1,129.831 217.1,130.454 217.1,133.408 217.1,136.869 306.294,188.365 306.294,187.132 306.294,127.657 306.294,124.085 286.484,78.336 "></polygon><polygon style="fill:#90A098;" points="217.1,132.663 256.744,155.55 256.772,131.994 236.938,86.244 217.1,109.032 "></polygon><polygon style="fill:#323F38;" points="256.772,131.994 256.744,155.55 306.294,126.945 306.294,103.282 "></polygon><polygon style="fill:#0986D3;" points="217.1,129.087 256.744,151.977 256.772,128.414 236.938,82.668 217.1,105.452 "></polygon><polyline style="fill:#087FBA;" points="256.772,128.414 236.938,82.668 217.1,105.452 217.1,106.079 "></polyline><polygon style="fill:#045AB7;" points="256.772,128.414 256.744,151.977 306.294,123.368 306.294,99.706 "></polygon><polyline style="fill:#075399;" points="306.294,99.706 256.772,128.414 256.744,151.977 "></polyline><polygon style="fill:#37473F;" points="256.772,128.414 306.294,99.706 286.484,53.957 236.938,82.668 "></polygon><polyline style="fill:#323F38;" points="286.484,53.957 236.938,82.668 256.772,128.414 "></polyline><g><polygon style="fill:#90A098;" points="236.938,82.668 236.938,80.9 216.222,104.889 217.1,105.452 "></polygon><polygon style="fill:#90A098;" points="236.938,82.668 286.484,53.957 286.484,52.531 236.938,80.9 "></polygon></g><polygon style="fill:#FFF140;" points="229.561,125.562 225.359,127.988 239.789,136.318 243.992,133.888 "></polygon><g><polygon style="fill:#BA2406;" points="226.737,107.185 231.424,104.523 243.885,115.807 244,133.923 238.793,136.893 "></polygon><path style="fill:#BA2406;" d="M236.78,104.838c3.974,2.296,7.219,7.924,7.219,12.509v16.577l-14.438-8.338v-16.577 C229.561,104.424,232.81,102.55,236.78,104.838z"></path></g><path style="fill:#D12C00;" d="M231.578,107.815c3.966,2.292,7.219,7.92,7.219,12.501v16.577l-14.438-8.334v-16.573 C224.354,107.402,227.608,105.523,231.578,107.815z"></path><path style="fill:#29CDFF;" d="M231.578,111.163c2.863,1.654,5.203,5.707,5.203,9.015v11.949l-10.409-6.01v-11.945 C226.371,110.86,228.714,109.513,231.578,111.163z"></path><path style="fill:#0986D3;" d="M236.78,120.178v9.614l-8.298-4.789v-11.949c0-1.083,0.272-1.938,0.713-2.564 c0.717-0.02,1.52,0.177,2.383,0.673C234.437,112.817,236.78,116.87,236.78,120.178z"></path><g><rect x="231.05" y="110.037" style="fill:#D12C00;" width="1.056" height="20.641"></rect><polygon style="fill:#D12C00;" points="225.65,117.752 225.65,118.725 237.088,125.361 237.088,124.373 "></polygon></g><polygon style="fill:#075399;" points="132.632,123.861 145.447,131.253 145.447,146.05 132.632,138.65 "></polygon><polyline style="fill:#087FBA;" points="145.447,131.253 145.447,146.05 132.632,138.65 "></polyline><polygon style="fill:#73E5FF;" points="134.715,137.496 145.447,143.691 145.447,131.253 134.715,125.062 "></polygon><polyline style="fill:#29CDFF;" points="145.447,143.691 145.447,131.253 134.715,125.062 "></polyline><polygon style="fill:#087FBA;" points="133.986,130.43 133.986,132.214 145.447,138.831 145.447,137.039 "></polygon><polygon style="fill:#075399;" points="157.385,138.079 170.201,145.471 170.201,160.26 157.385,152.86 "></polygon><polyline style="fill:#087FBA;" points="170.201,145.471 170.201,160.26 157.385,152.86 "></polyline><polygon style="fill:#73E5FF;" points="159.468,151.71 170.201,157.905 170.201,145.471 159.468,139.276 "></polygon><polyline style="fill:#29CDFF;" points="170.201,157.905 170.201,145.471 159.468,139.276 "></polyline><polygon style="fill:#087FBA;" points="158.74,144.644 158.74,146.428 170.201,153.045 170.201,151.253 "></polygon><polygon style="fill:#075399;" points="182.138,152.289 194.954,159.685 194.954,174.478 182.138,167.077 "></polygon><polyline style="fill:#087FBA;" points="194.954,159.685 194.954,174.478 182.138,167.077 "></polyline><polygon style="fill:#73E5FF;" points="184.222,165.923 194.954,172.115 194.954,159.685 184.222,153.49 "></polygon><polyline style="fill:#29CDFF;" points="194.954,172.115 194.954,159.685 184.222,153.49 "></polyline><polygon style="fill:#087FBA;" points="183.493,158.854 183.493,160.638 194.954,167.259 194.954,165.467 "></polygon><polygon style="fill:#075399;" points="206.891,166.498 219.707,173.895 219.707,188.692 206.891,181.291 "></polygon><polyline style="fill:#087FBA;" points="219.707,173.895 219.707,188.692 206.891,181.291 "></polyline><polygon style="fill:#73E5FF;" points="208.979,180.137 219.707,186.333 219.707,173.895 208.979,167.7 "></polygon><polyline style="fill:#29CDFF;" points="219.707,186.333 219.707,173.895 208.979,167.7 "></polyline><polygon style="fill:#087FBA;" points="208.246,173.068 208.246,174.852 219.707,181.469 219.707,179.677 "></polygon><polygon style="fill:#075399;" points="231.645,180.716 244.46,188.109 244.46,202.906 231.645,195.505 "></polygon><polyline style="fill:#087FBA;" points="244.46,188.109 244.46,202.906 231.645,195.505 "></polyline><polygon style="fill:#73E5FF;" points="233.732,194.351 244.46,200.546 244.46,188.109 233.732,181.914 "></polygon><polyline style="fill:#29CDFF;" points="244.46,200.546 244.46,188.109 233.732,181.914 "></polyline><polygon style="fill:#087FBA;" points="233.003,187.286 233.003,189.07 244.46,195.686 244.46,193.89 "></polygon><polygon style="fill:#075399;" points="256.402,194.93 269.214,202.323 269.214,217.116 256.402,209.715 "></polygon><polyline style="fill:#087FBA;" points="269.214,202.323 269.214,217.116 256.402,209.715 "></polyline><polygon style="fill:#73E5FF;" points="258.485,208.561 269.214,214.756 269.214,202.323 258.485,196.131 "></polygon><polyline style="fill:#29CDFF;" points="269.214,214.756 269.214,202.323 258.485,196.131 "></polyline><polygon style="fill:#087FBA;" points="257.757,201.496 257.757,203.28 269.214,209.9 269.214,208.108 "></polygon><polygon style="fill:#075399;" points="281.155,209.144 293.971,216.537 293.971,231.329 281.155,223.929 "></polygon><polyline style="fill:#087FBA;" points="293.971,216.537 293.971,231.329 281.155,223.929 "></polyline><polygon style="fill:#73E5FF;" points="283.238,222.775 293.971,228.97 293.971,216.537 283.238,210.341 "></polygon><polyline style="fill:#29CDFF;" points="293.971,228.97 293.971,216.537 283.238,210.341 "></polyline><polygon style="fill:#087FBA;" points="282.51,215.71 282.51,217.494 293.971,224.11 293.971,222.318 "></polygon><polygon style="fill:#075399;" points="305.908,223.354 318.724,230.751 318.724,245.547 305.908,238.147 "></polygon><polyline style="fill:#087FBA;" points="318.724,230.751 318.724,245.547 305.908,238.147 "></polyline><polygon style="fill:#73E5FF;" points="307.992,236.993 318.724,243.184 318.724,230.751 307.992,224.555 "></polygon><polyline style="fill:#29CDFF;" points="318.724,243.184 318.724,230.751 307.992,224.555 "></polyline><polygon style="fill:#087FBA;" points="307.263,229.923 307.263,231.708 318.724,238.324 318.724,236.532 "></polygon><polygon style="fill:#075399;" points="330.661,237.568 343.477,244.96 343.477,259.757 330.661,252.357 "></polygon><polyline style="fill:#087FBA;" points="343.477,244.96 343.477,259.757 330.661,252.357 "></polyline><polygon style="fill:#73E5FF;" points="332.745,251.203 343.477,257.398 343.477,244.96 332.745,238.769 "></polygon><polyline style="fill:#29CDFF;" points="343.477,257.398 343.477,244.96 332.745,238.769 "></polyline><polygon style="fill:#087FBA;" points="332.016,244.137 332.016,245.921 343.477,252.538 343.477,250.746 "></polygon><polygon style="fill:#075399;" points="132.632,155.408 145.447,162.8 145.447,177.597 132.632,170.197 "></polygon><polyline style="fill:#087FBA;" points="145.447,162.8 145.447,177.597 132.632,170.197 "></polyline><polygon style="fill:#73E5FF;" points="134.715,169.043 145.447,175.238 145.447,162.8 134.715,156.609 "></polygon><polyline style="fill:#29CDFF;" points="145.447,175.238 145.447,162.8 134.715,156.609 "></polyline><polygon style="fill:#087FBA;" points="133.986,161.977 133.986,163.761 145.447,170.378 145.447,168.586 "></polygon><polygon style="fill:#075399;" points="157.385,169.622 170.201,177.014 170.201,191.807 157.385,184.407 "></polygon><polyline style="fill:#087FBA;" points="170.201,177.014 170.201,191.807 157.385,184.407 "></polyline><polygon style="fill:#73E5FF;" points="159.468,183.253 170.201,189.452 170.201,177.014 159.468,170.823 "></polygon><polyline style="fill:#29CDFF;" points="170.201,189.452 170.201,177.014 159.468,170.823 "></polyline><polygon style="fill:#087FBA;" points="158.74,176.187 158.74,177.971 170.201,184.592 170.201,182.8 "></polygon><polygon style="fill:#075399;" points="182.138,183.836 194.954,191.232 194.954,206.025 182.138,198.624 "></polygon><polyline style="fill:#087FBA;" points="194.954,191.232 194.954,206.025 182.138,198.624 "></polyline><polygon style="fill:#73E5FF;" points="184.222,197.471 194.954,203.662 194.954,191.232 184.222,185.033 "></polygon><polyline style="fill:#29CDFF;" points="194.954,203.662 194.954,191.232 184.222,185.033 "></polyline><polygon style="fill:#087FBA;" points="183.493,190.401 183.493,192.185 194.954,198.806 194.954,197.01 "></polygon><polygon style="fill:#075399;" points="206.891,198.046 219.707,205.442 219.707,220.239 206.891,212.838 "></polygon><polyline style="fill:#087FBA;" points="219.707,205.442 219.707,220.239 206.891,212.838 "></polyline><polygon style="fill:#73E5FF;" points="208.979,211.684 219.707,217.876 219.707,205.442 208.979,199.247 "></polygon><polyline style="fill:#29CDFF;" points="219.707,217.876 219.707,205.442 208.979,199.247 "></polyline><polygon style="fill:#087FBA;" points="208.246,204.615 208.246,206.399 219.707,213.016 219.707,211.224 "></polygon><polygon style="fill:#075399;" points="231.645,212.263 244.46,219.652 244.46,234.449 231.645,227.048 "></polygon><polyline style="fill:#087FBA;" points="244.46,219.652 244.46,234.449 231.645,227.048 "></polyline><polygon style="fill:#73E5FF;" points="233.732,225.894 244.46,232.094 244.46,219.652 233.732,213.461 "></polygon><polyline style="fill:#29CDFF;" points="244.46,232.094 244.46,219.652 233.732,213.461 "></polyline><polygon style="fill:#087FBA;" points="233.003,218.829 233.003,220.617 244.46,227.23 244.46,225.438 "></polygon><polygon style="fill:#075399;" points="256.402,226.477 269.214,233.87 269.214,248.663 256.402,241.262 "></polygon><polyline style="fill:#087FBA;" points="269.214,233.87 269.214,248.663 256.402,241.262 "></polyline><polygon style="fill:#73E5FF;" points="258.485,240.108 269.214,246.304 269.214,233.87 258.485,227.679 "></polygon><polyline style="fill:#29CDFF;" points="269.214,246.304 269.214,233.87 258.485,227.679 "></polyline><polygon style="fill:#087FBA;" points="257.757,233.043 257.757,234.827 269.214,241.447 269.214,239.655 "></polygon><polygon style="fill:#075399;" points="281.155,240.687 293.971,248.084 293.971,262.877 281.155,255.476 "></polygon><polyline style="fill:#087FBA;" points="293.971,248.084 293.971,262.877 281.155,255.476 "></polyline><polygon style="fill:#73E5FF;" points="283.238,254.322 293.971,260.514 293.971,248.084 283.238,241.889 "></polygon><polyline style="fill:#29CDFF;" points="293.971,260.514 293.971,248.084 283.238,241.889 "></polyline><polygon style="fill:#087FBA;" points="282.51,247.253 282.51,249.037 293.971,255.657 293.971,253.865 "></polygon><polygon style="fill:#075399;" points="305.908,254.901 318.724,262.298 318.724,277.09 305.908,269.694 "></polygon><polyline style="fill:#087FBA;" points="318.724,262.298 318.724,277.09 305.908,269.694 "></polyline><polygon style="fill:#73E5FF;" points="307.992,268.54 318.724,274.731 318.724,262.298 307.992,256.098 "></polygon><polyline style="fill:#29CDFF;" points="318.724,274.731 318.724,262.298 307.992,256.098 "></polyline><polygon style="fill:#087FBA;" points="307.263,261.471 307.263,263.255 318.724,269.867 318.724,268.075 "></polygon><polygon style="fill:#075399;" points="330.661,269.115 343.477,276.508 343.477,291.304 330.661,283.904 "></polygon><polyline style="fill:#087FBA;" points="343.477,276.508 343.477,291.304 330.661,283.904 "></polyline><polygon style="fill:#73E5FF;" points="332.745,282.75 343.477,288.945 343.477,276.508 332.745,270.316 "></polygon><polyline style="fill:#29CDFF;" points="343.477,288.945 343.477,276.508 332.745,270.316 "></polyline><polygon style="fill:#087FBA;" points="332.016,275.684 332.016,277.469 343.477,284.085 343.477,282.293 "></polygon><polygon style="fill:#075399;" points="132.632,186.955 145.447,194.347 145.447,209.144 132.632,201.744 "></polygon><polyline style="fill:#087FBA;" points="145.447,194.347 145.447,209.144 132.632,201.744 "></polyline><polygon style="fill:#73E5FF;" points="134.715,200.59 145.447,206.785 145.447,194.347 134.715,188.152 "></polygon><polyline style="fill:#29CDFF;" points="145.447,206.785 145.447,194.347 134.715,188.152 "></polyline><polygon style="fill:#087FBA;" points="133.986,193.524 133.986,195.308 145.447,201.925 145.447,200.129 "></polygon><polygon style="fill:#075399;" points="157.385,201.169 170.201,208.561 170.201,223.354 157.385,215.954 "></polygon><polyline style="fill:#087FBA;" points="170.201,208.561 170.201,223.354 157.385,215.954 "></polyline><polygon style="fill:#73E5FF;" points="159.468,214.8 170.201,220.995 170.201,208.561 159.468,202.37 "></polygon><polyline style="fill:#29CDFF;" points="170.201,220.995 170.201,208.561 159.468,202.37 "></polyline><polygon style="fill:#087FBA;" points="158.74,207.734 158.74,209.518 170.201,216.139 170.201,214.347 "></polygon><polygon style="fill:#075399;" points="182.138,215.383 194.954,222.775 194.954,237.568 182.138,230.168 "></polygon><polyline style="fill:#087FBA;" points="194.954,222.775 194.954,237.568 182.138,230.168 "></polyline><polygon style="fill:#73E5FF;" points="184.222,229.014 194.954,235.209 194.954,222.775 184.222,216.58 "></polygon><polyline style="fill:#29CDFF;" points="194.954,235.209 194.954,222.775 184.222,216.58 "></polyline><polygon style="fill:#087FBA;" points="183.493,221.948 183.493,223.732 194.954,230.349 194.954,228.557 "></polygon><polygon style="fill:#075399;" points="281.155,272.234 293.971,279.631 293.971,294.424 281.155,287.023 "></polygon><polyline style="fill:#087FBA;" points="293.971,279.631 293.971,294.424 281.155,287.023 "></polyline><polygon style="fill:#73E5FF;" points="283.238,285.869 293.971,292.061 293.971,279.631 283.238,273.436 "></polygon><polyline style="fill:#29CDFF;" points="293.971,292.061 293.971,279.631 283.238,273.436 "></polyline><polygon style="fill:#087FBA;" points="282.51,278.8 282.51,280.584 293.971,287.204 293.971,285.412 "></polygon><polygon style="fill:#075399;" points="305.908,286.444 318.724,293.841 318.724,308.638 305.908,301.237 "></polygon><polyline style="fill:#087FBA;" points="318.724,293.841 318.724,308.638 305.908,301.237 "></polyline><polygon style="fill:#73E5FF;" points="307.992,300.083 318.724,306.278 318.724,293.841 307.992,287.646 "></polygon><polyline style="fill:#29CDFF;" points="318.724,306.278 318.724,293.841 307.992,287.646 "></polyline><polygon style="fill:#087FBA;" points="307.263,293.014 307.263,294.802 318.724,301.414 318.724,299.622 "></polygon><polygon style="fill:#075399;" points="330.661,300.662 343.477,308.055 343.477,322.851 330.661,315.451 "></polygon><polyline style="fill:#087FBA;" points="343.477,308.055 343.477,322.851 330.661,315.451 "></polyline><polygon style="fill:#73E5FF;" points="332.745,314.297 343.477,320.492 343.477,308.055 332.745,301.863 "></polygon><polyline style="fill:#29CDFF;" points="343.477,320.492 343.477,308.055 332.745,301.863 "></polyline><polygon style="fill:#087FBA;" points="332.016,307.232 332.016,309.016 343.477,315.632 343.477,313.84 "></polygon><polygon style="fill:#075399;" points="132.632,218.502 145.447,225.89 145.447,240.687 132.632,233.287 "></polygon><polyline style="fill:#087FBA;" points="145.447,225.89 145.447,240.687 132.632,233.287 "></polyline><polygon style="fill:#73E5FF;" points="134.715,232.133 145.447,238.332 145.447,225.89 134.715,219.699 "></polygon><polyline style="fill:#29CDFF;" points="145.447,238.332 145.447,225.89 134.715,219.699 "></polyline><polygon style="fill:#087FBA;" points="133.986,225.067 133.986,226.855 145.447,233.468 145.447,231.676 "></polygon><polygon style="fill:#075399;" points="157.385,232.716 170.201,240.108 170.201,254.901 157.385,247.501 "></polygon><polyline style="fill:#087FBA;" points="170.201,240.108 170.201,254.901 157.385,247.501 "></polyline><polygon style="fill:#73E5FF;" points="159.468,246.347 170.201,252.542 170.201,240.108 159.468,233.917 "></polygon><polyline style="fill:#29CDFF;" points="170.201,252.542 170.201,240.108 159.468,233.917 "></polyline><polygon style="fill:#087FBA;" points="158.74,239.281 158.74,241.065 170.201,247.686 170.201,245.894 "></polygon><polygon style="fill:#075399;" points="305.908,317.991 318.724,325.388 318.724,340.185 305.908,332.784 "></polygon><polyline style="fill:#087FBA;" points="318.724,325.388 318.724,340.185 305.908,332.784 "></polyline><polygon style="fill:#73E5FF;" points="307.992,331.63 318.724,337.822 318.724,325.388 307.992,319.193 "></polygon><polyline style="fill:#29CDFF;" points="318.724,337.822 318.724,325.388 307.992,319.193 "></polyline><polygon style="fill:#087FBA;" points="307.263,324.561 307.263,326.345 318.724,332.961 318.724,331.169 "></polygon><polygon style="fill:#075399;" points="330.661,332.209 343.477,339.602 343.477,354.395 330.661,346.994 "></polygon><polyline style="fill:#087FBA;" points="343.477,339.602 343.477,354.395 330.661,346.994 "></polyline><polygon style="fill:#73E5FF;" points="332.745,345.844 343.477,352.039 343.477,339.602 332.745,333.407 "></polygon><polyline style="fill:#29CDFF;" points="343.477,352.039 343.477,339.602 332.745,333.407 "></polyline><polygon style="fill:#087FBA;" points="332.016,338.779 332.016,340.563 343.477,347.175 343.477,345.383 "></polygon><polygon style="fill:#075399;" points="457.657,194.93 444.841,202.323 444.841,217.116 457.657,209.715 "></polygon><polyline style="fill:#087FBA;" points="444.841,202.323 444.841,217.116 457.657,209.715 "></polyline><polygon style="fill:#73E5FF;" points="455.57,208.561 444.841,214.756 444.841,202.323 455.57,196.131 "></polygon><polyline style="fill:#29CDFF;" points="444.841,214.756 444.841,202.323 455.57,196.131 "></polyline><polygon style="fill:#087FBA;" points="456.298,201.496 456.298,203.28 444.841,209.9 444.841,208.108 "></polygon><polygon style="fill:#075399;" points="432.904,209.144 420.088,216.537 420.088,231.329 432.904,223.929 "></polygon><polyline style="fill:#087FBA;" points="420.088,216.537 420.088,231.329 432.904,223.929 "></polyline><polygon style="fill:#73E5FF;" points="430.816,222.775 420.088,228.97 420.088,216.537 430.816,210.341 "></polygon><polyline style="fill:#29CDFF;" points="420.088,228.97 420.088,216.537 430.816,210.341 "></polyline><polygon style="fill:#087FBA;" points="431.545,215.71 431.545,217.494 420.088,224.11 420.088,222.318 "></polygon><polygon style="fill:#075399;" points="408.147,223.354 395.331,230.751 395.331,245.547 408.147,238.147 "></polygon><polyline style="fill:#087FBA;" points="395.331,230.751 395.331,245.547 408.147,238.147 "></polyline><polygon style="fill:#73E5FF;" points="406.063,236.993 395.331,243.184 395.331,230.751 406.063,224.555 "></polygon><polyline style="fill:#29CDFF;" points="395.331,243.184 395.331,230.751 406.063,224.555 "></polyline><polygon style="fill:#087FBA;" points="406.792,229.923 406.792,231.708 395.331,238.324 395.331,236.532 "></polygon><polygon style="fill:#075399;" points="383.393,237.568 370.578,244.96 370.578,259.757 383.393,252.357 "></polygon><polyline style="fill:#087FBA;" points="370.578,244.96 370.578,259.757 383.393,252.357 "></polyline><polygon style="fill:#73E5FF;" points="381.31,251.203 370.578,257.398 370.578,244.96 381.31,238.769 "></polygon><polyline style="fill:#29CDFF;" points="370.578,257.398 370.578,244.96 381.31,238.769 "></polyline><polygon style="fill:#087FBA;" points="382.039,244.137 382.039,245.921 370.578,252.538 370.578,250.746 "></polygon><polygon style="fill:#075399;" points="457.657,226.477 444.841,233.87 444.841,248.663 457.657,241.262 "></polygon><polyline style="fill:#087FBA;" points="444.841,233.87 444.841,248.663 457.657,241.262 "></polyline><polygon style="fill:#73E5FF;" points="455.57,240.108 444.841,246.304 444.841,233.87 455.57,227.679 "></polygon><polyline style="fill:#29CDFF;" points="444.841,246.304 444.841,233.87 455.57,227.679 "></polyline><polygon style="fill:#087FBA;" points="456.298,233.043 456.298,234.827 444.841,241.447 444.841,239.655 "></polygon><polygon style="fill:#075399;" points="432.904,240.687 420.088,248.084 420.088,262.877 432.904,255.476 "></polygon><polyline style="fill:#087FBA;" points="420.088,248.084 420.088,262.877 432.904,255.476 "></polyline><polygon style="fill:#73E5FF;" points="430.816,254.322 420.088,260.514 420.088,248.084 430.816,241.889 "></polygon><polyline style="fill:#29CDFF;" points="420.088,260.514 420.088,248.084 430.816,241.889 "></polyline><polygon style="fill:#087FBA;" points="431.545,247.253 431.545,249.037 420.088,255.657 420.088,253.865 "></polygon><polygon style="fill:#075399;" points="408.147,254.901 395.331,262.298 395.331,277.09 408.147,269.694 "></polygon><polyline style="fill:#087FBA;" points="395.331,262.298 395.331,277.09 408.147,269.694 "></polyline><polygon style="fill:#73E5FF;" points="406.063,268.54 395.331,274.731 395.331,262.298 406.063,256.098 "></polygon><polyline style="fill:#29CDFF;" points="395.331,274.731 395.331,262.298 406.063,256.098 "></polyline><polygon style="fill:#087FBA;" points="406.792,261.471 406.792,263.255 395.331,269.867 395.331,268.075 "></polygon><polygon style="fill:#075399;" points="383.393,269.115 370.578,276.508 370.578,291.304 383.393,283.904 "></polygon><polyline style="fill:#087FBA;" points="370.578,276.508 370.578,291.304 383.393,283.904 "></polyline><polygon style="fill:#73E5FF;" points="381.31,282.75 370.578,288.945 370.578,276.508 381.31,270.316 "></polygon><polyline style="fill:#29CDFF;" points="370.578,288.945 370.578,276.508 381.31,270.316 "></polyline><polygon style="fill:#087FBA;" points="382.039,275.684 382.039,277.469 370.578,284.085 370.578,282.293 "></polygon><polygon style="fill:#075399;" points="457.657,258.087 444.841,265.484 444.841,280.277 457.657,272.876 "></polygon><polyline style="fill:#087FBA;" points="444.841,265.484 444.841,280.277 457.657,272.876 "></polyline><polygon style="fill:#73E5FF;" points="455.57,271.722 444.841,277.914 444.841,265.484 455.57,259.289 "></polygon><polyline style="fill:#29CDFF;" points="444.841,277.914 444.841,265.484 455.57,259.289 "></polyline><polygon style="fill:#087FBA;" points="456.298,264.653 456.298,266.437 444.841,273.057 444.841,271.266 "></polygon><polygon style="fill:#075399;" points="432.904,272.301 420.088,279.698 420.088,294.491 432.904,287.094 "></polygon><polyline style="fill:#087FBA;" points="420.088,279.698 420.088,294.491 432.904,287.094 "></polyline><polygon style="fill:#73E5FF;" points="430.816,285.94 420.088,292.131 420.088,279.698 430.816,273.499 "></polygon><polyline style="fill:#29CDFF;" points="420.088,292.131 420.088,279.698 430.816,273.499 "></polyline><polygon style="fill:#087FBA;" points="431.545,278.871 431.545,280.655 420.088,287.267 420.088,285.475 "></polygon><polygon style="fill:#075399;" points="408.147,286.515 395.331,293.908 395.331,308.705 408.147,301.304 "></polygon><polyline style="fill:#087FBA;" points="395.331,293.908 395.331,308.705 408.147,301.304 "></polyline><polygon style="fill:#73E5FF;" points="406.063,300.15 395.331,306.345 395.331,293.908 406.063,287.716 "></polygon><polyline style="fill:#29CDFF;" points="395.331,306.345 395.331,293.908 406.063,287.716 "></polyline><polygon style="fill:#087FBA;" points="406.792,293.085 406.792,294.869 395.331,301.485 395.331,299.693 "></polygon><polygon style="fill:#075399;" points="383.393,300.729 370.578,308.122 370.578,322.914 383.393,315.514 "></polygon><polyline style="fill:#087FBA;" points="370.578,308.122 370.578,322.914 383.393,315.514 "></polyline><polygon style="fill:#73E5FF;" points="381.31,314.36 370.578,320.559 370.578,308.122 381.31,301.93 "></polygon><polyline style="fill:#29CDFF;" points="370.578,320.559 370.578,308.122 381.31,301.93 "></polyline><polygon style="fill:#087FBA;" points="382.039,307.295 382.039,309.083 370.578,315.699 370.578,313.907 "></polygon><polygon style="fill:#075399;" points="457.657,289.634 444.841,297.031 444.841,311.824 457.657,304.423 "></polygon><polyline style="fill:#087FBA;" points="444.841,297.031 444.841,311.824 457.657,304.423 "></polyline><polygon style="fill:#73E5FF;" points="455.57,303.269 444.841,309.461 444.841,297.031 455.57,290.836 "></polygon><polyline style="fill:#29CDFF;" points="444.841,309.461 444.841,297.031 455.57,290.836 "></polyline><polygon style="fill:#087FBA;" points="456.298,296.2 456.298,297.984 444.841,304.605 444.841,302.813 "></polygon><polygon style="fill:#075399;" points="432.904,303.844 420.088,311.241 420.088,326.038 432.904,318.637 "></polygon><polyline style="fill:#087FBA;" points="420.088,311.241 420.088,326.038 432.904,318.637 "></polyline><polygon style="fill:#73E5FF;" points="430.816,317.483 420.088,323.679 420.088,311.241 430.816,305.046 "></polygon><polyline style="fill:#29CDFF;" points="420.088,323.679 420.088,311.241 430.816,305.046 "></polyline><polygon style="fill:#087FBA;" points="431.545,310.414 431.545,312.202 420.088,318.815 420.088,317.023 "></polygon><polygon style="fill:#075399;" points="408.147,318.062 395.331,325.455 395.331,340.252 408.147,332.851 "></polygon><polyline style="fill:#087FBA;" points="395.331,325.455 395.331,340.252 408.147,332.851 "></polyline><polygon style="fill:#73E5FF;" points="406.063,331.697 395.331,337.892 395.331,325.455 406.063,319.26 "></polygon><polyline style="fill:#29CDFF;" points="395.331,337.892 395.331,325.455 406.063,319.26 "></polyline><polygon style="fill:#087FBA;" points="406.792,324.632 406.792,326.416 395.331,333.032 395.331,331.24 "></polygon><polygon style="fill:#075399;" points="383.393,332.276 370.578,339.669 370.578,354.462 383.393,347.061 "></polygon><polyline style="fill:#087FBA;" points="370.578,339.669 370.578,354.462 383.393,347.061 "></polyline><polygon style="fill:#73E5FF;" points="381.31,345.907 370.578,352.102 370.578,339.669 381.31,333.477 "></polygon><polyline style="fill:#29CDFF;" points="370.578,352.102 370.578,339.669 381.31,333.477 "></polyline><polygon style="fill:#087FBA;" points="382.039,338.842 382.039,340.626 370.578,347.246 370.578,345.454 "></polygon><polygon style="fill:#8EAEAF;" points="107.193,358.845 196.864,410.616 196.864,366.241 145.463,307.165 107.193,314.47 "></polygon><polygon style="fill:#0986D3;" points="107.193,347.943 196.864,399.714 196.864,355.34 145.463,296.263 107.193,303.569 "></polygon><polyline style="fill:#087FBA;" points="196.864,355.34 145.463,296.263 107.193,303.569 "></polyline><polygon style="fill:#6E9191;" points="196.864,366.241 286.535,314.47 286.535,358.845 196.864,410.616 "></polygon><polygon style="fill:#045AB7;" points="196.864,355.34 286.535,303.569 286.535,347.943 196.864,399.714 "></polygon><polyline style="fill:#075399;" points="196.864,399.714 196.864,355.34 286.535,303.569 "></polyline><polygon style="fill:#37473F;" points="145.463,296.263 235.296,244.401 286.535,303.569 196.864,355.34 "></polygon><polyline style="fill:#323F38;" points="196.864,355.34 145.463,296.263 235.296,244.401 "></polyline><polygon style="fill:#7C8E85;" points="235.296,244.401 196.864,251.794 107.193,303.569 145.463,296.263 "></polygon><polyline style="fill:#6A7F75;" points="107.193,303.569 145.463,296.263 235.296,244.401 "></polyline><path style="fill:#536363;" d="M154.463,382.783l-8.456-4.888h-13.269v2.981c0,0.016,0,0.035,0,0.047v0.232h0.02 c0.102,1.824,1.343,3.631,3.742,5.014c4.927,2.848,12.926,2.891,17.967,0.146v-3.533H154.463z"></path><path style="fill:#748687;" d="M136.259,372.263c-4.769,2.907-4.695,7.53,0.24,10.378c4.927,2.848,12.926,2.891,17.967,0.146 L136.259,372.263z"></path><path style="fill:#536363;" d="M152.647,378.801l-7.042-4.072h-11.059v2.489c0,0.012,0,0.024,0,0.039v0.193h0.016 c0.087,1.516,1.119,3.025,3.119,4.179c4.104,2.371,10.768,2.406,14.966,0.118L152.647,378.801L152.647,378.801z"></path><path style="fill:#748687;" d="M137.484,370.03c-3.974,2.426-3.915,6.278,0.197,8.653c4.104,2.371,10.768,2.406,14.966,0.114 L137.484,370.03z"></path><path style="fill:#25ACEF;" d="M145.026,342.753c3.434,1.985,6.239,6.845,6.239,10.807v25.269l-12.477-7.203v-25.269 C138.787,342.394,141.6,340.771,145.026,342.753z"></path><path style="fill:#821908;" d="M145.026,345.651c-2.469-1.426-4.498-0.26-4.498,2.595v24.442l8.995,5.187v-24.438 C149.524,350.586,147.499,347.077,145.026,345.651z"></path><path style="fill:#60150D;" d="M149.524,377.876v-24.438c0-2.855-2.024-6.361-4.498-7.79c-2.469-1.426-4.498-0.26-4.498,2.595"></path><path style="fill:#D12C00;" d="M145.026,345.651c-0.764-0.441-1.473-0.607-2.099-0.579c-0.41,0.547-0.654,1.3-0.654,2.273v24.442 l7.251,4.187v-22.536C149.524,350.586,147.499,347.077,145.026,345.651z"></path><path style="fill:#A82005;" d="M149.524,375.973v-22.536c0-2.855-2.024-6.361-4.498-7.79c-0.764-0.441-1.473-0.607-2.099-0.579 c-0.41,0.547-0.654,1.3-0.654,2.272"></path><path style="fill:#60150D;" d="M145.195,334.336c4.691,2.706,8.893-0.031,8.893-5.451c0-5.415-3.84-12.064-8.531-14.773 c-4.687-2.71-9.259-0.386-9.259,5.033C136.302,324.561,140.509,331.622,145.195,334.336z"></path><path style="fill:#D12C00;" d="M144.404,334.438c4.691,2.71,8.531,0.492,8.531-4.923c0-5.415-3.84-12.067-8.531-14.773 c-4.687-2.706-8.527-0.492-8.527,4.927C135.877,325.085,139.717,331.733,144.404,334.438z"></path><path style="fill:#62D3CB;" d="M144.404,331.638c3.359,1.934,6.101,0.35,6.101-3.525s-2.741-8.629-6.101-10.571 c-3.356-1.934-6.097-0.351-6.097,3.525C138.307,324.947,141.048,329.7,144.404,331.638z"></path><path style="fill:#56E8D9;" d="M144.404,317.546c3.359,1.938,6.101,6.691,6.101,10.571c0,1.26-0.315,2.249-0.819,2.985 c-0.622-0.11-1.284-0.327-1.977-0.733c-3.356-1.934-6.097-6.691-6.097-10.563c0-1.26,0.315-2.253,0.823-2.985 C143.053,316.932,143.711,317.145,144.404,317.546z"></path><path style="fill:#4693A5;" d="M150.504,328.117c0,0.906-0.161,1.674-0.433,2.308c-0.453-0.138-0.922-0.323-1.41-0.599 c-3.356-1.938-6.101-6.691-6.101-10.571c0-0.902,0.165-1.67,0.433-2.312c0.453,0.142,0.922,0.327,1.406,0.603 C147.763,319.484,150.504,324.238,150.504,328.117z"></path><path style="fill:#4680A3;" d="M142.998,316.944c0.453,0.142,0.922,0.327,1.406,0.603c3.36,1.938,6.101,6.691,6.101,10.571 c0,0.906-0.161,1.674-0.433,2.308"></path><polygon style="fill:#075399;" points="277.268,323.986 264.452,331.378 264.452,346.175 277.268,338.775 "></polygon><polyline style="fill:#087FBA;" points="264.452,331.378 264.452,346.175 277.268,338.775 "></polyline><polygon style="fill:#73E5FF;" points="275.184,337.621 264.452,343.816 264.452,331.378 275.184,325.183 "></polygon><polyline style="fill:#29CDFF;" points="264.452,343.816 264.452,331.378 275.184,325.183 "></polyline><polygon style="fill:#087FBA;" points="275.913,330.555 275.913,332.339 264.452,338.952 264.452,337.16 "></polygon><polygon style="fill:#075399;" points="252.514,338.2 239.699,345.592 239.699,360.385 252.514,352.985 "></polygon><polyline style="fill:#087FBA;" points="239.699,345.592 239.699,360.385 252.514,352.985 "></polyline><polygon style="fill:#73E5FF;" points="250.431,351.831 239.699,358.026 239.699,345.592 250.431,339.401 "></polygon><polyline style="fill:#29CDFF;" points="239.699,358.026 239.699,345.592 250.431,339.401 "></polyline><polygon style="fill:#087FBA;" points="251.16,344.765 251.16,346.549 239.699,353.17 239.699,351.378 "></polygon><polygon style="fill:#075399;" points="227.761,352.41 214.945,359.806 214.945,374.599 227.761,367.199 "></polygon><polyline style="fill:#087FBA;" points="214.945,359.806 214.945,374.599 227.761,367.199 "></polyline><polygon style="fill:#73E5FF;" points="225.678,366.045 214.945,372.24 214.945,359.806 225.678,353.611 "></polygon><polyline style="fill:#29CDFF;" points="214.945,372.24 214.945,359.806 225.678,353.611 "></polyline><polygon style="fill:#087FBA;" points="226.406,358.975 226.406,360.763 214.945,367.38 214.945,365.588 "></polygon><path style="fill:#663109;" d="M104.885,292.033L104.885,292.033v-31.681h-5.49v31.677v0.004v0.134h0.024 c0.055,0.362,0.307,0.717,0.784,0.992c1.075,0.618,2.82,0.618,3.883,0c0.473-0.276,0.721-0.63,0.772-0.992h0.024v-0.134H104.885z"></path><path style="fill:#874107;" d="M100.667,260.352h-1.272v31.677v0.004v0.134h0.024c0.055,0.362,0.307,0.717,0.784,0.992 c0.142,0.083,0.299,0.15,0.465,0.213V260.352z"></path><path style="fill:#D16F26;" d="M100.202,261.478c-1.075-0.622-1.079-1.631-0.012-2.249s2.82-0.618,3.883,0 c1.067,0.618,1.075,1.627,0.012,2.249C103.026,262.097,101.278,262.097,100.202,261.478z"></path><path style="fill:#3E9306;" d="M89.222,280.655c-7.042-4.064-7.07-10.705-0.059-14.75c7.01-4.049,18.479-4.049,25.49,0 c7.01,4.045,7.038,10.685,0.067,14.75C107.741,284.723,96.272,284.723,89.222,280.655z"></path><g><path style="fill:#98D80B;" d="M89.222,280.655c-7.042-4.064-7.07-10.705-0.059-14.75c7.01-4.049,18.479-4.049,25.49,0"></path><polygon style="fill:#98D80B;" points="101.927,238.824 101.927,271.986 83.948,271.427 "></polygon></g><polygon style="fill:#3E9306;" points="101.927,238.824 94.724,282.222 119.906,271.427 "></polygon><polygon style="fill:#158E0C;" points="101.927,238.824 109.863,265.027 119.906,271.427 "></polygon><path style="fill:#4DA004;" d="M91.199,266.22c-5.951-3.434-5.979-9.043-0.055-12.461c5.92-3.419,15.608-3.419,21.532,0 c5.916,3.419,5.947,9.027,0.055,12.461C106.839,269.655,97.15,269.655,91.199,266.22z"></path><g><path style="fill:#98D80B;" d="M91.199,266.22c-5.951-3.434-5.979-9.043-0.055-12.461c5.92-3.419,15.608-3.419,21.532,0"></path><polygon style="fill:#98D80B;" points="101.927,230.884 101.927,258.891 86.741,258.422 "></polygon></g><polygon style="fill:#4DA004;" points="101.927,230.884 95.842,267.54 117.11,258.422 "></polygon><polygon style="fill:#158E0C;" points="101.927,230.884 108.631,253.015 117.11,258.422 "></polygon><path style="fill:#3E9306;" d="M94.48,250.632c-4.128-2.383-4.147-6.278-0.035-8.653c4.112-2.371,10.835-2.371,14.946,0 c4.112,2.379,4.128,6.27,0.039,8.653C105.338,253.015,98.611,253.015,94.48,250.632z"></path><g><path style="fill:#98D80B;" d="M94.48,250.632c-4.128-2.383-4.147-6.278-0.035-8.653c4.112-2.371,10.835-2.371,14.946,0"></path><polygon style="fill:#98D80B;" points="101.927,226.099 101.927,245.547 91.384,245.217 "></polygon></g><polygon style="fill:#3E9306;" points="101.927,226.099 97.705,251.55 112.471,245.217 "></polygon><polygon style="fill:#158E0C;" points="101.927,226.099 106.583,241.467 112.471,245.217 "></polygon><path style="fill:#4DA004;" d="M96.347,239.199c-3.096-1.788-3.107-4.706-0.028-6.483c3.08-1.776,8.121-1.776,11.201,0 s3.096,4.695,0.032,6.483C104.48,240.987,99.442,240.987,96.347,239.199z"></path><g><path style="fill:#98D80B;" d="M96.347,239.199c-3.096-1.788-3.107-4.706-0.028-6.483c3.08-1.776,8.121-1.776,11.201,0"></path><polygon style="fill:#98D80B;" points="101.927,220.814 101.927,235.386 94.027,235.142 "></polygon></g><polygon style="fill:#4DA004;" points="101.927,220.814 98.761,239.884 109.828,235.142 "></polygon><polygon style="fill:#158E0C;" points="101.927,220.814 105.413,232.33 109.828,235.142 "></polygon><path style="fill:#663109;" d="M76.339,308.102L76.339,308.102v-31.681h-5.49v31.681l0,0v0.138h0.024 c0.055,0.362,0.307,0.717,0.784,0.989c1.075,0.618,2.82,0.618,3.883,0c0.473-0.272,0.721-0.626,0.772-0.989h0.024v-0.138H76.339z"></path><path style="fill:#874107;" d="M72.121,276.421h-1.272v31.681l0,0v0.138h0.024c0.055,0.362,0.307,0.717,0.784,0.989 c0.142,0.083,0.299,0.15,0.465,0.213V276.421z"></path><path style="fill:#D16F26;" d="M71.66,277.543c-1.075-0.618-1.079-1.631-0.012-2.249c1.067-0.614,2.82-0.614,3.883,0 c1.067,0.618,1.075,1.631,0.012,2.249C74.48,278.162,72.736,278.162,71.66,277.543z"></path><path style="fill:#3E9306;" d="M60.68,296.724c-7.042-4.068-7.07-10.709-0.059-14.753s18.479-4.045,25.49,0 c7.01,4.045,7.038,10.685,0.067,14.753C79.199,300.792,67.73,300.792,60.68,296.724z"></path><g><path style="fill:#98D80B;" d="M60.68,296.724c-7.042-4.068-7.07-10.709-0.059-14.753s18.479-4.045,25.49,0"></path><polygon style="fill:#98D80B;" points="73.381,254.889 73.381,288.051 55.402,287.492 "></polygon></g><polygon style="fill:#3E9306;" points="73.381,254.889 66.182,298.291 91.364,287.492 "></polygon><polygon style="fill:#158E0C;" points="73.381,254.889 81.317,281.092 91.364,287.492 "></polygon><path style="fill:#4DA004;" d="M62.657,282.285c-5.951-3.43-5.979-9.039-0.055-12.461c5.92-3.415,15.608-3.415,21.532,0 c5.916,3.423,5.947,9.031,0.055,12.461C78.293,285.724,68.608,285.724,62.657,282.285z"></path><g><path style="fill:#98D80B;" d="M62.657,282.285c-5.951-3.43-5.979-9.039-0.055-12.461c5.92-3.415,15.608-3.415,21.532,0"></path><polygon style="fill:#98D80B;" points="73.381,246.949 73.381,274.96 58.199,274.491 "></polygon></g><polygon style="fill:#4DA004;" points="73.381,246.949 67.296,283.609 88.568,274.491 "></polygon><polygon style="fill:#158E0C;" points="73.381,246.949 80.085,269.084 88.568,274.491 "></polygon><path style="fill:#3E9306;" d="M65.934,266.701c-4.128-2.383-4.147-6.278-0.035-8.653c4.112-2.375,10.835-2.375,14.946,0 c4.112,2.379,4.128,6.27,0.039,8.653C76.792,269.084,70.069,269.084,65.934,266.701z"></path><g><path style="fill:#98D80B;" d="M65.934,266.701c-4.128-2.383-4.147-6.278-0.035-8.653c4.112-2.375,10.835-2.375,14.946,0"></path><polygon style="fill:#98D80B;" points="73.381,242.164 73.381,261.612 62.842,261.285 "></polygon></g><polygon style="fill:#3E9306;" points="73.381,242.164 69.159,267.615 83.925,261.285 "></polygon><polygon style="fill:#158E0C;" points="73.381,242.164 78.037,257.532 83.925,261.285 "></polygon><path style="fill:#4DA004;" d="M67.801,255.267c-3.096-1.792-3.107-4.706-0.028-6.483c3.08-1.78,8.121-1.78,11.201,0 c3.08,1.776,3.096,4.691,0.032,6.483C75.937,257.056,70.896,257.056,67.801,255.267z"></path><g><path style="fill:#98D80B;" d="M67.801,255.267c-3.096-1.792-3.107-4.706-0.028-6.483c3.08-1.78,8.121-1.78,11.201,0"></path><polygon style="fill:#98D80B;" points="73.381,236.883 73.381,251.455 65.481,251.207 "></polygon></g><polygon style="fill:#4DA004;" points="73.381,236.883 70.219,255.953 81.282,251.207 "></polygon><polygon style="fill:#158E0C;" points="73.381,236.883 76.871,248.399 81.282,251.207 "></polygon><path style="fill:#663109;" d="M47.797,324.171L47.797,324.171v-31.685h-5.49v31.685l0,0v0.138h0.024 c0.055,0.362,0.307,0.713,0.784,0.985c1.075,0.622,2.82,0.622,3.883,0c0.473-0.272,0.721-0.622,0.772-0.985h0.024v-0.138H47.797z"></path><path style="fill:#874107;" d="M43.579,292.486h-1.272v31.685l0,0v0.138h0.024c0.055,0.362,0.307,0.713,0.784,0.985 c0.142,0.083,0.299,0.154,0.465,0.217V292.486z"></path><path style="fill:#D16F26;" d="M43.114,293.608c-1.075-0.614-1.079-1.631-0.012-2.245c1.067-0.614,2.82-0.614,3.883,0 c1.067,0.614,1.075,1.631,0.012,2.245C45.938,294.231,44.19,294.231,43.114,293.608z"></path><path style="fill:#3E9306;" d="M32.134,312.793c-7.042-4.068-7.07-10.709-0.059-14.754c7.01-4.045,18.479-4.045,25.49,0 c7.01,4.045,7.038,10.685,0.067,14.754C50.653,316.857,39.184,316.857,32.134,312.793z"></path><g><path style="fill:#98D80B;" d="M32.134,312.793c-7.042-4.068-7.07-10.709-0.059-14.754c7.01-4.045,18.479-4.045,25.49,0"></path><polygon style="fill:#98D80B;" points="44.839,270.954 44.839,304.116 26.86,303.561 "></polygon></g><polygon style="fill:#3E9306;" points="44.839,270.954 37.636,314.356 62.818,303.561 "></polygon><polygon style="fill:#158E0C;" points="44.839,270.954 52.771,297.161 62.818,303.561 "></polygon><path style="fill:#4DA004;" d="M34.111,298.354c-5.951-3.434-5.979-9.043-0.055-12.461c5.92-3.419,15.608-3.419,21.532,0 c5.916,3.419,5.947,9.027,0.055,12.461C49.751,301.789,40.062,301.789,34.111,298.354z"></path><g><path style="fill:#98D80B;" d="M34.111,298.354c-5.951-3.434-5.979-9.043-0.055-12.461c5.92-3.419,15.608-3.419,21.532,0"></path><polygon style="fill:#98D80B;" points="44.839,263.014 44.839,291.029 29.653,290.556 "></polygon></g><polygon style="fill:#4DA004;" points="44.839,263.014 38.754,299.678 60.022,290.556 "></polygon><polygon style="fill:#158E0C;" points="44.839,263.014 51.543,285.152 60.022,290.556 "></polygon><path style="fill:#3E9306;" d="M37.392,282.766c-4.128-2.383-4.147-6.278-0.035-8.649c4.112-2.379,10.835-2.379,14.946,0 c4.112,2.375,4.128,6.266,0.039,8.649C48.246,285.149,41.523,285.149,37.392,282.766z"></path><g><path style="fill:#98D80B;" d="M37.392,282.766c-4.128-2.383-4.147-6.278-0.035-8.649c4.112-2.379,10.835-2.379,14.946,0"></path><polygon style="fill:#98D80B;" points="44.839,258.229 44.839,277.677 34.296,277.354 "></polygon></g><polygon style="fill:#3E9306;" points="44.839,258.229 40.613,283.683 55.383,277.354 "></polygon><polygon style="fill:#158E0C;" points="44.839,258.229 49.491,273.601 55.383,277.354 "></polygon><path style="fill:#4DA004;" d="M39.259,271.336c-3.096-1.788-3.107-4.703-0.028-6.483c3.08-1.78,8.121-1.78,11.201,0 c3.08,1.78,3.096,4.695,0.032,6.483C47.392,273.121,42.354,273.121,39.259,271.336z"></path><g><path style="fill:#98D80B;" d="M39.259,271.336c-3.096-1.788-3.107-4.703-0.028-6.483c3.08-1.78,8.121-1.78,11.201,0"></path><polygon style="fill:#98D80B;" points="44.839,252.952 44.839,267.524 36.939,267.276 "></polygon></g><polygon style="fill:#4DA004;" points="44.839,252.952 41.673,272.022 52.74,267.276 "></polygon><polygon style="fill:#158E0C;" points="44.839,252.952 48.325,264.464 52.74,267.276 "></polygon></svg>