<!-- icon666.com - MILLIONS OF FREE VECTOR ICONS --><svg viewBox="0 0 64 64" xmlns="http://www.w3.org/2000/svg"><g id="Social-Group-Network-Chat-Communication"><path d="m34 41.65v3.35a2 2 0 0 1 -4 0v-3.35a5.889 5.889 0 0 0 4 0z" fill="#ffc477"></path><path d="m14 42.65v3.35a2 2 0 0 1 -4 0v-3.35a5.889 5.889 0 0 0 4 0z" fill="#ffc477"></path><path d="m25 33h2a0 0 0 0 1 0 0v4a0 0 0 0 1 0 0h-2a2 2 0 0 1 -2-2 2 2 0 0 1 2-2z" fill="#ffb655"></path><path d="m28 6v14a3 3 0 0 1 -3 3h-2v4l-4-4h-12a3 3 0 0 1 -3-3v-14a3 3 0 0 1 3-3h18a3 3 0 0 1 3 3z" fill="#00ccb3"></path><path d="m20.41 38.41a1.955 1.955 0 0 1 -1.41.59h-2v-4h2a2.006 2.006 0 0 1 2 2 1.955 1.955 0 0 1 -.59 1.41z" fill="#ffb655"></path><path d="m7 38v1h-2a2.015 2.015 0 0 1 -2-2 2.006 2.006 0 0 1 2-2h2z" fill="#ffb655"></path><path d="m15 30h3v4h-3z" fill="#3e3d42"></path><path d="m14 42.65v2a5.889 5.889 0 0 1 -4 0v-2a5.889 5.889 0 0 0 4 0z" fill="#ffb655"></path><path d="m6 38v-4a2.006 2.006 0 0 1 2-2h8a2.006 2.006 0 0 1 2 2v4a5.981 5.981 0 0 1 -4 5.65 5.889 5.889 0 0 1 -4 0 5.981 5.981 0 0 1 -4-5.65z" fill="#ffc477"></path><path d="m8 32a2.006 2.006 0 0 0 -2 2v-4a3 3 0 0 1 3-3h9v3a2.006 2.006 0 0 1 -2 2z" fill="#57565c"></path><path d="m47 40v1h-2a2.015 2.015 0 0 1 -2-2 2.006 2.006 0 0 1 2-2h2z" fill="#ffb655"></path><path d="m60.41 40.41a1.955 1.955 0 0 1 -1.41.59h-2v-4h2a2.006 2.006 0 0 1 2 2 1.955 1.955 0 0 1 -.59 1.41z" fill="#ffb655"></path><path d="m61 36v8a8.953 8.953 0 0 1 -2.52 6.24h-12.96a8.953 8.953 0 0 1 -2.52-6.24v-8a9 9 0 0 1 18 0z" fill="#57565c"></path><path d="m54 44.65v3.35a2 2 0 0 1 -4 0v-3.35a5.889 5.889 0 0 0 4 0z" fill="#ffc477"></path><path d="m54 44.65v2a5.889 5.889 0 0 1 -4 0v-2a5.889 5.889 0 0 0 4 0z" fill="#ffb655"></path><path d="m46 40v-5a11.355 11.355 0 0 0 8-3l4 3v5a5.944 5.944 0 0 1 -1.76 4.24 5.958 5.958 0 0 1 -6.24 1.41 5.981 5.981 0 0 1 -4-5.65z" fill="#ffc477"></path><path d="m58 61h-16v-5.29a6 6 0 0 1 3.32-5.37l.2-.1 4.48-2.24a2 2 0 0 0 4 0l4.48 2.24.2.1a6 6 0 0 1 3.32 5.37v5.29z" fill="#ed539d"></path><path d="m39 33a2.006 2.006 0 0 1 2 2 2.015 2.015 0 0 1 -2 2h-2v-4z" fill="#ffb655"></path><path d="m38 33v1l-3-2h-6l-3 2v-3a4 4 0 0 1 4-4h4a4 4 0 0 1 4 4z" fill="#57565c"></path><path d="m34 41.65v2a5.889 5.889 0 0 1 -4 0v-2a5.889 5.889 0 0 0 4 0z" fill="#ffb655"></path><path d="m38 34v3a5.981 5.981 0 0 1 -4 5.65 5.889 5.889 0 0 1 -4 0 5.981 5.981 0 0 1 -4-5.65v-3l3-2h6z" fill="#ffc477"></path><path d="m26 61h-4v-8.29a6 6 0 0 1 3.32-5.37l4.68-2.34a2 2 0 0 0 4 0l4.68 2.34a6 6 0 0 1 3.32 5.37v8.29z" fill="#3d9ae2"></path><path d="m18 61h-16v-7.29a6 6 0 0 1 3.32-5.37l4.68-2.34a2 2 0 0 0 4 0l4.68 2.34a6 6 0 0 1 3.32 5.37v7.29z" fill="#ff6243"></path><path d="m23.73 13h-2.73v-2a2.006 2.006 0 0 0 -2-2h-2v3a1 1 0 0 1 -1 1h-5v8h13.12a1 1 0 0 0 .99-.88l.61-4.87a2 2 0 0 0 -1.99-2.25z" fill="#00b39d"></path><path d="m9 11h4v8h-4z" fill="#3d9ae2"></path><path d="m19 11h2.73a2 2 0 0 1 1.99 2.25l-.61 4.87a1 1 0 0 1 -.99.88h-9.12v-8h1a1 1 0 0 0 1-1v-3h2a2.006 2.006 0 0 1 2 2z" fill="#ffc477"></path><path d="m38 20v-12a2.006 2.006 0 0 1 2-2h18a2.006 2.006 0 0 1 2 2v12a2.006 2.006 0 0 1 -2 2h-11l-2 4-2-4h-3a2.006 2.006 0 0 1 -2-2z" fill="#ffde55"></path><path d="m32 40a4.993 4.993 0 0 1 -2.5-.669l1-1.732a3.057 3.057 0 0 0 3 0l1 1.73a4.99 4.99 0 0 1 -2.5.671z" fill="#ee8700"></path><path d="m25 52h2v9h-2z" fill="#3d9ae2"></path><path d="m37 52h2v9h-2z" fill="#3d9ae2"></path><path d="m52 43a4.99 4.99 0 0 1 -2.5-.67l1-1.73a3.06 3.06 0 0 0 3 0l1 1.73a4.99 4.99 0 0 1 -2.5.67z" fill="#ee8700"></path><path d="m49 37h2v2h-2z" fill="#ee8700"></path><path d="m53 37h2v2h-2z" fill="#ee8700"></path><path d="m45 54h2v7h-2z" fill="#ea348b"></path><path d="m57 54h2v7h-2z" fill="#ea348b"></path><path d="m12 41a4.993 4.993 0 0 1 -2.5-.669l1-1.732a3.054 3.054 0 0 0 3 0l1 1.732a4.993 4.993 0 0 1 -2.5.669z" fill="#ee8700"></path><path d="m9 35h2v2h-2z" fill="#ee8700"></path><path d="m13 35h2v2h-2z" fill="#ee8700"></path><path d="m5 52h2v9h-2z" fill="#ff5023"></path><path d="m17 52h2v9h-2z" fill="#ff5023"></path><path d="m29 34h2v2h-2z" fill="#ee8700"></path><path d="m33 34h2v2h-2z" fill="#ee8700"></path><g fill="#ebbf00"><path d="m41 9h2v2h-2z"></path><path d="m45 9h12v2h-12z"></path><path d="m41 13h12v2h-12z"></path><path d="m55 13h2v2h-2z"></path><path d="m41 17h16v2h-16z"></path></g></g></svg>