<!-- icon666.com - MILLIONS OF FREE VECTOR ICONS --><svg id="Layer_1" enable-background="new 0 0 512 512" viewBox="0 0 512 512" xmlns="http://www.w3.org/2000/svg"><g><path d="m64.366 419.641c39.042 48.95 96.439 82.606 161.777 90.545h59.71c65.34-7.938 122.738-41.594 161.781-90.545l31.777-51.934c13.87-30.72 21.591-64.813 21.591-100.709 0-135.311-109.691-245.002-245.002-245.002s-245.002 109.691-245.002 245.002c0 35.896 7.721 69.989 21.591 100.709z" fill="#2a428c"></path><ellipse cx="256" cy="273.976" fill="#3c58a0" rx="157.534" ry="157.535" transform="matrix(.986 -.164 .164 .986 -41.567 45.826)"></ellipse><path d="m286.687 30.687c0-17.681-14.953-31.869-32.902-30.609-15.24 1.07-27.51 13.49-28.415 28.741-.441 7.426 1.767 14.319 5.761 19.834 1.621 2.238 2.767 4.762 3.529 7.418 2.66 9.281 11.206 16.074 21.342 16.074s18.682-6.793 21.342-16.073c.742-2.588 1.811-5.08 3.405-7.25 3.73-5.08 5.938-11.348 5.938-18.135z" fill="#ffc839"></path><path d="m256 512c10.107 0 20.067-.625 29.853-1.814-.96-4.054-2.715-7.801-5.106-11.056-1.594-2.17-2.663-4.661-3.405-7.25-2.66-9.281-11.206-16.073-21.342-16.073s-18.682 6.793-21.342 16.074c-.761 2.656-1.908 5.181-3.529 7.419-2.329 3.215-4.044 6.901-4.987 10.886 9.788 1.189 19.749 1.814 29.858 1.814z" fill="#816ae2"></path><path d="m60.648 125.756c-15.312-8.84-35.076-2.985-42.959 13.19-6.693 13.733-2.072 30.57 10.683 38.979 6.211 4.095 13.284 5.63 20.057 4.928 2.748-.285 5.508-.015 8.189.653 9.368 2.337 19.523-1.667 24.592-10.445 5.068-8.778 3.458-19.575-3.249-26.519-1.871-1.937-3.494-4.108-4.576-6.574-2.534-5.772-6.859-10.818-12.737-14.212z" fill="#ffb332"></path><path d="m463.362 365.122c-2.677.296-5.369-.024-7.981-.676-9.367-2.337-19.523 1.668-24.591 10.446s-3.458 19.576 3.25 26.52c1.92 1.987 3.533 4.243 4.66 6.765 1.964 4.394 4.991 8.341 8.933 11.464 12.628-15.832 23.344-33.255 31.777-51.934-5.162-2.358-10.7-3.176-16.048-2.585z" fill="#72aafc"></path><path d="m81.209 374.892c-5.068-8.778-15.223-12.782-24.591-10.446-2.613.652-5.305.972-7.981.676-5.347-.591-10.885.228-16.049 2.585 8.433 18.679 19.15 36.102 31.777 51.934 3.943-3.124 6.969-7.071 8.933-11.464 1.128-2.522 2.741-4.778 4.66-6.765 6.71-6.945 8.32-17.742 3.251-26.52z" fill="#ff4155"></path><path d="m451.352 125.756c15.312-8.84 35.076-2.985 42.959 13.19 6.693 13.733 2.072 30.57-10.683 38.979-6.211 4.095-13.284 5.63-20.057 4.928-2.748-.285-5.508-.015-8.189.653-9.368 2.337-19.523-1.667-24.591-10.445s-3.458-19.575 3.249-26.519c1.871-1.937 3.494-4.108 4.576-6.574 2.533-5.772 6.858-10.818 12.736-14.212z" fill="#b4d667"></path><path d="m427.374 234.007c-5.17-7.416-6.935-14.216-5.242-20.211 2.557-9.061 12.284-13.402 12.38-13.444l.715-.31c-13.941-11.025-23.128-27.011-25.629-44.615-.172.098-.341.186-.515.289-10.007 5.928-18.475 7.774-25.172 5.489-6.517-2.224-9.241-7.824-9.645-8.729l-.412-2.404c-1.93 5.823-5.22 11.123-9.659 15.415l-17.438 16.86c16.144 15.992 28.096 36.203 34.047 58.826l23.248-6.651c7.236-2.07 14.923-1.951 22.091.343l2.496.799c-.44-.539-.867-1.087-1.265-1.657z" fill="#88ce65"></path><path d="m491.517 298.774c-2.913-3.194-7.298-4.269-11.211-3.017l-54.162 17.332c-6.301 2.016-13.003 2.349-19.447.995l.033.184c-.823 2.536-4.798 16.346 2.113 27.522 3.855 6.233 10.36 10.423 19.363 12.51 4.256-4.439 9.13-8.349 14.55-11.578l46.055-27.433c6.14-3.658 7.521-11.234 2.706-16.515z" fill="#72aafc"></path><path d="m346.758 365.606 17.438 16.86c5.411 5.232 9.151 11.948 10.749 19.303l12.072 55.571c.872 4.015 3.996 7.274 8.218 8.2 6.981 1.53 12.852-3.454 12.949-10.6l.73-53.602c.251-18.387 7.779-35.662 20.53-48.297-32.482-6.88-21.17-38.661-21.17-38.661l-.005-.025c-1.417-.236-2.826-.528-4.216-.925l-23.248-6.651c-5.951 22.624-17.904 42.836-34.047 58.827z" fill="#548bed"></path><path d="m349.29 479.121-42.09-38.24c-.474-.43-.919-.887-1.369-1.339l-.013.122c-3.494.893-14.315 4.282-18.526 12.837-2.351 4.776-2.218 10.294.375 16.42.73.375 1.456.761 2.175 1.163l46.786 26.168c6.237 3.489 13.489.897 15.654-5.915 1.31-4.118.049-8.453-2.992-11.216z" fill="#9181f2"></path><path d="m295.857 421.921-5.865-23.462c-10.835 2.962-22.23 4.553-33.992 4.553-11.761 0-23.157-1.591-33.992-4.553l-5.865 23.462c-1.825 7.302-5.772 13.899-11.343 18.96l-42.091 38.24c-3.04 2.763-4.302 7.098-2.992 11.217 2.165 6.811 9.417 9.403 15.654 5.915l46.786-26.168c21.029-11.762 46.656-11.762 67.685 0-11.545-23.415 17.357-29.204 17.357-29.204-5.57-5.061-9.517-11.658-11.342-18.96z" fill="#816ae2"></path><path d="m131.196 306.78-23.249 6.651c-7.236 2.07-14.923 1.951-22.091-.343l-54.162-17.332c-3.913-1.252-8.297-.177-11.21 3.017-4.816 5.28-3.435 12.857 2.705 16.514l46.055 27.433c20.701 12.331 33.514 34.525 33.843 58.617l.73 53.602c.097 7.146 5.968 12.13 12.949 10.6 4.223-.926 7.346-4.185 8.219-8.2l12.071-55.571c1.598-7.355 5.338-14.072 10.749-19.303l17.438-16.86c-16.144-15.99-28.096-36.202-34.047-58.825z" fill="#ff4155"></path><path d="m125.36 175.898c7.539-1.122 14.194-5.57 19.849-13.22-4.007-4.741-6.827-10.39-8.153-16.493l-12.072-55.572c-.872-4.014-3.996-7.274-8.219-8.2-6.981-1.53-12.852 3.454-12.949 10.6l-.73 53.602c-.1 7.349-1.368 14.52-3.661 21.29 4.162 3.167 14.378 9.711 25.935 7.993z" fill="#ffc839"></path><path d="m144.229 161.493c-17.077 23.476-38.577 9.347-44.304 4.893-5.032 16.065-15.825 29.995-30.681 38.844l-46.055 27.433c-6.14 3.657-7.521 11.234-2.705 16.514 2.913 3.194 7.298 4.27 11.21 3.018l54.162-17.332c7.168-2.294 14.855-2.413 22.092-.343l23.248 6.651c5.951-22.622 17.903-42.834 34.046-58.826l-17.438-16.86c-1.291-1.247-2.481-2.586-3.575-3.992z" fill="#ffb332"></path><path d="m352.282 57.614c-2.165-6.811-9.417-9.403-15.654-5.915l-46.786 26.168c-3.509 1.962-7.147 3.59-10.869 4.897-.804 3.139-2.511 12.311 2.438 20.019 3.792 5.908 10.572 9.507 20.145 10.721 1.627-2.337 3.515-4.499 5.644-6.434l42.09-38.24c3.041-2.761 4.302-7.096 2.992-11.216z" fill="#ffdd40"></path><path d="m302.587 112.126c-.009-.001-.017-.003-.026-.004-30.66-3.378-21.85-29.987-21.85-29.987l-.007-.005c-19.023 7.258-40.481 5.843-58.547-4.262l-46.785-26.168c-6.237-3.489-13.489-.896-15.654 5.915-1.31 4.12-.049 8.455 2.992 11.217l42.091 38.24c5.571 5.061 9.518 11.658 11.343 18.96l5.865 23.462c10.835-2.962 22.23-4.553 33.992-4.553s23.157 1.591 33.992 4.553l5.865-23.462c1.267-5.073 3.58-9.792 6.729-13.906z" fill="#ffc839"></path><path d="m329.193 198.975c23.202 9.57 41.665 23.548 52.562 40.128-15.218-55.154-65.743-95.662-125.736-95.662 30.261.001 57.005 21.952 73.174 55.534z" fill="#9bd8f9"></path><path d="m329.193 348.767c-16.169 33.582-42.913 55.534-73.173 55.534 59.993 0 110.518-40.508 125.736-95.662-10.898 16.58-29.361 30.557-52.563 40.128z" fill="#9bd8f9"></path><path d="m182.846 348.767c-23.202-9.57-41.665-23.548-52.563-40.128-.374-1.354-.725-2.718-1.055-4.089 13.798 57.23 65.325 99.751 126.792 99.751-30.261 0-57.005-21.952-73.174-55.534z" fill="#0781dd"></path><path d="m182.846 198.975c16.169-33.582 42.913-55.534 73.173-55.534-61.467 0-112.993 42.522-126.792 99.751.331-1.371.682-2.735 1.055-4.089 10.899-16.579 29.362-30.557 52.564-40.128z" fill="#0781dd"></path><path d="m329.193 348.767c-13.904 5.735-29.509 9.882-46.219 12.053-6.622 26.683-16.243 43.481-26.954 43.481 30.26 0 57.004-21.952 73.173-55.534z" fill="#73c3f9"></path><path d="m182.846 198.975c13.904-5.735 29.509-9.883 46.219-12.053 6.622-26.683 16.244-43.481 26.954-43.481-30.26.001-57.004 21.952-73.173 55.534z" fill="#1e9ef4"></path><path d="m229.065 360.82c-16.71-2.171-32.315-6.318-46.219-12.053 16.169 33.582 42.913 55.534 73.173 55.534-10.71 0-20.332-16.798-26.954-43.481z" fill="#1e9ef4"></path><path d="m282.974 186.922c16.71 2.171 32.315 6.318 46.219 12.053-16.169-33.582-42.913-55.534-73.173-55.534 10.71.001 20.332 16.798 26.954 43.481z" fill="#73c3f9"></path><path d="m229.065 186.922c17.434-2.265 35.695-2.366 53.909 0-6.622-26.683-16.243-43.481-26.954-43.481-10.711.001-20.333 16.798-26.955 43.481z" fill="#49b1f7"></path><path d="m282.974 360.82c-17.397 2.26-35.659 2.371-53.909 0 6.622 26.683 16.244 43.481 26.954 43.481 10.711 0 20.333-16.798 26.955-43.481z" fill="#49b1f7"></path><path d="m329.193 198.975c6.838 14.203 11.785 30.486 14.304 48.071 26.373 6.616 42.945 16.18 42.952 26.818-.001-11.365-1.481-23.107-4.688-34.74-.002-.007-.004-.014-.006-.021-10.897-16.58-29.36-30.557-52.562-40.128z" fill="#73c3f9"></path><path d="m182.846 348.767c-6.838-14.203-11.785-30.486-14.304-48.071-26.378-6.617-42.952-16.184-42.952-26.824 0 1.36.028 2.713.069 4.063.316 10.341 1.861 20.688 4.625 30.704 10.897 16.58 29.36 30.557 52.562 40.128z" fill="#1e9ef4"></path><path d="m168.542 247.047c2.519-17.585 7.466-33.868 14.304-48.071-23.202 9.57-41.665 23.548-52.563 40.128-3.158 11.444-4.694 23.22-4.694 34.767.001-10.64 16.575-20.207 42.953-26.824z" fill="#1e9ef4"></path><path d="m386.38 277.943c.042-1.35.069-2.705.069-4.065-.007 10.638-16.58 20.201-42.952 26.818-2.519 17.586-7.465 33.868-14.304 48.071 23.202-9.57 41.665-23.548 52.562-40.128.602-2.828 4.116-14.042 4.625-30.696z" fill="#73c3f9"></path><path d="m282.974 360.82c16.71-2.171 32.315-6.318 46.219-12.053 6.838-14.203 11.785-30.486 14.304-48.071-14.838 3.723-32.781 6.51-52.62 8.033-1.505 19.605-4.246 37.355-7.903 52.091z" fill="#9bd8f9"></path><path d="m343.496 247.047c-2.519-17.585-7.465-33.868-14.304-48.071-13.904-5.735-29.509-9.883-46.219-12.053 3.657 14.736 6.398 32.486 7.903 52.092 19.84 1.521 37.782 4.309 52.62 8.032z" fill="#9bd8f9"></path><path d="m168.542 300.695c2.519 17.586 7.466 33.868 14.304 48.071 13.904 5.735 29.509 9.882 46.219 12.053-3.657-14.736-6.398-32.486-7.903-52.092-19.839-1.521-37.781-4.309-52.62-8.032z" fill="#49b1f7"></path><path d="m229.065 186.922c-16.71 2.171-32.315 6.318-46.219 12.053-6.838 14.203-11.785 30.486-14.304 48.071 14.838-3.723 32.781-6.51 52.62-8.033 1.505-19.605 4.246-37.355 7.903-52.091z" fill="#49b1f7"></path><path d="m221.162 308.728c1.504 19.606 4.245 37.356 7.903 52.092 17.434 2.265 35.695 2.366 53.909 0 3.657-14.736 6.398-32.486 7.903-52.092-22.197 1.703-46.433 1.786-69.715 0z" fill="#73c3f9"></path><path d="m290.876 239.014c-1.504-19.606-4.245-37.356-7.903-52.092-17.397-2.26-35.659-2.371-53.909 0-3.657 14.736-6.398 32.486-7.903 52.092 22.2-1.703 46.436-1.786 69.715 0z" fill="#73c3f9"></path><path d="m168.542 247.047c-26.378 6.618-42.952 16.184-42.952 26.824 0 10.64 16.575 20.207 42.952 26.824-2.528-17.647-2.529-35.992 0-53.648z" fill="#0781dd"></path><path d="m386.449 273.865c-.007-10.638-16.579-20.201-42.952-26.818 2.528 17.645 2.529 35.993 0 53.649 26.372-6.616 42.945-16.18 42.952-26.818v-.007c0-.002 0-.004 0-.006z" fill="#9bd8f9"></path><path d="m343.496 247.047c-14.838-3.723-32.781-6.51-52.62-8.033 1.703 22.201 1.786 46.435 0 69.714 19.84-1.522 37.782-4.31 52.62-8.033 2.528-17.645 2.53-35.992 0-53.648z" fill="#73c3f9"></path><path d="m221.162 239.014c-19.84 1.522-37.782 4.31-52.62 8.033-2.528 17.647-2.529 35.992 0 53.649 14.838 3.723 32.781 6.51 52.62 8.033-1.702-22.202-1.785-46.436 0-69.715z" fill="#1e9ef4"></path><path d="m221.162 239.014c-1.703 22.201-1.786 46.435 0 69.714 22.199 1.703 46.435 1.786 69.714 0 1.703-22.201 1.786-46.435 0-69.714-22.196-1.703-46.432-1.786-69.714 0z" fill="#49b1f7"></path><g fill="#b4d667"><path d="m409.847 157.007c-.565-3.408-.886-6.88-.934-10.393l-.73-53.602c-.097-7.146-5.968-12.13-12.949-10.6-4.223.926-7.346 4.185-8.218 8.2l-12.072 55.572c-.499 2.298-1.231 4.524-2.135 6.672l.008.046c0-.001 8.262 21.143 37.03 4.105z"></path><path d="m491.517 249.178c4.816-5.28 3.435-12.856-2.705-16.514l-46.055-27.433c-3.134-1.867-6.085-3.964-8.842-6.255 0 0-25.181 10.919-7.771 35.889l54.162 17.332c3.913 1.251 8.297.175 11.211-3.019z"></path></g></g></svg>