<!-- icon666.com - MILLIONS OF FREE VECTOR ICONS --><svg version="1.1" id="Layer_1" xmlns="http://www.w3.org/2000/svg" xmlns:xlink="http://www.w3.org/1999/xlink" x="0px" y="0px" viewBox="0 0 512.004 512.004" style="enable-background:new 0 0 512.004 512.004;" xml:space="preserve"><path style="fill:#CE9132;" d="M259.213,7.358c-1.911-1.41-4.511-1.41-6.426,0L0,210.188v274.66 c0,11.515,9.339,20.855,20.859,20.855h470.291c11.519,0,20.855-9.339,20.855-20.855v-274.66L259.213,7.358z"></path><rect x="85.122" y="38.229" style="fill:#E1DABE;" width="341.752" height="369.745"></rect><g style="opacity:0.4;"><path style="opacity:0.4;enable-background:new ;" d="M371.477,193.681c0,3.097-2.135,5.603-4.776,5.603H145.298 c-2.636,0-4.772-2.506-4.772-5.603l0,0c0-3.097,2.135-5.607,4.772-5.607h221.403C369.342,188.074,371.477,190.585,371.477,193.681 L371.477,193.681z"></path><path style="opacity:0.4;enable-background:new ;" d="M371.477,237.11c0,3.093-2.135,5.603-4.776,5.603H145.298 c-2.636,0-4.772-2.51-4.772-5.603l0,0c0-3.097,2.135-5.607,4.772-5.607h221.403C369.342,231.503,371.477,234.018,371.477,237.11 L371.477,237.11z"></path><path style="opacity:0.4;enable-background:new ;" d="M371.477,280.539c0,3.097-2.135,5.607-4.776,5.607H145.298 c-2.636,0-4.772-2.51-4.772-5.607l0,0c0-3.097,2.135-5.603,4.772-5.603h221.403C369.342,274.937,371.477,277.443,371.477,280.539 L371.477,280.539z"></path></g><path style="fill:#CD9F53;" d="M313.758,357.838H198.242L6.622,500.296c3.728,3.341,8.724,5.407,14.233,5.407h470.291 c5.509,0,10.505-2.066,14.233-5.407L313.758,357.838z"></path><g><path style="fill:#DAAD63;" d="M301.122,355.988c-1.589,1.104-1.589,2.6,0,3.704l203.731,140.849 c4.376-3.822,7.151-9.429,7.151-15.696V210.188L301.122,355.988z"></path><path style="fill:#DAAD63;" d="M7.151,500.545l203.731-140.849c1.589-1.104,1.589-2.604,0-3.704L0,210.188v274.66 C0,491.112,2.779,496.719,7.151,500.545z"></path></g><g style="opacity:0.4;"><circle style="fill:#CD4E38;" cx="180.92" cy="121.57" r="39.179"></circle></g><circle style="fill:#CD4E38;" cx="180.92" cy="121.57" r="28.197"></circle><g style="opacity:0.2;"><path d="M350.239,110.421c0,2.184-1.772,3.957-3.957,3.957h-106.36c-2.184,0-3.957-1.773-3.957-3.957l0,0 c0-2.184,1.773-3.957,3.957-3.957h106.364C348.471,106.465,350.239,108.237,350.239,110.421L350.239,110.421z"></path></g><g style="opacity:0.2;"><path d="M350.239,132.715c0,2.184-1.772,3.957-3.957,3.957h-106.36c-2.184,0-3.957-1.773-3.957-3.957l0,0 c0-2.184,1.773-3.957,3.957-3.957h106.364C348.471,128.762,350.239,130.53,350.239,132.715L350.239,132.715z"></path></g></svg>