<!-- icon666.com - MILLIONS OF FREE VECTOR ICONS --><svg viewBox="0 0 512 512" xmlns="http://www.w3.org/2000/svg"><g id="Layer_1" data-name="Layer 1"><path d="m282.851 379.5h-234.427a13.821 13.821 0 0 1 -13.824-13.821v-57.206a13.822 13.822 0 0 1 13.822-13.822h234.429a13.822 13.822 0 0 1 13.821 13.822v57.206a13.821 13.821 0 0 1 -13.821 13.821z" fill="#6cf"></path><path d="m70.423 379.5h-22a13.821 13.821 0 0 1 -13.823-13.821v-57.206a13.821 13.821 0 0 1 13.821-13.822h22a13.821 13.821 0 0 0 -13.821 13.822v57.206a13.821 13.821 0 0 0 13.823 13.821z" fill="#4da6ff"></path><path d="m256.306 10.643h17.179a25.322 25.322 0 0 1 25.323 25.323v111.591a25.322 25.322 0 0 1 -25.323 25.323h-17.179a25.323 25.323 0 0 1 -25.323-25.323v-111.591a25.323 25.323 0 0 1 25.323-25.323z" fill="#ffd9b3"></path><path d="m274.039 172.866c-.185 0-.368.014-.554.014h-17.179a25.322 25.322 0 0 1 -25.322-25.323v-111.591a25.322 25.322 0 0 1 25.322-25.323h17.179c.186 0 .369.01.554.014a25.318 25.318 0 0 0 -24.77 25.309v111.591a25.318 25.318 0 0 0 24.77 25.309z" fill="#fb9"></path><path d="m188.481 15.526h17.179a25.323 25.323 0 0 1 25.323 25.323v101.825a25.323 25.323 0 0 1 -25.323 25.326h-17.179a25.324 25.324 0 0 1 -25.323-25.323v-101.828a25.324 25.324 0 0 1 25.323-25.323z" fill="#ffd9b3"></path><path d="m206.785 167.968c-.373.017-.747.029-1.125.029h-17.178a25.324 25.324 0 0 1 -25.324-25.323v-101.825a25.324 25.324 0 0 1 25.324-25.323h17.178c.378 0 .752.012 1.125.029a25.321 25.321 0 0 0 -24.2 25.294v101.825a25.321 25.321 0 0 0 24.2 25.294z" fill="#fb9"></path><path d="m329.333 213.72-49.419 80.931h-228.554l-23.852-67.813v-100.35l135.492 14.929c0 11.852 8.624 26.58 25.481 26.58h8.589c-12.271-6.049-20.795-13.022-21.475-24.041-1.855-30.082 16.629-31.178 38.945-32.386 35.307-1.911 90.445-16.46 108.633 21.473 10.634 22.178 6.16 80.677 6.16 80.677z" fill="#ffd9b3"></path><path d="m49.406 226.838 23.852 67.813h-21.898l-23.852-67.813v-100.35l21.9 2.413z" fill="#fb9"></path><path d="m120.656 19.6h17.179a25.322 25.322 0 0 1 25.323 25.323v93.677a25.322 25.322 0 0 1 -25.323 25.323h-17.179a25.323 25.323 0 0 1 -25.323-25.323v-93.681a25.323 25.323 0 0 1 25.323-25.319z" fill="#ffd9b3"></path><path d="m139.11 163.9q-.633.031-1.275.032h-17.179a25.323 25.323 0 0 1 -25.323-25.332v-93.681a25.323 25.323 0 0 1 25.323-25.319h17.179q.642 0 1.275.032a25.323 25.323 0 0 0 -24.047 25.291v93.677a25.323 25.323 0 0 0 24.047 25.3z" fill="#fb9"></path><path d="m52.831 23.123h17.179a25.322 25.322 0 0 1 25.323 25.323v86.631a25.322 25.322 0 0 1 -25.323 25.323h-17.179a25.323 25.323 0 0 1 -25.323-25.323v-86.631a25.323 25.323 0 0 1 25.323-25.323z" fill="#ffd9b3"></path><path d="m70.635 160.385c-.208 0-.415.015-.625.015h-17.179a25.323 25.323 0 0 1 -25.323-25.323v-86.631a25.323 25.323 0 0 1 25.323-25.323h17.179c.21 0 .417.01.625.015a25.319 25.319 0 0 0 -24.7 25.308v86.631a25.319 25.319 0 0 0 24.7 25.308z" fill="#fb9"></path><path d="m243.723 501.357h-156.433a30.613 30.613 0 0 1 -30.608-31.205l2.125-90.652h212.793l2.729 90.483a30.614 30.614 0 0 1 -30.606 31.374z" fill="#eabd8c"></path><path d="m99.217 501.357h-11.927a30.613 30.613 0 0 1 -30.608-31.205l2.125-90.652h19.264l-2.1 91.1a31 31 0 0 0 23.246 30.757z" fill="#d3a06c"></path><path d="m374.826 243.917h-22.526a3.974 3.974 0 0 1 -3.191-6.345l64.106-86.29a3.976 3.976 0 0 1 6.382 0l64.1 86.29a3.974 3.974 0 0 1 -3.191 6.345h-22.525a3.976 3.976 0 0 0 -3.975 3.976v147.537a11.818 11.818 0 0 1 -11.819 11.818h-51.567a11.819 11.819 0 0 1 -11.82-11.818v-147.537a3.976 3.976 0 0 0 -3.974-3.976z" fill="#ff5959"></path><path d="m393.8 407.248h-3.18a11.818 11.818 0 0 1 -11.82-11.818v-147.537a3.975 3.975 0 0 0 -3.975-3.976h-22.525a3.974 3.974 0 0 1 -3.191-6.345l64.106-86.29a3.941 3.941 0 0 1 1.356-1.147l-40.346 78.782h.6a19 19 0 0 1 18.975 18.976z" fill="#e63a57"></path><path d="m305.807 105.578v-69.612a32.36 32.36 0 0 0 -32.323-32.323h-17.179a32.318 32.318 0 0 0 -27.237 14.957 32.226 32.226 0 0 0 -23.409-10.074h-17.179a32.317 32.317 0 0 0 -26.925 14.466 32.236 32.236 0 0 0 -23.721-10.4h-17.179a32.314 32.314 0 0 0 -26.713 14.151 32.245 32.245 0 0 0 -23.933-10.62h-17.179a32.36 32.36 0 0 0 -32.323 32.323v178.392a6.988 6.988 0 0 0 .4 2.323l20.952 59.568a20.847 20.847 0 0 0 -14.259 19.744v57.206a20.845 20.845 0 0 0 20.823 20.821h3.217l-1.958 83.517a37.614 37.614 0 0 0 37.607 38.34h156.433a37.613 37.613 0 0 0 37.6-38.585l-2.51-83.272h4.037a20.845 20.845 0 0 0 20.822-20.821v-57.206a20.84 20.84 0 0 0 -12.384-19.018l44.019-72.086a6.991 6.991 0 0 0 1-3.115c.189-2.464 4.487-60.64-6.826-84.237a51.251 51.251 0 0 0 -23.673-24.439zm-67.825-69.612a18.344 18.344 0 0 1 18.323-18.323h17.179a18.344 18.344 0 0 1 18.323 18.323v64.612c-17.186-4.056-36.7-2.26-53.825.583zm-67.825 4.883a18.344 18.344 0 0 1 18.323-18.323h17.179a18.344 18.344 0 0 1 18.323 18.323v62.894q-2.478.49-4.821.964c-19.687 3.956-45.6 12.971-43.378 45.449a28.266 28.266 0 0 0 1.217 6.472c-4.44-3.128-6.84-7.851-6.84-13.954zm-67.825 4.07a18.344 18.344 0 0 1 18.323-18.319h17.179a18.344 18.344 0 0 1 18.323 18.323v93.677a18.344 18.344 0 0 1 -18.323 18.323h-17.179a18.344 18.344 0 0 1 -18.323-18.323zm-67.825 3.527a18.344 18.344 0 0 1 18.323-18.323h17.179a18.343 18.343 0 0 1 18.323 18.323v86.632a18.343 18.343 0 0 1 -18.323 18.322h-17.179a18.343 18.343 0 0 1 -18.323-18.322zm232.821 421.711a23.612 23.612 0 0 1 -23.606 24.2h-156.433a23.613 23.613 0 0 1 -23.61-24.041l1.965-83.816h199.162zm22.343-104.478a6.829 6.829 0 0 1 -6.822 6.821h-234.426a6.829 6.829 0 0 1 -6.822-6.821v-57.206a6.829 6.829 0 0 1 6.822-6.822h2.911.026.023 231.466a6.829 6.829 0 0 1 6.822 6.822zm32.8-154.157-46.487 76.129h-219.666l-21.811-62.008v-63.958a32.136 32.136 0 0 0 18.323 5.715h17.179a32.245 32.245 0 0 0 23.933-10.62 32.314 32.314 0 0 0 26.713 14.147h17.179a32.231 32.231 0 0 0 23.666-10.334c5.3 7.823 14.881 13.842 30.258 14.361 6.762 4.554 16.191 8.684 29.268 11.827a209.677 209.677 0 0 0 39.643 5.225 7 7 0 0 0 .306-14c-17.992-.4-69.7-6.564-71.22-28.81-1.182-17.251 7.837-25.878 32.169-30.766 39.917-8.022 80.126-13.266 94.942 17.637 7.776 16.233 6.768 58.433 5.606 75.455zm166.847 21.878-64.1-86.289a10.975 10.975 0 0 0 -17.62 0l-64.111 86.289a10.974 10.974 0 0 0 8.81 17.52h19.5v144.51a18.84 18.84 0 0 0 18.818 18.819h51.568a18.84 18.84 0 0 0 18.819-18.819v-144.513h19.5a10.974 10.974 0 0 0 8.81-17.52zm-31.338 3.52a10.988 10.988 0 0 0 -10.975 10.976v147.534a4.825 4.825 0 0 1 -4.819 4.819h-51.568a4.825 4.825 0 0 1 -4.818-4.819v-147.537a10.988 10.988 0 0 0 -10.975-10.976h-16.513l58.088-78.192 58.089 78.192z"></path></g></svg>