<!-- icon666.com - MILLIONS OF FREE VECTOR ICONS --><svg version="1.1" id="Layer_1" xmlns="http://www.w3.org/2000/svg" xmlns:xlink="http://www.w3.org/1999/xlink" x="0px" y="0px" viewBox="0 0 496 496" style="enable-background:new 0 0 496 496;" xml:space="preserve"><polygon style="fill:#F9BA48;" points="152,136 488,136 488,216 304,304 184,304 "></polygon><g><path style="fill:#333333;" d="M120,360c-17.648,0-32,14.352-32,32s14.352,32,32,32s32-14.352,32-32S137.648,360,120,360z M120,408 c-8.824,0-16-7.176-16-16s7.176-16,16-16s16,7.176,16,16S128.824,408,120,408z"></path><path style="fill:#333333;" d="M360,360c-17.648,0-32,14.352-32,32s14.352,32,32,32s32-14.352,32-32S377.648,360,360,360z M360,408 c-8.824,0-16-7.176-16-16s7.176-16,16-16s16,7.176,16,16S368.824,408,360,408z"></path><path style="fill:#333333;" d="M478.944,128L436.28,64h-40.12l-10.288,12.856L348.12,24H228.248l-80,96H32v16h113.32l32,176 h128.496L496,221.04V128H478.944z M416.76,241.208l-25.816-45.176l-13.888,7.936l25.232,44.16l-17.84,8.536l-25.504-44.624 l-13.888,7.936l24.92,43.608l-17.84,8.536l-25.192-44.08l-13.888,7.936l24.608,43.064l-17.84,8.536l-24.88-43.536l-13.888,7.936 l24.296,42.52L302.184,296h-79.408l-14.488-86.888c-0.192-1.184-0.288-2.368-0.288-3.56c0-11.88,9.672-21.552,21.552-21.552H416 v-16H229.552C208.84,168,192,184.84,192,205.552c0,2.064,0.168,4.128,0.504,6.168L206.56,296h-15.88l-30.136-165.752L235.752,40 h104.136l35.6,49.84L361.752,107l12.496,10l29.592-37h23.872l32,48H272v16h208v24h-48v16h48v26.96L416.76,241.208z"></path><path style="fill:#333333;" d="M408,328.152C394.608,318.064,378.016,312,360,312s-34.608,6.064-48,16.152V328H168v0.152 c-7.176-5.408-15.24-9.704-24-12.464V176H42.232l-24,72H0v16h12.904L0,302.704V408h41.616c7.432,36.472,39.76,64,78.384,64 s70.952-27.528,78.384-64H208h64h9.616c7.432,36.472,39.76,64,78.384,64s70.952-27.528,78.384-64H472v-80h-64V328.152z M53.768,192 H128v56H35.096L53.768,192z M16,392v-86.704L29.768,264H128v48.408c-2.632-0.264-5.296-0.408-8-0.408c-44.112,0-80,35.888-80,80H16 z M120,456c-35.288,0-64-28.712-64-64s28.712-64,64-64s64,28.712,64,64S155.288,456,120,456z M224,392v-24h32v24H224z M272,392v-24 c0-8.824-7.176-16-16-16h-32c-8.824,0-16,7.176-16,16v24h-8c0-18.016-6.064-34.608-16.152-48H296.16 C286.064,357.392,280,373.984,280,392H272z M360,456c-35.288,0-64-28.712-64-64s28.712-64,64-64s64,28.712,64,64 S395.288,456,360,456z M456,392h-16c0-18.016-6.064-34.608-16.152-48H456V392z"></path></g></svg>