<!-- icon666.com - MILLIONS OF FREE VECTOR ICONS --><svg id="Layer_1" viewBox="0 0 35 35" xmlns="http://www.w3.org/2000/svg"><g><g><g><g><path d="m22.1 20.5v-4.2c0-.5-.7-.9-1.5-.9h-6.2c-.8 0-1.5.4-1.5.9v4.2z" fill="#f15e75"></path></g><g><path d="m12.9 20.5h9.2v5.6l-4.6 7.4-4.6-7.4z" fill="#f6e272"></path></g><g><path d="m22.1 26.2v-.1-5.6h-9.2v5.6.1z" fill="#e09c49"></path></g></g><g opacity=".1"><g><path d="m17.4 20.5h4.7v-4.2c0-.5-.7-.9-1.5-.9h-3.2z" fill="#030303"></path></g><g><path d="m17.4 20.5h4.7v5.4h-4.7z" fill="#030303"></path></g><g><path d="m17.4 20.5h4.7v5.4h-4.7z" fill="#030303"></path></g></g><g><path d="m17.5 34.5c-.3 0-.7-.2-.8-.5l-4.6-7.4c-.1-.2-.2-.3-.2-.5v-5.6c0-.6.4-1 1-1h9.2c.6 0 1 .4 1 1v5.6c0 .2-.1.4-.2.5l-4.6 7.4c-.1.3-.5.5-.8.5zm-3.6-8.7 3.6 5.8 3.6-5.8v-4.3h-7.2z" fill="#010101"></path></g><g><path d="m22.1 21.5h-9.2c-.6 0-1-.4-1-1v-4.2c0-1.1 1.1-1.9 2.5-1.9h6.2c1.4 0 2.5.8 2.5 1.9v4.2c0 .6-.5 1-1 1zm-8.2-2h7.2v-2.9c-.1 0-.2-.1-.5-.1h-6.2c-.2 0-.4 0-.5.1z" fill="#010101"></path></g><g><path d="m22.1 27.1h-9.2c-.6 0-1-.4-1-1s.4-1 1-1h9.2c.6 0 1 .4 1 1s-.5 1-1 1z" fill="#010101"></path></g></g><g><circle cx="17.5" cy="11" fill="#ffca19" r="9.5"></circle></g><g opacity=".1"><path d="m26.1 7.1c-1.5-1.1-3.4-1.7-5.4-1.7-5.3 0-9.5 4.3-9.5 9.5 0 1.4.3 2.8.9 4-2.5-1.8-4.1-4.7-4.1-7.9 0-5.2 4.3-9.5 9.5-9.5 3.8 0 7.1 2.3 8.6 5.6z" fill="#030303"></path></g><g><path d="m17.5 21.5c-5.8 0-10.5-4.7-10.5-10.5s4.7-10.5 10.5-10.5 10.5 4.7 10.5 10.5-4.7 10.5-10.5 10.5zm0-19c-4.7 0-8.5 3.8-8.5 8.5s3.8 8.5 8.5 8.5 8.5-3.8 8.5-8.5-3.8-8.5-8.5-8.5z" fill="#010101"></path></g><g><g><path d="m17.5 16c-.6 0-1-.4-1-1v-5.2c0-.6.4-1 1-1s1 .4 1 1v5.2c0 .5-.4 1-1 1z" fill="#fff"></path></g><g><path d="m16.8 7.7c-.4-.4-.4-1 0-1.4s1-.4 1.4 0 .4 1 0 1.4-1 .4-1.4 0z" fill="#fff"></path></g></g></g></svg>