<!-- icon666.com - MILLIONS OF FREE VECTOR ICONS --><svg viewBox="-31 0 512 512" xmlns="http://www.w3.org/2000/svg"><path d="m61.65625 457.039062c-4.382812 0-8.71875-1.902343-11.675781-5.566406-5.214844-6.445312-4.203125-15.894531 2.226562-21.09375l43.359375-35.039062c2.679688-2.167969 6.003906-3.339844 9.433594-3.339844h45v-46c0-8.289062 6.710938-15 15-15s15 6.710938 15 15v61c0 8.289062-6.710938 15-15 15h-54.695312l-39.230469 31.699219c-2.785157 2.253906-6.109375 3.339843-9.417969 3.339843zm0 0" fill="#a8ebfa"></path><path d="m388.34375 457.039062c-3.308594 0-6.632812-1.085937-9.417969-3.339843l-39.230469-31.699219h-54.695312c-8.289062 0-15-6.710938-15-15v-61c0-8.289062 6.710938-15 15-15s15 6.710938 15 15v46h45c3.429688 0 6.753906 1.171875 9.433594 3.339844l43.359375 35.039062c6.429687 5.199219 7.441406 14.648438 2.226562 21.09375-2.957031 3.664063-7.292969 5.566406-11.675781 5.566406zm0 0" fill="#76e2f8"></path><path d="m240 346v91c0 8.398438-6.597656 15-15 15s-15-6.601562-15-15v-91c0-8.402344 6.597656-15 15-15s15 6.597656 15 15zm0 0" fill="#a8ebfa"></path><path d="m240 346v91c0 8.398438-6.597656 15-15 15v-121c8.402344 0 15 6.597656 15 15zm0 0" fill="#76e2f8"></path><path d="m390 166v30c0 8.398438-6.597656 15-15 15-41.398438 0-75 33.601562-75 75v45h-150v-45c0-41.398438-33.601562-75-75-75-8.402344 0-15-6.601562-15-15v-30c0-90.902344 74.097656-166 165-166s165 75.097656 165 166zm0 0" fill="#ffd400"></path><g fill="#fdbf00"><path d="m390 166v30c0 8.398438-6.597656 15-15 15-41.398438 0-75 33.601562-75 75v45h-75v-331c90.902344 0 165 75.097656 165 166zm0 0"></path><path d="m240 196v120c0 8.398438-6.597656 15-15 15s-15-6.601562-15-15v-120c0-8.402344 6.597656-15 15-15s15 6.597656 15 15zm0 0"></path><path d="m270 136v30c0 24.898438-20.097656 45-45 45s-45-20.101562-45-45v-30c0-8.402344 6.597656-15 15-15s15 6.597656 15 15v30c0 8.398438 6.597656 15 15 15s15-6.601562 15-15v-30c0-8.402344 6.597656-15 15-15s15 6.597656 15 15zm0 0"></path></g><path d="m270 136v30c0 24.898438-20.097656 45-45 45v-30c8.402344 0 15-6.601562 15-15v-30c0-8.402344 6.597656-15 15-15s15 6.597656 15 15zm0 0" fill="#ff9f00"></path><path d="m240 196v120c0 8.398438-6.597656 15-15 15v-150c8.402344 0 15 6.597656 15 15zm0 0" fill="#ff9f00"></path><path d="m45 512c-24.8125 0-45-20.1875-45-45s20.1875-45 45-45 45 20.1875 45 45-20.1875 45-45 45zm0 0" fill="#76e2f8"></path><path d="m225 422c-24.902344 0-45 20.097656-45 45 0 24.898438 20.097656 45 45 45s45-20.101562 45-45c0-24.902344-20.097656-45-45-45zm0 0" fill="#76e2f8"></path><path d="m405 512c-24.8125 0-45-20.1875-45-45s20.1875-45 45-45 45 20.1875 45 45-20.1875 45-45 45zm0 0" fill="#25d9f8"></path><path d="m270 467c0 24.898438-20.097656 45-45 45v-90c24.902344 0 45 20.097656 45 45zm0 0" fill="#25d9f8"></path><path d="m330 331c0 16.5-13.5 30-30 30h-150c-16.5 0-30-13.5-30-30s13.5-30 30-30h150c16.5 0 30 13.5 30 30zm0 0" fill="#ececf1"></path><path d="m330 331c0 16.5-13.5 30-30 30h-75v-60h75c16.5 0 30 13.5 30 30zm0 0" fill="#d3d3d8"></path></svg>