<!-- icon666.com - MILLIONS OF FREE VECTOR ICONS --><svg clip-rule="evenodd" fill-rule="evenodd" stroke-linejoin="round" stroke-miterlimit="2" viewBox="0 0 48 48" xmlns="http://www.w3.org/2000/svg" xmlns:xlink="http://www.w3.org/1999/xlink"><linearGradient id="lg1"><stop offset="0" stop-color="#000034"></stop><stop offset="1" stop-color="#2f3fbd"></stop></linearGradient><linearGradient id="_Linear1" gradientTransform="matrix(15.503 -15.503 15.503 15.503 551.324 310.75)" gradientUnits="userSpaceOnUse" x1="0" x2="1" xlink:href="#lg1" y1="0" y2="0"></linearGradient><linearGradient id="_Linear2" gradientTransform="matrix(4.708 -5.519 5.519 4.708 558.791 287.86)" gradientUnits="userSpaceOnUse" x1="0" x2="1" xlink:href="#lg1" y1="0" y2="0"></linearGradient><linearGradient id="_Linear3" gradientTransform="matrix(7.305 -21.753 21.753 7.305 575.512 311.237)" gradientUnits="userSpaceOnUse" x1="0" x2="1" y1="0" y2="0"><stop offset="0" stop-color="#cc7800"></stop><stop offset="1" stop-color="#ffbf63"></stop></linearGradient><g transform="translate(-159 -212)"><g id="ngicon" transform="translate(28.924 4.644)"><g transform="translate(-413.924 -64.644)"><g><path d="m574.118 303.571c0-5.937-5.882-10.939-13.309-10.939s-13.309 5.002-13.309 10.939c0 .199.172 2.279.346 4.29.189 2.89 2.589 5.139 5.488 5.139 4.132 0 10.818 0 14.95-.002 2.899 0 5.299-2.251 5.486-5.142.175-2.006.348-4.086.348-4.285z" fill="url(#_Linear1)"></path></g><g><path d="m560.809 279c-2.983 0-5.436 2.495-5.436 5.605 0 3.111 2.453 5.606 5.436 5.606 2.982 0 5.436-2.495 5.436-5.606 0-3.11-2.454-5.605-5.436-5.605z" fill="url(#_Linear2)"></path></g><g><path d="m574.194 295.657c1.854 2.286 2.924 5.036 2.924 7.914 0 .211-.172 2.398-.356 4.51-.129 1.877-.86 3.578-1.999 4.918 2.718 0 5.712-.001 7.973-.002 2.886 0 5.28-2.234 5.482-5.112.153-1.454.282-2.798.282-2.944 0-2.133-1.003-4.126-2.775-5.725-2.38-2.146-6.205-3.584-10.534-3.584-.335 0-.668.008-.997.025z" fill="url(#_Linear3)"></path></g><g><path d="m575.191 284c-2.398 0-4.376 1.999-4.376 4.5s1.978 4.5 4.376 4.5 4.377-1.999 4.377-4.5-1.979-4.5-4.377-4.5z" fill="url(#_Linear3)"></path></g></g></g></g></svg>