<!-- icon666.com - MILLIONS OF FREE VECTOR ICONS --><svg version="1.1" id="Capa_1" xmlns="http://www.w3.org/2000/svg" xmlns:xlink="http://www.w3.org/1999/xlink" x="0px" y="0px" viewBox="0 0 511.998 511.998" style="enable-background:new 0 0 511.998 511.998;" xml:space="preserve"><path style="fill:#E1E4FB;" d="M511.098,330.999c-1.8,33.3-9.598,65.4-24.3,95.4c-7.2,15-22.798,24.6-40.199,24.6h-381.2 c-17.401,0-32.999-9.6-40.199-24.6c-14.401-30-22.202-62.401-24.001-95.4l109.801-210h290.3L511.098,330.999z"></path><path style="fill:#C5C9F7;" d="M511.098,330.999c-1.8,33.3-9.598,65.4-24.3,95.4c-7.2,15-22.798,24.6-40.199,24.6h-190.6v-330h145.3 L511.098,330.999z"></path><path style="fill:#FEDB41;" d="M135.536,181.536l-36.101-36.101L74.77,135.77C25.333,185.207-3.955,254.792,0.433,330.999h74.566 c8.554,0,14.968-7.116,15.002-15.67c0.18-45.226,18.649-86.218,48.38-115.948L135.536,181.536z"></path><path style="fill:#E50027;" d="M437.228,135.77l-25.541,10.541l-41.25,41.25l3.181,11.819c29.731,29.731,48.2,70.722,48.38,115.948 c0.034,8.554,6.449,15.67,15.002,15.67h74.566C515.953,254.792,486.665,185.207,437.228,135.77z"></path><path style="fill:#1689FC;" d="M255.999,60.999l-15,9.975v66.9l15,13.125c45.491,0,87.741,18.505,117.618,48.382l63.611-63.611 C391.054,89.596,326.304,60.999,255.999,60.999z"></path><path style="fill:#32D736;" d="M74.77,135.77l63.611,63.611c29.877-29.877,72.127-48.382,117.618-48.382v-90 C185.694,60.999,120.944,89.596,74.77,135.77z"></path><path style="fill:#0070BC;" d="M451.999,315.999c0,22.2-3.6,44.099-11.1,65.099c-2.701,7.8-11.1,11.7-19.2,9 c-7.8-2.699-11.999-11.4-9-19.2c6-17.699,9.3-35.999,9.3-54.899c0-90.901-75.099-165-166-165s-166,74.099-166,165 c0,18.9,3.3,37.2,9.3,54.899c2.999,7.8-1.199,16.501-9,19.2c-7.8,2.701-16.5-1.199-19.2-9c-7.5-21-11.1-42.9-11.1-65.099 c0-107.401,88.599-195,196-195S451.999,208.598,451.999,315.999z"></path><path style="fill:#005EB2;" d="M451.999,315.999c0,22.2-3.6,44.099-11.1,65.099c-2.701,7.8-11.1,11.7-19.2,9 c-7.8-2.699-11.999-11.4-9-19.2c6-17.699,9.3-35.999,9.3-54.899c0-90.901-75.099-165-166-165v-30 C363.4,120.999,451.999,208.598,451.999,315.999z"></path><path style="fill:#0070BC;" d="M396.199,239.499c-4.2-5.101-11.4-7.8-18.6-4.2c-51,25.499-90.7,45-141.7,70.499 c-16.201,8.101-24.901,24-24.901,40.201c0,11.4,4.2,22.8,13.2,31.8c18.3,18.3,47.999,17.401,65.4-1.8 c37.8-42.301,67.899-74.7,105.7-117.301c0.3,0,0.3,0,0.3,0C400.999,252.399,400.1,244.599,396.199,239.499z"></path><path style="fill:#005EB2;" d="M395.599,258.698c0,0,0,0-0.3,0c-37.8,42.601-67.899,75-105.7,117.301 c-17.401,19.2-47.1,20.099-65.4,1.8l172-138.3C400.1,244.599,400.999,252.399,395.599,258.698z"></path></svg>