<!-- icon666.com - MILLIONS OF FREE VECTOR ICONS --><svg viewBox="0 -68 512 512" xmlns="http://www.w3.org/2000/svg"><g fill="#a6ca3c"><path d="m87.671875 63.625c0-8.855469 7.175781-16.03125 16.03125-16.03125s32.0625 16.03125 32.0625 16.03125-23.207031 16.03125-32.0625 16.03125-16.03125-7.175781-16.03125-16.03125zm0 0" fill="#a6ca3c" style="fill: rgb(128, 255, 0);"></path><path d="m87.671875 63.625c0-8.855469-7.175781-16.03125-16.03125-16.03125s-32.0625 16.03125-32.0625 16.03125 23.207031 16.03125 32.0625 16.03125 16.03125-7.175781 16.03125-16.03125zm0 0" fill="#a6ca3c" style="fill: rgb(128, 255, 0);"></path><path d="m256 95.6875c0-8.855469 7.175781-16.03125 16.03125-16.03125s32.0625 16.03125 32.0625 16.03125-23.207031 16.03125-32.0625 16.03125-16.03125-7.175781-16.03125-16.03125zm0 0" fill="#a6ca3c" style="fill: rgb(128, 255, 0);"></path><path d="m256 95.6875c0-8.855469-7.175781-16.03125-16.03125-16.03125s-32.0625 16.03125-32.0625 16.03125 23.207031 16.03125 32.0625 16.03125 16.03125-7.175781 16.03125-16.03125zm0 0" fill="#a6ca3c" style="fill: rgb(128, 255, 0);"></path><path d="m432.34375 23.546875c0-8.855469 7.175781-16.03125 16.03125-16.03125s32.0625 16.03125 32.0625 16.03125-23.207031 16.03125-32.0625 16.03125-16.03125-7.179687-16.03125-16.03125zm0 0" fill="#a6ca3c" style="fill: rgb(128, 255, 0);"></path><path d="m432.34375 23.546875c0-8.855469-7.175781-16.03125-16.03125-16.03125s-32.0625 16.03125-32.0625 16.03125 23.207031 16.03125 32.0625 16.03125 16.03125-7.179687 16.03125-16.03125zm0 0" fill="#a6ca3c" style="fill: rgb(128, 255, 0);"></path></g><path d="m276.285156 360.203125h-40.570312c-15.957032 0-29.484375-11.734375-31.742188-27.527344l-12.097656-84.691406h128.25l-12.097656 84.691406c-2.257813 15.792969-15.785156 27.527344-31.742188 27.527344zm0 0" fill="#787e72" style="fill: rgb(216, 204, 171);"></path><path d="m236.035156 332.675781-12.097656-84.691406h-32.0625l12.097656 84.691406c2.257813 15.792969 15.785156 27.527344 31.742188 27.527344h32.0625c-15.957032 0-29.484375-11.734375-31.742188-27.527344zm0 0" fill="#575e4f"></path><path d="m444.617188 360.203125h-40.574219c-15.957031 0-29.484375-11.734375-31.738281-27.527344l-12.101563-84.691406h128.25l-12.097656 84.691406c-2.257813 15.792969-15.785157 27.527344-31.738281 27.527344zm0 0" fill="#787e72" style="fill: rgb(216, 204, 171);"></path><path d="m404.363281 332.675781-12.097656-84.691406h-32.0625l12.097656 84.691406c2.257813 15.792969 15.785157 27.527344 31.742188 27.527344h32.0625c-15.957031 0-29.484375-11.734375-31.742188-27.527344zm0 0" fill="#575e4f"></path><path d="m107.957031 360.203125h-40.574219c-15.953124 0-29.480468-11.734375-31.738281-27.527344l-12.097656-84.691406h128.25l-12.097656 84.691406c-2.257813 15.792969-15.785157 27.527344-31.742188 27.527344zm0 0" fill="#787e72" style="fill: rgb(216, 204, 171);"></path><path d="m67.707031 332.675781-12.097656-84.691406h-32.0625l12.097656 84.691406c2.257813 15.792969 15.785157 27.527344 31.738281 27.527344h32.0625c-15.953124 0-29.480468-11.734375-31.738281-27.527344zm0 0" fill="#575e4f"></path><path d="m7.515625 207.90625h496.96875v40.078125h-496.96875zm0 0" fill="#9a9f96"></path><path d="m7.515625 207.90625h48.09375v40.078125h-48.09375zm0 0" fill="#898f84"></path><path d="m504.484375 200.390625h-60.789063c-5.019531-5.890625-17.445312-22.582031-12.238281-38.203125 2.3125-6.933594 7.769531-13.800781 13.546875-21.074219 11.007813-13.867187 24.714844-31.121093 18.679688-55.265625-3.238282-12.949218-9.292969-23.273437-14.632813-32.378906-1.335937-2.28125-2.621093-4.472656-3.789062-6.589844 1.019531.136719 2.058593.214844 3.113281.214844 10.390625 0 30.4375-13.289062 36.335938-17.363281 2.03125-1.402344 3.242187-3.714844 3.242187-6.183594s-1.210937-4.78125-3.242187-6.183594c-5.898438-4.074219-25.945313-17.363281-36.335938-17.363281-6.1875 0-11.824219 2.402344-16.03125 6.324219-4.207031-3.921875-9.839844-6.324219-16.03125-6.324219-10.390625 0-30.4375 13.289062-36.332031 17.363281-2.03125 1.402344-3.246094 3.714844-3.246094 6.183594s1.214844 4.78125 3.246094 6.183594c5.894531 4.070312 25.941406 17.363281 36.332031 17.363281 4.011719 0 7.789062-1.011719 11.097656-2.789062 2.136719 5.601562 5.347656 11.09375 8.675782 16.765624 5.0625 8.636719 10.300781 17.566407 13.015624 28.421876 4.238282 16.953124-5.53125 29.25-15.871093 42.273437-6.332031 7.972656-12.878907 16.21875-16.03125 25.667969-5.484375 16.460937 1.175781 32.363281 7.867187 42.957031h-32.800781c-4.152344 0-7.515625 3.363281-7.515625 7.515625s3.363281 7.515625 7.515625 7.515625h104.703125v25.046875h-481.9375v-25.046875h341.28125c4.152344 0 7.515625-3.363281 7.515625-7.515625s-3.363281-7.515625-7.515625-7.515625h-90.191406c.824218-1.488281 1.785156-3.058594 2.796875-4.707031 6.375-10.378906 16.011719-26.066406 1.351562-48.054688-7.675781-11.511718-9.066406-22.929687-8.761719-30.886718 3.167969 1.589843 6.742188 2.492187 10.523438 2.492187 10.390625 0 30.4375-13.292969 36.335938-17.363281 2.027343-1.402344 3.242187-3.714844 3.242187-6.183594s-1.214844-4.78125-3.242187-6.183594c-5.898438-4.074218-25.945313-17.363281-36.335938-17.363281-6.1875 0-11.824219 2.402344-16.03125 6.324219-4.207031-3.921875-9.84375-6.324219-16.03125-6.324219-10.390625 0-30.4375 13.289063-36.335938 17.363281-2.027343 1.402344-3.242187 3.714844-3.242187 6.183594s1.214844 4.78125 3.242187 6.183594c5.898438 4.070312 25.945313 17.363281 36.335938 17.363281 2.261719 0 4.445312-.328125 6.515625-.925781-.070313 10.253906 2.132813 23.941406 11.277344 37.65625 9.324219 13.988281 4.484375 21.871094-1.648438 31.855468-2.453125 3.992188-4.953125 8.078126-6.394531 12.570313h-166.125c-18.378906-28.902344 3.089844-65.628906 10.328125-76.488281 5.625-8.433594 9.96875-21.238282 3.261719-37.65625 2.070312.597656 4.257812.925781 6.519531.925781 10.386719 0 30.433594-13.289063 36.332031-17.363281 2.03125-1.402344 3.242188-3.714844 3.242188-6.183594s-1.210938-4.78125-3.242188-6.183594c-5.894531-4.074218-25.941406-17.363281-36.332031-17.363281-6.191406 0-11.824219 2.402344-16.03125 6.324219-4.207031-3.921875-9.84375-6.324219-16.03125-6.324219-10.390625 0-30.4375 13.289063-36.335937 17.363281-2.03125 1.402344-3.242188 3.714844-3.242188 6.183594s1.210938 4.78125 3.242188 6.183594c5.898437 4.070312 25.945312 17.363281 36.335937 17.363281 2.960937 0 5.796875-.558594 8.410156-1.5625 6.816407 11.269531 7.269531 21.101563 1.367188 29.957031-7.941407 11.910156-30.214844 50.246094-14.855469 84.824219h-59.046875c-4.152344 0-7.515625 3.363281-7.515625 7.515625v40.078125c0 4.152344 3.363281 7.515625 7.515625 7.515625h9.511719l11.179687 78.238281c2.214844 15.511719 13.460938 27.964844 27.902344 32.3125v2.167969c0 4.152344 3.363281 7.515625 7.515625 7.515625 4.148438 0 7.515625-3.363281 7.515625-7.515625v-.5h33.0625v.5c0 4.152344 3.363281 7.515625 7.515625 7.515625s7.515625-3.363281 7.515625-7.515625v-2.171875c14.441406-4.347656 25.6875-16.796875 27.902344-32.308594l11.175781-78.238281h27.042969l11.179687 78.238281c2.214844 15.511719 13.460938 27.964844 27.902344 32.3125v2.167969c0 4.152344 3.363281 7.515625 7.515625 7.515625s7.515625-3.363281 7.515625-7.515625v-.5h33.0625v.5c0 4.152344 3.363281 7.515625 7.515625 7.515625s7.515625-3.363281 7.515625-7.515625v-2.171875c14.441406-4.347656 25.6875-16.796875 27.902344-32.308594l11.179687-78.238281h27.042969l11.175781 78.238281c2.214844 15.511719 13.460938 27.964844 27.902344 32.3125v2.167969c0 4.152344 3.363281 7.515625 7.515625 7.515625s7.515625-3.363281 7.515625-7.515625v-.5h33.0625v.5c0 4.152344 3.367187 7.515625 7.515625 7.515625 4.152344 0 7.515625-3.363281 7.515625-7.515625v-2.171875c14.441406-4.347656 25.6875-16.796875 27.902344-32.308594l11.179687-78.238281h9.511719c4.152344 0 7.515625-3.363281 7.515625-7.515625v-40.078125c0-4.152344-3.363281-7.515625-7.515625-7.515625zm-56.109375-185.359375c2.523438.015625 9.980469 3.59375 18.183594 8.515625-8.199219 4.921875-15.65625 8.496094-18.183594 8.515625-4.695312 0-8.515625-3.820312-8.515625-8.515625s3.820313-8.515625 8.515625-8.515625zm-32.0625 17.03125c-2.519531-.019531-9.980469-3.597656-18.183594-8.519531 8.199219-4.917969 15.65625-8.496094 18.183594-8.511719 4.695312 0 8.515625 3.820312 8.515625 8.515625s-3.820313 8.515625-8.515625 8.515625zm-144.28125 55.109375c2.523438.015625 9.980469 3.59375 18.183594 8.515625-8.199219 4.921875-15.65625 8.496094-18.183594 8.515625-4.695312 0-8.515625-3.820313-8.515625-8.515625s3.820313-8.515625 8.515625-8.515625zm-32.0625 17.03125c-2.523438-.019531-9.980469-3.597656-18.183594-8.519531 8.199219-4.917969 15.65625-8.496094 18.183594-8.511719 4.695312 0 8.515625 3.820313 8.515625 8.515625s-3.820313 8.515625-8.515625 8.515625zm-136.265625-49.09375c2.519531.015625 9.980469 3.59375 18.183594 8.515625-8.199219 4.921875-15.65625 8.496094-18.183594 8.515625-4.695313 0-8.515625-3.820313-8.515625-8.515625s3.820312-8.515625 8.515625-8.515625zm-50.246094 8.511719c8.199219-4.917969 15.65625-8.496094 18.183594-8.511719 4.695313 0 8.515625 3.820313 8.515625 8.515625s-3.820312 8.515625-8.515625 8.515625c-2.523437-.019531-9.980469-3.597656-18.183594-8.519531zm78.800781 267.992187c-1.714843 12.015625-12.164062 21.074219-24.300781 21.074219h-40.570312c-12.140625 0-22.585938-9.058594-24.300781-21.074219l-10.875-76.113281h110.921874zm168.328126 0c-1.714844 12.015625-12.164063 21.074219-24.300782 21.074219h-40.570312c-12.136719 0-22.585938-9.058594-24.300782-21.074219l-10.875-76.113281h110.921876zm168.328124 0c-1.714843 12.015625-12.160156 21.074219-24.300781 21.074219h-40.570312c-12.136719 0-22.585938-9.058594-24.300781-21.074219l-10.875-76.113281h110.921874zm0 0" fill="#000000"></path></svg>