<!-- icon666.com - MILLIONS OF FREE VECTOR ICONS --><svg version="1.1" id="Capa_1" xmlns="http://www.w3.org/2000/svg" xmlns:xlink="http://www.w3.org/1999/xlink" x="0px" y="0px" viewBox="0 0 512 512" style="enable-background:new 0 0 512 512;" xml:space="preserve"><path style="fill:#F9E7C7;" d="M389.654,187.495L271,256l118.654,68.505c3.587,2.071,4.816,6.658,2.745,10.245 c-1.389,2.406-3.91,3.751-6.502,3.751c-1.272,0-2.562-0.324-3.743-1.006L263.5,268.99V406c0,4.143-3.357,7.5-7.5,7.5 c-4.142,0-7.5-3.357-7.5-7.5V268.99l-118.654,68.505c-1.181,0.682-2.471,1.006-3.743,1.006c-2.592,0-5.113-1.345-6.502-3.751 c-2.071-3.587-0.842-8.174,2.745-10.245L241,256l-118.654-68.505c-3.587-2.071-4.816-6.658-2.745-10.245 c2.07-3.588,6.657-4.815,10.245-2.745L248.5,243.01V106c0-4.143,3.358-7.5,7.5-7.5c4.143,0,7.5,3.357,7.5,7.5v137.01l118.654-68.505 c3.585-2.069,8.175-0.843,10.245,2.745C394.471,180.837,393.241,185.424,389.654,187.495z M483.5,256 c0,60.768-23.664,117.897-66.633,160.867C373.897,459.836,316.768,483.5,256,483.5s-117.897-23.664-160.867-66.633 C52.164,373.897,28.5,316.768,28.5,256S52.164,138.103,95.133,95.133C138.103,52.164,195.232,28.5,256,28.5 s117.897,23.664,160.867,66.633C459.836,138.103,483.5,195.232,483.5,256z M468.5,256c0-117.173-95.327-212.5-212.5-212.5 S43.5,138.827,43.5,256S138.827,468.5,256,468.5S468.5,373.173,468.5,256z"></path><path style="fill:#FF8B6F;" d="M477.703,384c-11.046,19.132-35.509,25.687-54.641,14.641 c-19.132-11.046-25.687-35.509-14.641-54.641c11.046-19.132,35.509-25.687,54.641-14.641 C482.193,340.405,488.748,364.868,477.703,384z"></path><path style="fill:#EB544E;" d="M458.527,374.204l-18.258,5.624c-0.723,0.223-1.467,0.332-2.208,0.332 c-1.304,0-2.599-0.34-3.75-1.005c-1.806-1.043-3.097-2.79-3.562-4.823l-4.259-18.624c-0.923-4.038,1.602-8.06,5.64-8.983 c4.038-0.914,8.061,1.602,8.983,5.64l2.458,10.751l10.539-3.247c3.959-1.219,8.156,1.001,9.376,4.96 C464.706,368.787,462.485,372.984,458.527,374.204z"></path><path style="fill:#5CE5AA;" d="M477.703,128c11.046,19.132,4.491,43.595-14.641,54.641c-19.132,11.046-43.595,4.491-54.641-14.641 s-4.491-43.595,14.641-54.641C442.193,102.313,466.657,108.868,477.703,128z"></path><path style="fill:#1C9C72;" d="M459.631,139.708l-4.258,18.624c-0.465,2.032-1.755,3.78-3.562,4.823 c-1.151,0.665-2.446,1.005-3.75,1.005c-0.741,0-1.485-0.109-2.208-0.332l-18.259-5.624c-3.958-1.22-6.179-5.417-4.96-9.376 c1.22-3.959,5.419-6.181,9.376-4.96l10.539,3.247l2.458-10.751c0.924-4.037,4.942-6.564,8.983-5.64 C458.029,131.647,460.554,135.67,459.631,139.708z"></path><path style="fill:#5274BF;" d="M103.58,168c-11.046,19.132-35.509,25.687-54.641,14.641C29.807,171.595,23.252,147.132,34.298,128 s35.509-25.687,54.641-14.641S114.625,148.868,103.58,168z"></path><path style="fill:#43607E;" d="M79.369,166.141c-0.563,0.128-1.125,0.19-1.679,0.19c-3.42,0-6.51-2.354-7.305-5.83l-2.458-10.751 l-10.539,3.247c-3.962,1.22-8.157-1.002-9.375-4.96c-1.22-3.959,1.001-8.156,4.959-9.376l18.258-5.624 c1.994-0.612,4.153-0.37,5.958,0.673c1.806,1.043,3.097,2.79,3.562,4.823l4.258,18.624 C85.932,161.195,83.407,165.217,79.369,166.141z"></path><path style="fill:#81A5DB;" d="M256,0c22.091,0,40,17.909,40,40s-17.909,40-40,40s-40-17.909-40-40S233.909,0,256,0z"></path><path style="fill:#43607E;" d="M273.5,40c0,2.086-0.868,4.077-2.396,5.496l-14,13c-1.444,1.341-3.275,2.004-5.102,2.004 c-2.013,0-4.02-0.806-5.498-2.396c-2.818-3.035-2.643-7.781,0.393-10.6L254.978,40l-8.082-7.504 c-3.035-2.818-3.211-7.564-0.393-10.6c2.818-3.034,7.563-3.211,10.6-0.393l14,13C272.632,35.923,273.5,37.914,273.5,40z"></path><path style="fill:#FFB750;" d="M103.58,344c11.046,19.132,4.491,43.595-14.641,54.641C69.807,409.687,45.343,403.132,34.298,384 s-4.491-43.595,14.641-54.641C68.07,318.313,92.534,324.868,103.58,344z"></path><path style="fill:#FF8742;" d="M89.864,364.037c-1.219,3.958-5.417,6.181-9.375,4.96L69.95,365.75l-2.458,10.751 c-0.795,3.475-3.885,5.83-7.305,5.83c-0.554,0-1.116-0.062-1.679-0.19c-4.038-0.924-6.563-4.945-5.64-8.983l4.258-18.624 c0.465-2.033,1.755-3.78,3.562-4.823c1.806-1.044,3.964-1.287,5.958-0.673l18.258,5.624 C88.863,355.881,91.083,360.078,89.864,364.037z"></path><path style="fill:#FFE766;" d="M256,432c22.091,0,40,17.909,40,40s-17.909,40-40,40s-40-17.909-40-40S233.909,432,256,432z"></path><g><path style="fill:#FFA644;" d="M266.103,479.504c3.035,2.818,3.211,7.564,0.393,10.6c-1.478,1.591-3.485,2.396-5.498,2.396 c-1.826,0-3.657-0.663-5.102-2.004l-14-13c-1.528-1.419-2.396-3.41-2.396-5.496s0.868-4.077,2.396-5.496l14-13 c3.036-2.819,7.781-2.644,10.6,0.393c2.818,3.035,2.643,7.781-0.393,10.6L258.021,472L266.103,479.504z"></path><path style="fill:#FFA644;" d="M256,146c60.751,0,110,49.249,110,110s-49.249,110-110,110s-110-49.249-110-110S195.249,146,256,146 z"></path></g><path style="fill:#FF8742;" d="M366,256c0,60.751-49.249,110-110,110c-4.399,0-8.736-0.266-13-0.769 c54.623-6.432,97-52.879,97-109.231s-42.377-102.799-97-109.231c4.264-0.502,8.601-0.769,13-0.769C316.751,146,366,195.249,366,256z "></path><path style="fill:#FFE766;" d="M261.262,187.668l16.026,32.472c1.709,3.463,5.013,5.864,8.836,6.419l35.835,5.207 c4.813,0.699,6.734,6.613,3.252,10.008L299.28,267.05c-2.766,2.696-4.028,6.58-3.375,10.387l6.121,35.69 c0.822,4.793-4.209,8.448-8.513,6.185l-32.052-16.851c-3.419-1.797-7.503-1.797-10.921,0l-32.052,16.851 c-4.304,2.263-9.335-1.392-8.513-6.185l6.121-35.69c0.653-3.807-0.609-7.691-3.375-10.387l-25.93-25.276 c-3.482-3.394-1.561-9.309,3.252-10.008l35.835-5.207c3.822-0.555,7.126-2.956,8.835-6.419l16.026-32.472 C252.891,183.307,259.109,183.307,261.262,187.668z"></path><path style="fill:#FFF47A;" d="M271.072,207.547c-11.455,41.429-32.163,79.013-59.761,110.392c-1.077-1.241-1.658-2.935-1.337-4.81 l6.121-35.691c0.653-3.806-0.609-7.691-3.375-10.387l-25.93-25.276c-3.482-3.394-1.561-9.309,3.252-10.008l35.835-5.207 c3.822-0.555,7.126-2.956,8.835-6.419l16.026-32.472c2.152-4.361,8.371-4.361,10.523,0L271.072,207.547z"></path></svg>