<!-- icon666.com - MILLIONS OF FREE VECTOR ICONS --><svg id="Icons" viewBox="0 0 60 60" xmlns="http://www.w3.org/2000/svg"><path d="m32.959 16.5a.5.5 0 0 1 -.283-.912l6.051-4.151-6.447 3.72a.5.5 0 0 1 -.537-.842l6.978-4.891-6.441 3.718a.5.5 0 0 1 -.547-.835l7.185-5.289-6.613 3.817a.5.5 0 0 1 -.529-.848l.673-.451a.5.5 0 0 1 -.539-.836l4.809-3.806-3.292 1.9a.5.5 0 0 1 -.57-.817l2.2-1.824a.491.491 0 0 1 -.251-.215.5.5 0 0 1 .182-.683l3.828-2.21a.5.5 0 0 1 .57.817l-1.343 1.113 4.091-2.362a.5.5 0 0 1 .56.825l-4.8 3.8 7.1-4.1a.5.5 0 0 1 .528.847l-.665.446 1.353-.781a.5.5 0 0 1 .547.835l-7.185 5.29 8.5-4.909a.5.5 0 0 1 .537.842l-6.974 4.892 7.731-4.464a.5.5 0 0 1 .533.844l-6.048 4.15 6.433-3.714a.5.5 0 0 1 .524.852l-.112.072.062-.035a.5.5 0 0 1 .529.847l-1.708 1.15 1.621-.93a.5.5 0 0 1 .535.844l-1.915 1.325 1.691-.976a.5.5 0 0 1 .558.827l-3.379 2.655 3.02-1.747a.5.5 0 0 1 .578.809l-2.117 1.843 1.558-.9a.5.5 0 0 1 .643.742l-1.135 1.438.5-.29a.5.5 0 0 1 .728.58l-.223.721a.493.493 0 0 1 .186.185.5.5 0 0 1 -.183.682l-.5.288a.5.5 0 0 1 -.728-.58l.116-.373-1.658.957a.5.5 0 0 1 -.642-.742l1.136-1.439-3.787 2.186a.5.5 0 0 1 -.579-.809l2.121-1.846-4.607 2.659a.5.5 0 0 1 -.559-.826l3.378-2.653-6.036 3.489a.5.5 0 0 1 -.535-.844l1.908-1.324-3.761 2.172a.5.5 0 0 1 -.53-.848l1.718-1.152-3.47 2a.5.5 0 0 1 -.524-.852l.1-.067-1.6.923a.494.494 0 0 1 -.247.071z" fill="#563a32"></path><path d="m44.81 33.428a.5.5 0 0 1 -.393-.81l1.046-1.33-1.652.954a.5.5 0 0 1 -.632-.755l1.75-2.076-2.516 1.452a.5.5 0 1 1 -.5-.865l4.989-2.88a.5.5 0 0 1 .632.755l-1.75 2.076 1.428-.824a.5.5 0 0 1 .642.742l-1.667 2.12a.573.573 0 0 1 .078.1.5.5 0 0 1 -.184.683l-1.021.589a.5.5 0 0 1 -.25.069z" fill="#e1eeff"></path><path d="m38.729 33.43a.5.5 0 0 1 -.308-.894l1.612-1.261-1.86 1.075a.5.5 0 0 1 -.558-.828l.606-.472-.606.349a.5.5 0 0 1 -.62-.768l1.425-1.573-1.627.942a.5.5 0 0 1 -.749-.409l-.05-1.069-.052.029a.5.5 0 0 1 -.5-.865l.764-.442a.5.5 0 0 1 .749.409l.05 1.071 3.678-2.124a.5.5 0 0 1 .62.768l-1.426 1.574 4.059-2.342a.5.5 0 0 1 .557.827l-.6.472 1.839-1.062a.5.5 0 0 1 .557.826l-5.692 4.447a.5.5 0 0 1 -.249.467l-1.365.788a.5.5 0 0 1 -.254.065z" fill="#e1eeff"></path><g fill="#162b4f"><path d="m45.872 32.883a.5.5 0 0 1 -.338-.868l1.517-1.392a.5.5 0 0 1 -.271-.789l.985-1.283a.5.5 0 0 1 .2-.64l.6-.347a.5.5 0 0 1 .647.738l-.113.147.9-.52a.5.5 0 0 1 .588.8l-1.028.944 2.235-1.29a.5.5 0 0 1 .5.865l-6.179 3.567a.49.49 0 0 1 -.243.068z"></path><path d="m41.328 31.455a.5.5 0 0 1 -.25-.934l.833-.48a.5.5 0 1 1 .5.867l-.833.481a.5.5 0 0 1 -.25.066z"></path><path d="m34.761 37.488a.5.5 0 0 1 -.364-.843l1.471-1.552-3.02 1.744a.5.5 0 0 1 -.589-.8l1.814-1.675-1.773 1.023a.5.5 0 0 1 -.568-.82l.418-.343-.236.136a.5.5 0 0 1 -.576-.811l.868-.748-.722.416a.5.5 0 0 1 -.6-.794l1.569-1.5-1.51.871a.5.5 0 0 1 -.706-.637l.489-1.092-.356.205a.5.5 0 1 1 -.5-.866l1.694-.978a.5.5 0 0 1 .706.637l-.489 1.093 3.76-2.171a.5.5 0 0 1 .6.794l-1.572 1.5 1.737-1a.5.5 0 0 1 .576.812l-.866.746.9-.519a.5.5 0 0 1 .567.82l-.422.345.4-.231a.5.5 0 0 1 .589.8l-1.814 1.674 2.11-1.218a.5.5 0 0 1 .613.776l-1.471 1.551 5.835-3.369a.5.5 0 0 1 .563.823l-1.2.964 1.538-.888a.5.5 0 0 1 .589.8l-1.245 1.15 9.493-5.479a.5.5 0 0 1 .55.832l-3.712 2.8 4.7-2.71a.5.5 0 0 1 .575.811l-3.843 3.293 4.68-2.7a.5.5 0 0 1 .6.791l-2.655 2.579 3.026-1.747a.5.5 0 0 1 .629.759l-1.311 1.53 1.2-.694a.5.5 0 0 1 .692.666l-.363.686a.508.508 0 0 1 .5.247.5.5 0 0 1 -.182.682l-1.289.743a.5.5 0 0 1 -.692-.666l.33-.624-2.239 1.293a.5.5 0 0 1 -.629-.759l1.315-1.531-3.97 2.292a.5.5 0 0 1 -.6-.791l2.655-2.579-5.845 3.373a.5.5 0 0 1 -.576-.811l3.836-3.294-7.117 4.109a.5.5 0 0 1 -.551-.832l3.716-2.8-6.3 3.635a.5.5 0 0 1 -.59-.8l1.246-1.15-3.384 1.953a.5.5 0 0 1 -.563-.82l1.2-.962-3.095 1.787a.489.489 0 0 1 -.244.063z"></path></g><path d="m44.482 50.963a.5.5 0 0 1 -.284-.911l8.894-6.144a.5.5 0 0 1 .244-.511l3.034-1.751a.5.5 0 0 1 .534.843l-1.982 1.37 2.978-1.717a.5.5 0 1 1 .5.865l-13.668 7.893a.5.5 0 0 1 -.25.063z" fill="#e7bda0"></path><path d="m37.418 48.47a.5.5 0 0 1 -.25-.933l7.933-4.58a.5.5 0 0 1 .606.783l-1.928 1.965 3.885-2.242a.5.5 0 0 1 .589.8l-1.111 1.025 1.563-.9a.5.5 0 0 1 .665.712l-.916 1.358.34-.2a.5.5 0 1 1 .5.865l-2.212 1.277a.5.5 0 0 1 -.665-.712l.915-1.358-3.587 2.07a.5.5 0 0 1 -.589-.8l1.111-1.024-3.161 1.824a.5.5 0 0 1 -.606-.783l1.928-1.965-4.76 2.748a.5.5 0 0 1 -.25.07z" fill="#e7bda0"></path><path d="m41.254 59.3a.5.5 0 0 1 -.3-.9l5.1-3.788-7.75 4.475a.5.5 0 0 1 -.674-.167.5.5 0 0 1 .143-.68l9.482-6.431-11.204 6.465a.5.5 0 0 1 -.521-.853l5.448-3.506-6.545 3.778a.5.5 0 0 1 -.584-.8l3.083-2.766-4.773 2.755a.5.5 0 0 1 -.565-.82l2.806-2.288-4.175 2.411a.5.5 0 0 1 -.551-.832l2.018-1.523-3.078 1.777a.5.5 0 0 1 -.546-.836l1.788-1.312-2.77 1.6a.5.5 0 0 1 -.528-.848l4.774-3.2-6.019 3.474a.5.5 0 0 1 -.539-.84l7.208-5.1-10.192 5.878a.5.5 0 0 1 -.535-.843l7.105-4.941-8.08 4.661a.5.5 0 0 1 -.525-.85l2.68-1.771-2.155 1.248a.5.5 0 0 1 -.55-.833l6.692-5.005-6.142 3.546a.5.5 0 0 1 -.545-.837l3.586-2.616-3.041 1.755a.5.5 0 0 1 -.6-.789l.746-.737-.145.083a.5.5 0 0 1 -.735-.553l.286-1.16a.5.5 0 0 1 -.051-.891l.5-.289a.5.5 0 0 1 .736.552l-.219.889 2.5-1.441a.5.5 0 0 1 .647.129.5.5 0 0 1 -.045.659l-.748.738 7.769-4.484a.5.5 0 0 1 .545.836l-3.583 2.615 5.339-3.082a.5.5 0 0 1 .55.833l-6.691 5 9.234-5.331a.5.5 0 0 1 .525.849l-2.688 1.776 4.021-2.321a.5.5 0 0 1 .535.843l-7.116 4.949 9.263-5.347a.5.5 0 0 1 .54.841l-7.2 5.1 9.485-5.475a.5.5 0 0 1 .528.847l-6.572 4.41a.5.5 0 0 1 .167.887l-1.791 1.315 2.25-1.3a.5.5 0 0 1 .551.832l-2.019 1.521 2.526-1.458a.5.5 0 0 1 .566.821l-2.807 2.284 3.513-2.028a.5.5 0 0 1 .584.8l-3.086 2.768 20.31-11.728a.5.5 0 0 1 .521.854l-5.445 3.5 5.224-3.012a.5.5 0 0 1 .53.847l-9.475 6.427 3.316-1.916a.5.5 0 0 1 .548.834l-8.653 6.426a.5.5 0 0 1 -.188.676l-3.278 1.894a.493.493 0 0 1 -.246.07z" fill="#e7bda0"></path><path d="m3.212 55.47a.5.5 0 0 1 -.287-.909l7.742-5.437-9.375 5.412a.5.5 0 0 1 -.521-.852l.4-.257a.5.5 0 0 1 -.416-.9l2.277-1.527-1.752 1.016a.5.5 0 0 1 -.551-.831l4.926-3.738-4.375 2.526a.5.5 0 0 1 -.561-.825l2.915-2.317-2.354 1.358a.5.5 0 0 1 -.555-.828l.4-.313a.494.494 0 0 1 -.493-.182.5.5 0 0 1 .033-.655l.945-.983-.335.193a.5.5 0 0 1 -.675-.7l.338-.544a.5.5 0 0 1 -.11-.913l1.161-.67a.5.5 0 0 1 .675.7l-.165.267 1.674-.961a.5.5 0 0 1 .61.779l-.944.981 3.051-1.76a.5.5 0 0 1 .555.828l-.253.2 1.775-1.028a.5.5 0 0 1 .663.151.5.5 0 0 1 -.1.673l-2.916 2.314 5.441-3.14a.5.5 0 0 1 .551.831l-4.928 3.739 7.922-4.568a.5.5 0 0 1 .528.847l-2.28 1.527 4.108-2.374a.5.5 0 0 1 .522.852l-.139.09 1.6-.922a.5.5 0 0 1 .537.842l-7.748 5.438 7.992-4.614a.5.5 0 0 1 .548.834l-6.8 5.035 6.249-3.607a.5.5 0 0 1 .562.823l-4.837 3.872 4.275-2.468a.5.5 0 0 1 .561.824l-2.009 1.601 1.451-.838a.5.5 0 0 1 .632.755l-1.676 1.986 1.044-.6a.5.5 0 0 1 .679.688l-.37.62a.5.5 0 0 1 .138.919l-1.16.67a.5.5 0 0 1 -.68-.688l.229-.383-1.856 1.071a.5.5 0 0 1 -.632-.755l1.676-1.986-4.744 2.741a.5.5 0 0 1 -.561-.823l2.012-1.605-4.213 2.428a.5.5 0 0 1 -.562-.823l4.836-3.871-8.131 4.694a.5.5 0 0 1 -.548-.834l6.8-5.037-10.171 5.871a.5.5 0 0 1 -.25.07z" fill="#56b38f"></path><path d="m41.849 30.562a.5.5 0 0 1 -.367-.84l.871-.939-1.2.69a.5.5 0 0 1 -.6-.789l1.249-1.226-1.635.943a.5.5 0 0 1 -.618-.77l.554-.605-.785.453a.5.5 0 0 1 -.738-.541l.268-1.2a.5.5 0 0 1 -.073-.9l.5-.291a.5.5 0 0 1 .738.541l-.213.959 2.626-1.516a.5.5 0 0 1 .618.771l-.555.6 2.223-1.283a.5.5 0 0 1 .6.789l-1.248 1.225.654-.377a.5.5 0 0 1 .616.772l-2.3 2.474a.5.5 0 0 1 -.23.576l-.704.422a.5.5 0 0 1 -.251.062z" fill="#8f5c4a"></path><path d="m9.7 37.47a.5.5 0 0 1 -.276-.917l.255-.169-1.766 1.016a.5.5 0 0 1 -.543-.838l4.6-3.321-7.206 4.159a.5.5 0 0 1 -.553-.831l5.631-4.28-7.489 4.325a.5.5 0 0 1 -.563-.823l5.17-4.129-4.091 2.361a.5.5 0 0 1 -.587-.8l2.1-1.916a.5.5 0 0 1 -.2-.931l3.383-1.953a.5.5 0 0 1 .587.8l-1.775 1.622 5.832-3.367a.5.5 0 0 1 .562.823l-5.171 4.128 8.578-4.952a.5.5 0 0 1 .552.831l-5.63 4.282 8.856-5.113a.5.5 0 0 1 .543.837l-4.6 3.321 7.2-4.158a.5.5 0 0 1 .527.849l-.265.175 1.5-.862a.5.5 0 0 1 .54.84l-4.014 2.865 5.519-3.187a.5.5 0 0 1 .548.834l-4.33 3.219 5.886-3.4a.5.5 0 0 1 .564.821l-4.612 3.74 5.905-3.409a.5.5 0 0 1 .582.806l-3.726 3.313 4.527-2.613a.5.5 0 0 1 .581.806l-2.012 1.786 2.176-1.26a.5.5 0 0 1 .6.793l-.924.888.754-.434a.5.5 0 0 1 .709.63l-.474 1.1a.5.5 0 0 1 .486.874l-1.289.743a.5.5 0 0 1 -.708-.63l.473-1.1-3 1.734a.5.5 0 0 1 -.6-.793l.922-.887-2.916 1.682a.5.5 0 0 1 -.581-.806l2.013-1.783-4.486 2.589a.5.5 0 0 1 -.582-.806l3.725-3.312-7.134 4.118a.5.5 0 0 1 -.564-.821l4.612-3.74-7.901 4.561a.5.5 0 0 1 -.548-.834l4.333-3.219-7.022 4.053a.5.5 0 0 1 -.54-.839l4.015-2.861-6.419 3.7a.5.5 0 0 1 -.249.07z" fill="#49508e"></path><path d="m20.32 33.06a.5.5 0 0 1 -.369-.837l1.7-1.859-2.359 1.362a.5.5 0 0 1 -.586-.8l.678-.617-.966.557a.5.5 0 1 1 -.5-.865l4.989-2.88a.5.5 0 0 1 .586.8l-.676.615 1.125-.649a.5.5 0 0 1 .62.769l-2.021 2.215a.5.5 0 0 1 .121.916l-2.087 1.2a.49.49 0 0 1 -.255.073z" fill="#e1eeff"></path><path d="m14.649 33.4a.5.5 0 0 1 -.343-.863l3.113-2.944-3.635 2.1a.5.5 0 0 1 -.614-.776l1.644-1.745-1.875 1.082a.5.5 0 0 1 -.747-.379l-.15-1.379-.1.058a.5.5 0 0 1 -.5-.865l.764-.442a.491.491 0 0 1 .476-.013.5.5 0 0 1 .271.392l.147 1.374 4.161-2.4a.5.5 0 0 1 .614.775l-1.646 1.746 4.371-2.521a.5.5 0 0 1 .593.8l-4.508 4.26c.009.015.019.029.028.045a.5.5 0 0 1 -.183.683l-1.631.941a.489.489 0 0 1 -.25.071z" fill="#e1eeff"></path><path d="m17.849 30.562a.5.5 0 0 1 -.35-.858l.171-.168-.3.171a.5.5 0 0 1 -.63-.757l1.8-2.113-2.491 1.437a.5.5 0 0 1 -.64-.746l.641-.8-.777.448a.5.5 0 0 1 -.73-.57l.255-.894a.5.5 0 0 1 -.025-.879l.5-.291a.5.5 0 0 1 .731.569l-.165.582 2.016-1.164a.5.5 0 0 1 .64.746l-.641.8 2.7-1.556a.5.5 0 0 1 .63.756l-1.8 2.113 1.205-.7a.5.5 0 0 1 .6.79l-2.134 2.09a.5.5 0 0 1 -.244.508l-.711.424a.5.5 0 0 1 -.251.062z" fill="#d7aa91"></path><path d="m8.086 16.5a.5.5 0 0 1 -.279-.915l5.336-3.594-4.863 2.809a.5.5 0 0 1 -.529-.848l4.314-2.9-3.785 2.179a.5.5 0 0 1 -.531-.845l4.011-2.732-3.48 2.009a.5.5 0 0 1 -.549-.834l6.147-4.571-5.378 3.101a.5.5 0 0 1 -.55-.829l4.189-3.21-2.78 1.6a.5.5 0 0 1 -.572-.816l2.313-1.938a.5.5 0 0 1 -.109-.912l3.828-2.21a.5.5 0 0 1 .573.815l-1.63 1.372 4.521-2.612a.5.5 0 0 1 .554.829l-4.188 3.209 6.185-3.57a.5.5 0 0 1 .549.834l-6.147 4.572 7.694-4.441a.5.5 0 0 1 .531.845l-4.007 2.729 4.686-2.705a.5.5 0 0 1 .529.848l-4.32 2.908 4.805-2.777a.5.5 0 0 1 .53.848l-5.328 3.59 5.691-3.285a.5.5 0 0 1 .539.841l-6.046 4.283 6.321-3.65a.5.5 0 0 1 .538.841l-3.841 2.713 3.792-2.188a.5.5 0 0 1 .531.845l-.231.162a.5.5 0 0 1 .472.874l-.291.2a.507.507 0 0 1 .517.185.5.5 0 0 1 -.053.661l-2.784 2.685 2.219-1.28a.5.5 0 0 1 .666.711l-1.025 1.53.371-.214a.5.5 0 1 1 .5.865l-2.232 1.289a.5.5 0 0 1 -.665-.711l1.024-1.531-3.892 2.247a.5.5 0 0 1 -.6-.793l2.782-2.683-6.029 3.482a.5.5 0 0 1 -.537-.842l.1-.07-1.585.915a.5.5 0 0 1 -.531-.846l.181-.124-1.685.973a.5.5 0 0 1 -.538-.841l3.839-2.711-6.161 3.557a.5.5 0 0 1 -.539-.841l6.044-4.281-8.882 5.127a.494.494 0 0 1 -.25.067z" fill="#704e43"></path><path d="m17.664 26.446a.5.5 0 0 1 -.321-.883l3.781-3.163-5.487 3.168a.5.5 0 0 1 -.546-.836l5.169-3.788-6.288 3.63a.5.5 0 0 1 -.546-.835l6.036-4.439-7.076 4.08a.5.5 0 0 1 -.532-.845l2.963-2.03-3.377 1.949a.5.5 0 0 1 -.536-.843l4.425-3.09-4.551 2.626a.5.5 0 0 1 -.55-.832l6-4.518-5.875 3.391a.5.5 0 0 1 -.536-.842l1.831-1.277-2.09 1.207a.5.5 0 0 1 -.558-.822l4.961-3.976-5.656 3.263a.5.5 0 0 1 -.613-.777l2.828-2.964a.5.5 0 0 1 -.089-.906l2.177-1.257a.5.5 0 0 1 .613.777l-2.41 2.531 8.33-4.809a.5.5 0 0 1 .562.823l-4.958 3.974 6.579-3.8a.5.5 0 0 1 .536.843l-1.834 1.278 2.826-1.631a.5.5 0 0 1 .55.832l-6 4.518 7.476-4.316a.5.5 0 0 1 .536.843l-4.422 3.089 4.591-2.65a.5.5 0 0 1 .532.844l-2.965 2.032 3.646-2.105a.5.5 0 0 1 .546.835l-6.042 4.438 6.41-3.7a.5.5 0 0 1 .546.836l-5.164 3.781 2.5-1.445a.5.5 0 0 1 .571.816l-3.781 3.169 2.407-1.39a.5.5 0 1 1 .5.865l-7.377 4.26a.491.491 0 0 1 -.248.071z" fill="#e7bda0"></path><path d="m41.828 26.458a.5.5 0 0 1 -.326-.879l3.987-3.433-5.886 3.4a.5.5 0 0 1 -.54-.841l3.9-2.764-4.789 2.759a.5.5 0 0 1 -.537-.842l4.311-3.026-5.084 2.936a.5.5 0 0 1 -.545-.837l5.656-4.122-6.463 3.731a.5.5 0 0 1 -.541-.839l5.558-3.987-5.78 3.337a.5.5 0 0 1 -.538-.842l4.007-2.82-3.8 2.2a.5.5 0 0 1 -.545-.837l3.878-2.826-4.127 2.374a.5.5 0 0 1 -.536-.843l1.462-1.022-1.92 1.108a.5.5 0 0 1 -.551-.832l3.83-2.889-3.542 2.044a.5.5 0 0 1 -.58-.807l2.513-2.21a.463.463 0 0 1 -.054-.077.5.5 0 0 1 .183-.682l2.177-1.257a.5.5 0 0 1 .58.808l-.959.845 6.228-3.6a.5.5 0 0 1 .551.832l-3.826 2.886 4.859-2.8a.5.5 0 0 1 .536.842l-1.46 1.022 2.275-1.314a.5.5 0 0 1 .545.837l-3.878 2.827 5.3-3.06a.5.5 0 0 1 .538.842l-4.005 2.82 4.91-2.837a.5.5 0 0 1 .541.839l-5.554 3.984 5.826-3.364a.5.5 0 0 1 .545.837l-5.652 4.121 6.745-3.894a.5.5 0 0 1 .537.841l-4.319 3.032 4.238-2.447a.5.5 0 0 1 .539.841l-3.9 2.765 1.251-.722a.5.5 0 0 1 .576.812l-3.988 3.433 2.5-1.443a.5.5 0 1 1 .5.865l-7.111 4.106a.491.491 0 0 1 -.246.069z" fill="#a6725c"></path><path d="m.271 53.032c-.045 1.19.116 2.273 1.464 2.44 5.335-.829 16.037 1.761 19.838-1.13 8-.778 16.41 9.177 23.665 2.569 4.5-4.423 11.333-7.412 14.483-12.773-1.339-5.641-7.266.045-9.79 1.825-.569-4.835-13.822-3.588-17.963-5.223-4.033-.881-6.249 3.774-10.284 2.907-2.015-2.6-15.256-.586-19.372-1.121-4.063.911-1.261 7.404-2.041 10.506zm41.886-1.507c-1.125-1.158-2.547-2.065-3.738-3.164 2.741-.008 5.487.012 8.227 0-1.51 1.082-2.995 2.212-4.511 3.278.033-.039.053-.079.022-.114zm-17.319-7.369c1.477-.41 2.437-1.517 3.711-2.276 5.451-1.141 11.313 1.556 16.884 1.92 2.278-.322 4.611 2.7 1.854 3.841-3.2.031-6.456-.022-9.678 0-4.606-1.087-8.708 1.318-.963.9 2.112 1.358 4.319 5.3 7.015 2.975 4-2.9 7.986-5.844 11.993-8.738 9.324-.271-8.994 11.322-10.619 13.222-6.785 6.964-15.335-3.881-23.311-2.365.028-3.09-.03-6.16.027-9.252a10.583 10.583 0 0 0 3.087-.227zm-23-.684c20.019 1.207 18.755-5.227 18.424 11.055-20.085-1.169-19.089 5.106-18.424-11.055z" fill="#262626"></path><path d="m14.256 26.8c-5.056.749-15.143 3.835-12.237 10.385 9.641.618 19.527.016 29.248.22 4.192-1.216 28.546 2.433 27.335-2.4-.978-6.335-7.787-6.964-12.864-8.254-.015-.6 0-1.2-.007-1.8 2.656-1.452 4.966-3.6 4.965-6.807 4.618-2.566 1.79-13.644-2.666-15.835-9.461-5.609-19.067 4.049-16.753 13.885a2.229 2.229 0 0 0 2.009 2.092c-.076 3.287 2.266 5.478 4.983 6.94 0 .488.011.967-.009 1.457-2.723.794-5.606 1.16-8.2 2.321-2.656-1.133-5.553-1.538-8.319-2.319-.011-.559 0-1.116 0-1.675 2.653-1.459 4.937-3.617 4.961-6.812 4.547-2.47 1.833-13.369-2.341-15.713-9.433-6.219-19.461 3.56-17.084 13.604a2.278 2.278 0 0 0 2.013 2.229c-.063 3.289 2.264 5.443 4.977 6.934-.002.521.007 1.025-.011 1.548zm2.321 2.957.611.666-2.067 2.077c-.98-1.419-1.763-3-2.677-4.474l2.062-.522c.668.769 1.382 1.504 2.071 2.255zm3.89-1.31.813-.887c.76.176 1.556.343 2.361.52-.858 1.435-1.661 2.89-2.546 4.309-.751-.727-1.473-1.477-2.215-2.213zm24.66 4.01-2.272-2.28q1.226-1.336 2.45-2.672l2.386.589c-.849 1.461-1.713 2.906-2.564 4.365zm-7.844-29.957c7.458-4.41 15.457 3.625 14 11.358a2.8 2.8 0 0 0 -.592-.143c-.633-3.153-4.391-2.715-6.573-4.21-.781-.451-1.261-.951-2.211-.781-2.681 1.9-7.238 1.749-8.516 5.111a3.953 3.953 0 0 0 -.666.252c-.319-4.36.475-9.174 4.558-11.587zm-2.558 15.31c-1.725-.035-2.962-2.743-1.03-3.481.255-.017.92-.128 1.022-.441.717-3.044 4.98-2.9 7.176-4.437 2.181 2.035 6.643 1.354 7.383 4.748 1.73.068 2.933 2.7 1.029 3.481-2.162.287-.112 4.485-5 6.785-.349-.054-1.034.137-1.036.585a4.11 4.11 0 0 1 -4.589-.35c-2.68-1.376-5.107-3.592-4.955-6.891zm8.355 8.284a10.744 10.744 0 0 0 1.189-.423v1.287l-2.179 2.375-2.359-2.571v-.874a5.425 5.425 0 0 0 3.349.205zm-4.48 1.511c.833.941 1.708 1.847 2.551 2.778l-2.063 2.072c-.937-1.384-1.7-2.893-2.579-4.321zm-4.781 1.21 1.223-.309c2.029 3.438 3.194 7.423 6.849 2.607 3.554 4.826 5 .617 6.949-2.721 4.1.575 8.09 3.125 8.394 7.6.071.78.134.6-.344.706-7.478.054-15.04-.036-22.548 0 1.276-2.427-1.248-5.755-3.229-7.092a20.349 20.349 0 0 1 2.709-.791zm-1.119 4.974c.2.523.961 2.48.3 2.807-7.032.015-14.168-.011-21.236 0-2.292-.513-7.928 1.182-8.992-.911.038-4.412 4.362-6.739 8.218-7.29 2.01 3.376 3.2 7.507 6.859 2.693 3.7 5.008 5.008.762 7.068-2.713 3.302.811 6.519 2.055 7.783 5.414zm-19.514-31.068c7.564-4.538 15.44 3.312 14.1 11.131a3.087 3.087 0 0 0 -.61-.173c-.618-3.068-4.225-2.719-6.394-4.1-.826-.446-1.393-1.087-2.4-.914-2.674 1.882-7.227 1.757-8.492 5.117a3.955 3.955 0 0 0 -.674.253c-.294-4.259.484-8.962 4.47-11.314zm-2.461 15.088c-.011-.171-.33-.176-.434-.183-1.612-.011-2.228-2.828-.582-3.245.3-.021.895-.121 1.013-.478.384-2.591 3.308-2.392 5.164-3.392.554-.253 1.553-1.073 2.063-.964 2.2 1.945 6.582 1.31 7.327 4.651 1.716.149 2.972 2.628 1.015 3.429-2.182.317-.018 4.5-5.048 6.81-.33-.051-.885.145-.961.528a4.105 4.105 0 0 1 -4.607-.291c-2.691-1.352-5.093-3.585-4.95-6.865zm8.275 8.374a10.619 10.619 0 0 0 1.271-.447v1.2l-2.191 2.381-2.346-2.558v-.814a5.291 5.291 0 0 0 3.266.238z" fill="#262626"></path></svg>