<!-- icon666.com - MILLIONS OF FREE VECTOR ICONS --><svg id="Capa_1" enable-background="new 0 0 512 512" viewBox="0 0 512 512" xmlns="http://www.w3.org/2000/svg"><g><g fill="#cecde7"><path d="m296.081 470.829-5.471-29.497c42.026-7.795 80.586-30.073 108.576-62.73l22.778 19.523c-32.435 37.844-77.141 63.664-125.883 72.704z"></path><path d="m462.089 328.703-28.281-10.011c14.263-40.293 14.249-84.826-.038-125.395l28.297-9.965c16.555 47.012 16.563 98.639.022 145.371z"></path><path d="m399.196 133.36c-27.763-32.498-66.336-54.752-108.613-62.664l5.52-29.488c48.99 9.169 93.704 34.975 125.903 72.666z"></path></g><path d="m112.814 133.398-22.778-19.523c32.436-37.843 77.142-63.663 125.883-72.704l5.471 29.497c-42.026 7.795-80.586 30.073-108.576 62.73z" fill="#ece4f2"></path><path d="m49.934 328.667c-16.555-47.012-16.563-98.639-.022-145.37l28.28 10.011c-14.262 40.292-14.248 84.825.039 125.394z" fill="#ece4f2"></path><path d="m215.898 470.792c-48.99-9.168-93.704-34.975-125.905-72.666l22.81-19.487c27.764 32.498 66.337 54.752 108.614 62.665z" fill="#ece4f2"></path><path d="m458.486 312.283c-25.07-14.472-57.243-5.854-71.717 19.217s-5.853 57.242 19.217 71.716c8.248 4.762 17.26 7.024 26.161 7.023 18.157-.001 35.842-9.417 45.555-26.24 14.475-25.069 5.855-57.241-19.216-71.716z" fill="#2a266a"></path><path d="m432.324 206.739c8.9 0 17.916-2.262 26.162-7.022 25.07-14.475 33.69-46.646 19.216-71.716-14.473-25.069-46.643-33.69-71.716-19.216-25.069 14.474-33.69 46.645-19.217 71.716 9.713 16.823 27.397 26.238 45.555 26.238z" fill="#f9006a"></path><path d="m246 246 10 125.811 100.295-57.906v-115.81z" fill="#ffb800"></path><path d="m155.705 198.095v115.81l100.295 57.906v-125.811z" fill="#ffdc00"></path><path d="m106.014 108.784c-12.145-7.012-26.292-8.874-39.838-5.245s-24.867 12.316-31.878 24.461c-14.475 25.07-5.854 57.242 19.216 71.717 8.248 4.761 17.26 7.023 26.162 7.023 18.157 0 35.842-9.417 45.555-26.24 7.012-12.145 8.875-26.292 5.245-39.838-3.631-13.545-12.318-24.867-24.462-31.878z" fill="#4d3d83"></path><path d="m53.514 312.283c-25.071 14.475-33.691 46.647-19.217 71.717 7.012 12.145 18.333 20.832 31.878 24.461 4.523 1.212 9.113 1.812 13.673 1.812 9.097 0 18.075-2.386 26.165-7.056 12.145-7.012 20.832-18.333 24.461-31.878s1.767-27.693-5.245-39.838c-14.474-25.071-46.645-33.689-71.715-19.218z" fill="#00cfcd"></path><path d="m308.5 52.5c0-28.949-23.552-52.5-52.5-52.5l-10 52.5 10 52.5c28.948 0 52.5-23.551 52.5-52.5z" fill="#009cb5"></path><path d="m256 140.189-10 57.906 10 57.905 100.295-57.906z" fill="#ffdc00"></path><path d="m155.705 198.094 100.295 57.906v-115.811z" fill="#ffee8b"></path><path d="m256 407-10 52.5 10 52.5c28.948 0 52.5-23.551 52.5-52.5s-23.552-52.5-52.5-52.5z" fill="#f9006a"></path><path d="m203.5 459.5c0 28.949 23.551 52.5 52.5 52.5v-105c-28.949 0-52.5 23.551-52.5 52.5z" fill="#ff5860"></path><path d="m203.5 52.5c0 28.949 23.551 52.5 52.5 52.5v-105c-28.949 0-52.5 23.551-52.5 52.5z" fill="#00cfcd"></path></g></svg>