<!-- icon666.com - MILLIONS OF FREE VECTOR ICONS --><svg version="1.1" id="Layer_1" xmlns="http://www.w3.org/2000/svg" xmlns:xlink="http://www.w3.org/1999/xlink" x="0px" y="0px" viewBox="0 0 512 512" style="enable-background:new 0 0 512 512;" xml:space="preserve"><path style="fill:#91C0F1;" d="M170.885,489.954l-26.884-268.742c-0.787-7.865-7.405-13.855-15.309-13.855H62.837 c-7.904,0-14.522,5.989-15.309,13.855L20.643,489.954c-0.433,4.326,0.984,8.633,3.901,11.855c2.917,3.223,7.061,5.062,11.408,5.062 h119.623c4.347,0,8.491-1.839,11.408-5.062C169.901,498.587,171.317,494.28,170.885,489.954z"></path><path style="fill:#D7EDF3;" d="M95.986,207.357h-33.15c-7.904,0-14.522,5.989-15.309,13.855L20.643,489.954 c-0.433,4.326,0.984,8.633,3.901,11.855c2.917,3.223,7.061,5.062,11.408,5.062h60.033V207.357H95.986z"></path><path style="fill:#2A5637;" d="M95.986,440.199c-8.497,0-15.386,6.889-15.386,15.386v31.798c0,8.497,6.889,15.386,15.386,15.386 s15.386-6.889,15.386-15.386v-31.798C111.372,447.088,104.483,440.199,95.986,440.199z"></path><path style="fill:#4E7F4B;" d="M95.986,440.199c-8.497,0-15.386,6.889-15.386,15.386v31.798c0,8.497,6.889,15.386,15.386,15.386 V440.199z"></path><path style="fill:#E56C1E;" d="M124.666,496.614c0,0-7.446-105.31,87.18-178.768c4.451-3.455,10.712-3.319,14.954,0.388 c9.063,7.919,25.424,20.975,35.628,29.035c4.873,3.85,5.887,10.815,2.352,15.92c-12.895,18.621-39.705,65.858-36.812,133.424 H127.347"></path><path style="fill:#F2BA57;" d="M124.666,496.614c0,0-7.446-105.31,87.18-178.768c1.776-1.379,3.84-2.186,5.949-2.422l0.034,181.191 h-90.483"></path><path style="fill:#489B6D;" d="M207.186,496.614c0,0-7.469-105.309,87.155-178.768c4.451-3.456,10.713-3.319,14.956,0.389 c9.061,7.919,25.416,20.972,35.616,29.033c4.872,3.851,5.886,10.815,2.35,15.92c-12.898,18.621-39.716,65.858-36.823,133.425 H209.915"></path><path style="fill:#A2CE86;" d="M207.186,496.614c0,0-7.469-105.309,87.155-178.768c1.805-1.401,3.908-2.213,6.054-2.433 l-0.288,181.201h-90.192"></path><path style="fill:#F5CA47;" d="M466.271,387.38c-16.643-30.605-40.493-56.209-68.973-74.045c-4.995-3.127-11.336-3.127-16.332,0 c-2.485,1.556-5.792,3.695-9.345,6.446c-22.26,17.235-40.758,39.867-53.661,65.565c-32.404,57.497-28.696,111.268-28.696,111.268 h2.334c0,0,200.783,3.382,200.783-5.115C492.381,454.793,483.352,418.793,466.271,387.38z"></path><path style="fill:#F7F4A3;" d="M389.346,310.99c-3.077,0-5.775,0.782-8.273,2.346c-2.485,1.556-5.847,3.695-9.399,6.446 c-22.26,17.235-40.784,39.867-53.688,65.565c-32.404,57.497-28.723,111.268-28.723,111.268h100.082V310.99z"></path><path style="fill:#91C0F1;" d="M480.857,481.228H31.143c-8.497,0-15.386,6.889-15.386,15.386c0,8.497,6.889,15.386,15.386,15.386 h449.713c8.497,0,15.386-6.889,15.386-15.386C496.243,488.117,489.354,481.228,480.857,481.228z"></path><path style="fill:#D7EDF3;" d="M250.872,481.228H31.143c-8.497,0-15.386,6.889-15.386,15.386c0,8.497,6.889,15.386,15.386,15.386 h219.727v-30.772H250.872z"></path><path style="fill:#A2CE86;" d="M238.927,235.261c42.782-13.052,77.074-44.461,89.49-81.971c2.049-6.194-0.029-13.005-5.186-17.001 c-31.24-24.192-77.223-31.113-120.007-18.06c-42.783,13.051-77.074,44.461-89.49,81.971c-0.526,1.59-0.781,3.22-0.781,4.832 c0,4.672,2.132,9.198,5.967,12.167C150.159,241.393,196.144,248.314,238.927,235.261z"></path><path style="fill:#489B6D;" d="M118.921,217.201c31.24,24.192,77.223,31.113,120.008,18.06 c42.782-13.052,77.074-44.461,89.49-81.971c1.046-3.163,1.01-6.486,0.044-9.513c-29.62,9.176-129.937,40.226-214.695,66.156 C114.712,212.747,116.461,215.297,118.921,217.201z"></path><path style="fill:#F7F4A3;" d="M197.607,124.809c11.498-43.226,2.921-88.93-22.383-119.276c-4.179-5.011-11.061-6.841-17.177-4.569 C121.01,14.727,90.86,50.13,79.361,93.356s-2.922,88.931,22.383,119.276c1.073,1.286,2.323,2.362,3.693,3.214 c3.968,2.466,8.938,3.044,13.484,1.355C155.958,203.439,186.108,168.036,197.607,124.809z"></path><path style="fill:#F5CA47;" d="M118.921,217.201c37.037-13.762,67.188-49.165,78.686-92.393 c11.498-43.226,2.921-88.93-22.383-119.276c-2.134-2.558-4.975-4.281-8.056-5.059c-7.842,30.001-34.424,131.593-57.142,217.268 C112.916,218.425,116.003,218.285,118.921,217.201z"></path></svg>