<!-- icon666.com - MILLIONS OF FREE VECTOR ICONS --><svg version="1.1" id="Layer_1" xmlns="http://www.w3.org/2000/svg" xmlns:xlink="http://www.w3.org/1999/xlink" x="0px" y="0px" viewBox="0 0 512.001 512.001" style="enable-background:new 0 0 512.001 512.001;" xml:space="preserve"><path style="fill:#E6E9ED;" d="M380.067,0h-40.826l17.111,33.404h20.375v216.927h33.404V102.783V76.061V30.063 C410.13,13.486,396.643,0,380.067,0z"></path><path style="fill:#CCD4DD;" d="M393.244,234.742V36.27c-0.076-0.778-0.082-1.817,0-3.168V29.99 c-0.669-10.499-8.491-12.003-11.702-12.176h-8.673h-24.501l7.985,15.588h20.375V250.33h33.404v-15.588h-16.888V234.742z"></path><path style="fill:#97D3EE;" d="M212.59,125.82L212.59,125.82c-5.552-10.685-12.983-14.409-18.739-15.554h-80.329v140.065h191.07 L212.59,125.82z"></path><path style="fill:#F7A539;" d="M113.522,250.331V110.266H96.835c-30.549,0-34.532,21.932-34.763,23.389 c-0.002,0.02-0.006,0.039-0.009,0.059l-0.002,0.022c-4.898,31.829-13.61,87.987-18.473,116.596h69.935V250.331z"></path><rect x="113.52" y="110.266" style="fill:#49B5CE;" width="22.802" height="140.062"></rect><path style="fill:#F48F2A;" d="M83.995,133.714c0.003-0.02,0.007-0.039,0.009-0.059c0.217-1.368,3.751-20.811,29.518-23.155v-0.234 H96.835c-30.549,0-34.532,21.932-34.763,23.389c-0.002,0.02-0.006,0.039-0.009,0.059l-0.002,0.022 c-4.898,31.829-13.61,87.987-18.473,116.596H65.52c4.864-28.608,13.574-84.766,18.473-116.596L83.995,133.714z"></path><path style="fill:#5B5E5E;" d="M148.88,182.087c0-9.764-7.914-17.678-17.679-17.678c-9.765,0-17.678,7.914-17.678,17.678v68.244 h35.358V182.087z"></path><path style="fill:#464949;" d="M142.602,168.587c-3.08-2.603-7.055-4.179-11.402-4.179c-9.765,0-17.678,7.914-17.678,17.678v68.244 h22.802v-68.244C136.324,176.671,138.766,171.83,142.602,168.587z"></path><path style="fill:#F7A539;" d="M39.289,394.58V278.644H14.588c-7.801,0-14.123,6.323-14.123,14.123v105.476 c0,7.801,6.323,14.124,14.123,14.124h26.057C39.754,406.568,39.289,400.629,39.289,394.58z"></path><path style="fill:#E6E9ED;" d="M457.999,217.47h-47.868v32.861h61.229v-19.5C471.36,223.452,465.378,217.47,457.999,217.47z"></path><rect x="410.134" y="217.469" style="fill:#CCD4DD;" width="22.571" height="32.861"></rect><rect x="376.73" y="159.57" style="fill:#5B5E5E;" width="33.404" height="90.758"></rect><rect x="376.73" y="159.57" style="fill:#464949;" width="16.702" height="90.758"></rect><path style="fill:#6E7070;" d="M504.292,286.504v-9.038c0-15.602-12.646-28.247-28.247-28.247h-29.426h-110.64H43.587 c-1.728,10.166-2.972,16.859-3.383,17.738c-1.305,3.25-2.029,6.794-2.029,10.509v117.116c0-64.031,51.906-115.937,115.937-115.937 s115.937,51.906,115.937,115.937c0,17.911-4.064,34.873-11.317,50.016h137.431c3.878-28.25,28.096-50.016,57.411-50.016 c21.249,0,39.816,11.439,49.907,28.487c0.527-2.155,0.812-4.401,0.812-6.717V315.454"></path><path style="fill:#5B5E5E;" d="M59.703,277.465c0-3.716,0.724-7.26,2.029-10.509c0.411-0.88,1.655-7.573,3.383-17.738H43.587 c-1.728,10.166-2.972,16.859-3.383,17.738c-1.305,3.25-2.029,6.794-2.029,10.509V394.58c0-25.096,7.976-48.327,21.528-67.303 C59.703,327.277,59.703,277.465,59.703,277.465z"></path><path style="fill:#F48F2A;" d="M504.292,277.465c0-15.602-12.646-28.247-28.247-28.247H335.978v195.379h60.184 c3.878-28.25,28.096-50.016,57.411-50.016c21.249,0,39.816,11.439,49.907,28.487c0.527-2.155,0.812-4.401,0.812-6.717"></path><path style="fill:#F7A539;" d="M476.045,249.217h-65.93c15.602,0,28.247,12.646,28.247,28.247v119.144 c4.848-1.316,9.945-2.029,15.211-2.029c21.249,0,39.816,11.439,49.907,28.487c0.527-2.155,0.812-4.401,0.812-6.717V277.465 C504.292,261.864,491.647,249.217,476.045,249.217z"></path><circle style="fill:#5B5E5E;" cx="154.116" cy="394.576" r="117.425"></circle><path style="fill:#F7A539;" d="M208.206,415.534c0.157-0.406,0.321-0.811,0.469-1.223c0.174-0.478,0.331-0.964,0.491-1.45 c0.135-0.405,0.275-0.807,0.401-1.216c0.154-0.499,0.288-1.007,0.43-1.511c0.112-0.404,0.233-0.806,0.337-1.215 c0.131-0.518,0.243-1.043,0.361-1.566c0.09-0.404,0.19-0.804,0.273-1.211c0.109-0.543,0.197-1.092,0.292-1.64 c0.069-0.396,0.147-0.788,0.207-1.186c0.087-0.578,0.153-1.162,0.222-1.746c0.047-0.376,0.102-0.748,0.141-1.127 c0.063-0.654,0.106-1.313,0.15-1.972c0.02-0.314,0.055-0.625,0.069-0.941c0.049-0.978,0.075-1.962,0.075-2.953 c0-3.003-0.228-5.954-0.668-8.834c-4.255-27.846-28.307-49.177-57.343-49.177s-53.089,21.331-57.343,49.177 c-0.441,2.881-0.668,5.831-0.668,8.834c0,0.99,0.026,1.974,0.075,2.953c0.017,0.321,0.049,0.636,0.07,0.955 c0.043,0.654,0.084,1.308,0.148,1.957c0.039,0.383,0.095,0.759,0.141,1.141c0.07,0.578,0.135,1.159,0.222,1.733 c0.06,0.397,0.138,0.789,0.206,1.186c0.095,0.548,0.184,1.097,0.293,1.64c0.082,0.408,0.183,0.807,0.273,1.211 c0.118,0.523,0.229,1.049,0.361,1.566c0.104,0.411,0.226,0.814,0.34,1.22c0.139,0.502,0.273,1.007,0.428,1.503 c0.126,0.412,0.266,0.815,0.403,1.221c0.159,0.483,0.316,0.969,0.489,1.446c0.148,0.412,0.312,0.816,0.469,1.223 c0.148,0.381,0.284,0.766,0.44,1.142l0.023,0.032c3.716,8.996,9.625,16.85,17.066,22.899l0.02,0.027 c0.48,0.39,0.973,0.766,1.465,1.141c0.139,0.106,0.272,0.217,0.412,0.321c0.691,0.517,1.396,1.015,2.111,1.502 c0.237,0.16,0.48,0.312,0.72,0.469c0.491,0.324,0.984,0.646,1.486,0.954c0.293,0.18,0.59,0.352,0.885,0.527 c0.462,0.273,0.928,0.543,1.397,0.804c0.314,0.174,0.63,0.344,0.949,0.512c0.467,0.248,0.939,0.488,1.413,0.724 c0.322,0.158,0.642,0.317,0.966,0.47c0.497,0.235,0.998,0.46,1.501,0.679c0.308,0.135,0.612,0.272,0.923,0.401 c0.585,0.245,1.176,0.473,1.77,0.698c0.236,0.09,0.468,0.186,0.705,0.273c0.832,0.302,1.67,0.587,2.52,0.851 c0.192,0.061,0.389,0.111,0.582,0.169c0.661,0.199,1.327,0.392,1.999,0.567c0.313,0.082,0.631,0.155,0.948,0.233 c0.56,0.137,1.123,0.269,1.69,0.39c0.35,0.073,0.7,0.141,1.052,0.209c0.547,0.105,1.095,0.204,1.646,0.294 c0.36,0.058,0.72,0.115,1.082,0.166c0.561,0.08,1.127,0.15,1.692,0.216c0.352,0.04,0.701,0.081,1.054,0.116 c0.62,0.058,1.244,0.102,1.868,0.143c0.302,0.019,0.601,0.046,0.903,0.059c0.93,0.045,1.864,0.07,2.803,0.07 c0.94,0,1.873-0.027,2.803-0.07c0.302-0.014,0.601-0.041,0.903-0.059c0.626-0.04,1.249-0.084,1.868-0.143 c0.352-0.035,0.703-0.076,1.054-0.116c0.566-0.065,1.131-0.136,1.692-0.216c0.362-0.052,0.722-0.108,1.081-0.166 c0.551-0.09,1.1-0.189,1.647-0.294c0.353-0.068,0.703-0.136,1.052-0.209c0.567-0.12,1.13-0.253,1.69-0.39 c0.316-0.077,0.635-0.149,0.948-0.233c0.671-0.175,1.337-0.367,1.999-0.567c0.194-0.058,0.391-0.109,0.582-0.169 c0.85-0.264,1.688-0.55,2.52-0.851c0.237-0.087,0.469-0.183,0.705-0.273c0.595-0.225,1.186-0.454,1.772-0.698 c0.311-0.129,0.615-0.266,0.923-0.401c0.503-0.22,1.004-0.445,1.501-0.679c0.325-0.153,0.646-0.312,0.966-0.47 c0.474-0.236,0.946-0.475,1.414-0.725c0.317-0.167,0.634-0.337,0.946-0.511c0.471-0.261,0.938-0.531,1.401-0.804 c0.295-0.175,0.59-0.347,0.883-0.527c0.502-0.308,0.995-0.63,1.486-0.954c0.241-0.157,0.483-0.308,0.72-0.469 c0.715-0.487,1.42-0.985,2.111-1.502c0.14-0.104,0.273-0.215,0.412-0.321c0.492-0.374,0.985-0.752,1.465-1.141l0.02-0.027 c7.44-6.049,13.349-13.904,17.066-22.899l0.023-0.032C207.922,416.301,208.058,415.915,208.206,415.534z"></path><g><path style="fill:#F48F2A;" d="M22.398,398.242V292.767c0-7.801,6.323-14.123,14.124-14.123H14.588 c-7.801,0-14.123,6.323-14.123,14.123v105.476c0,7.801,6.323,14.124,14.123,14.124h21.933 C28.721,412.367,22.398,406.043,22.398,398.242z"></path><path style="fill:#F48F2A;" d="M164.224,451.319c-0.568-0.12-1.13-0.253-1.691-0.39c-0.315-0.077-0.632-0.149-0.946-0.233 c-0.671-0.175-1.337-0.367-1.999-0.567c-0.194-0.058-0.39-0.109-0.583-0.169c-0.848-0.264-1.687-0.55-2.519-0.851 c-0.237-0.087-0.469-0.183-0.705-0.273c-0.593-0.225-1.186-0.454-1.77-0.698c-0.31-0.129-0.616-0.266-0.923-0.401 c-0.503-0.22-1.005-0.445-1.501-0.679c-0.324-0.153-0.646-0.312-0.966-0.47c-0.474-0.236-0.946-0.475-1.414-0.724 c-0.317-0.168-0.634-0.339-0.948-0.512c-0.471-0.261-0.936-0.531-1.398-0.804c-0.295-0.174-0.592-0.346-0.883-0.527 c-0.502-0.308-0.995-0.63-1.488-0.954c-0.239-0.157-0.483-0.308-0.72-0.469c-0.715-0.487-1.42-0.985-2.111-1.502 c-0.139-0.104-0.273-0.215-0.412-0.321c-0.493-0.374-0.985-0.752-1.465-1.141l-0.019-0.027 c-7.441-6.049-13.349-13.904-17.066-22.899l-0.024-0.032c-0.155-0.375-0.292-0.76-0.439-1.142 c-0.158-0.406-0.322-0.811-0.471-1.223c-0.171-0.477-0.328-0.962-0.489-1.446c-0.135-0.406-0.276-0.809-0.403-1.221 c-0.151-0.497-0.286-1.001-0.428-1.503c-0.112-0.406-0.234-0.809-0.337-1.22c-0.133-0.518-0.245-1.043-0.362-1.566 c-0.09-0.404-0.19-0.804-0.272-1.211c-0.11-0.543-0.198-1.092-0.293-1.64c-0.068-0.396-0.147-0.788-0.207-1.186 c-0.087-0.573-0.151-1.155-0.22-1.733c-0.047-0.381-0.104-0.757-0.141-1.141c-0.066-0.649-0.106-1.304-0.149-1.957 c-0.021-0.32-0.055-0.635-0.07-0.955c-0.049-0.978-0.075-1.962-0.075-2.953c0-3.003,0.228-5.954,0.668-8.834 c3.697-24.202,22.354-43.473,46.235-48.105c-3.594-0.698-7.305-1.071-11.107-1.071c-29.036,0-53.089,21.331-57.343,49.177 c-0.441,2.881-0.668,5.831-0.668,8.834c0,0.99,0.026,1.974,0.075,2.953c0.017,0.321,0.049,0.636,0.07,0.955 c0.043,0.654,0.084,1.308,0.148,1.957c0.039,0.383,0.095,0.759,0.141,1.141c0.07,0.578,0.135,1.159,0.222,1.733 c0.06,0.397,0.138,0.789,0.206,1.186c0.095,0.548,0.184,1.097,0.293,1.64c0.082,0.408,0.183,0.807,0.273,1.211 c0.118,0.523,0.229,1.049,0.361,1.566c0.104,0.411,0.226,0.814,0.34,1.22c0.139,0.502,0.273,1.007,0.428,1.503 c0.126,0.412,0.266,0.815,0.403,1.221c0.159,0.483,0.316,0.969,0.489,1.446c0.148,0.412,0.312,0.816,0.469,1.223 c0.148,0.381,0.284,0.766,0.44,1.142l0.023,0.032c3.716,8.996,9.625,16.85,17.066,22.899l0.02,0.027 c0.48,0.39,0.973,0.766,1.465,1.141c0.139,0.106,0.272,0.217,0.412,0.321c0.691,0.517,1.396,1.015,2.111,1.502 c0.237,0.16,0.48,0.312,0.72,0.469c0.491,0.324,0.984,0.646,1.486,0.954c0.293,0.18,0.59,0.352,0.885,0.527 c0.462,0.273,0.928,0.543,1.397,0.804c0.314,0.174,0.63,0.344,0.949,0.512c0.467,0.248,0.939,0.488,1.413,0.724 c0.322,0.158,0.642,0.317,0.966,0.47c0.497,0.235,0.998,0.46,1.501,0.679c0.308,0.135,0.612,0.272,0.923,0.401 c0.585,0.245,1.176,0.473,1.77,0.698c0.236,0.09,0.468,0.186,0.705,0.273c0.832,0.302,1.67,0.587,2.52,0.851 c0.192,0.061,0.389,0.111,0.582,0.169c0.661,0.199,1.327,0.392,1.999,0.567c0.313,0.082,0.631,0.155,0.948,0.233 c0.56,0.137,1.123,0.269,1.69,0.39c0.35,0.073,0.7,0.141,1.052,0.209c0.547,0.105,1.095,0.204,1.646,0.294 c0.36,0.058,0.72,0.115,1.082,0.166c0.561,0.08,1.127,0.15,1.692,0.216c0.352,0.04,0.701,0.081,1.054,0.116 c0.62,0.058,1.244,0.102,1.868,0.143c0.302,0.019,0.601,0.046,0.903,0.059c0.93,0.045,1.864,0.07,2.803,0.07 c0.94,0,1.873-0.027,2.803-0.07c0.302-0.014,0.601-0.041,0.903-0.059c0.626-0.04,1.249-0.084,1.868-0.143 c0.352-0.035,0.703-0.076,1.054-0.116c0.566-0.065,1.131-0.136,1.692-0.216c0.362-0.052,0.722-0.108,1.081-0.166 c0.551-0.09,1.1-0.189,1.647-0.294c0.02-0.003,0.04-0.008,0.058-0.011C164.887,451.452,164.555,451.388,164.224,451.319z"></path></g><circle style="fill:#5B5E5E;" cx="453.57" cy="452.554" r="57.967"></circle><g><path style="fill:#464949;" d="M59.245,394.58c0-61.045,46.586-111.203,106.144-116.88c-3.712-0.353-7.472-0.542-11.277-0.542 c-64.85,0-117.421,52.571-117.421,117.421c0,64.848,52.571,117.42,117.421,117.42c3.805,0,7.565-0.187,11.277-0.542 C105.83,505.782,59.245,455.623,59.245,394.58z"></path><path style="fill:#464949;" d="M417.876,452.548c0-28.205,20.148-51.694,46.832-56.888c-3.604-0.701-7.324-1.08-11.135-1.08 c-32.015,0-57.967,25.954-57.967,57.968c0,32.015,25.952,57.968,57.967,57.968c3.81,0,7.53-0.379,11.135-1.08 C438.022,504.241,417.876,480.753,417.876,452.548z"></path></g><g><circle style="fill:#E6E9ED;" cx="453.57" cy="452.554" r="17.787"></circle><circle style="fill:#E6E9ED;" cx="154.116" cy="394.576" r="18.015"></circle></g><g><path style="fill:#CCD4DD;" d="M457.499,452.548c0-5.731,2.721-10.815,6.931-14.067c-3.005-2.324-6.764-3.72-10.856-3.72 c-9.823,0-17.787,7.963-17.787,17.788c0,9.823,7.963,17.787,17.787,17.787c4.092,0,7.851-1.396,10.856-3.72 C460.22,463.362,457.499,458.279,457.499,452.548z"></path><path style="fill:#CCD4DD;" d="M158.087,394.58c0-5.804,2.757-10.953,7.019-14.248c-3.044-2.354-6.851-3.768-10.995-3.768 c-9.949,0-18.015,8.066-18.015,18.015s8.066,18.014,18.015,18.014c4.144,0,7.951-1.414,10.995-3.767 C160.844,405.532,158.087,400.385,158.087,394.58z"></path></g><g><path style="fill:#ED6529;" d="M461.814,297.588h-51.682c-4.612,0-8.351-3.738-8.351-8.351c0-4.612,3.739-8.351,8.351-8.351h51.682 c4.612,0,8.351,3.738,8.351,8.351C470.165,293.849,466.424,297.588,461.814,297.588z"></path><path style="fill:#ED6529;" d="M461.814,326.424h-51.682c-4.612,0-8.351-3.738-8.351-8.351s3.739-8.351,8.351-8.351h51.682 c4.612,0,8.351,3.738,8.351,8.351C470.165,322.687,466.424,326.424,461.814,326.424z"></path><path style="fill:#ED6529;" d="M461.814,355.261h-51.682c-4.612,0-8.351-3.738-8.351-8.351s3.739-8.351,8.351-8.351h51.682 c4.612,0,8.351,3.738,8.351,8.351C470.165,351.523,466.424,355.261,461.814,355.261z"></path></g></svg>