<!-- icon666.com - MILLIONS OF FREE VECTOR ICONS --><svg viewBox="0 0 512 512.00056" xmlns="http://www.w3.org/2000/svg"><path d="m25.601562 42.667969h460.800782v34.132812h-460.800782zm0 0" fill="#0071bc"></path><path d="m42.667969 76.800781h426.664062v273.066407h-426.664062zm0 0" fill="#e6e6e6"></path><path d="m204.542969 411.664062-42.410157-10.597656v-17.066406c10.460938-5.230469 17.066407-15.917969 17.066407-27.613281v-49.1875c0-23.5625-19.101563-42.664063-42.664063-42.664063-23.566406 0-42.667968 19.101563-42.667968 42.664063v49.1875c0 11.695312 6.605468 22.382812 17.066406 27.613281v17.066406l-42.410156 10.597656c-15.199219 3.800782-25.859376 17.457032-25.855469 33.117188v50.152344h25.597656v-34.132813h17.066406v51.199219h102.402344v-51.199219h17.066406v34.132813h25.597657v-50.152344c.003906-15.664062-10.65625-29.316406-25.855469-33.117188zm0 0" fill="#0071bc"></path><path d="m443.476562 411.664062-42.410156-10.597656v-17.066406c10.460938-5.230469 17.066406-15.917969 17.066406-27.613281v-49.1875c0-23.5625-19.101562-42.664063-42.664062-42.664063-23.566406 0-42.667969 19.101563-42.667969 42.664063v49.1875c0 11.695312 6.605469 22.382812 17.066407 27.613281v17.066406l-42.410157 10.597656c-15.199219 3.800782-25.859375 17.457032-25.855469 33.117188v50.152344h25.597657v-34.132813h17.066406v51.199219h102.402344v-51.199219h17.066406v34.132813h25.597656v-50.152344c.003907-15.664062-10.65625-29.316406-25.855469-33.117188zm0 0" fill="#0071bc"></path><path d="m85.332031 119.464844h119.46875v34.136718h-119.46875zm0 0" fill="#29abe2"></path><path d="m85.332031 187.734375h119.46875v34.132813h-119.46875zm0 0" fill="#f7931e"></path><g fill="#b3b3b3"><path d="m256 110.933594h17.066406v17.066406h-17.066406zm0 0"></path><path d="m290.132812 110.933594h145.066407v17.066406h-145.066407zm0 0"></path><path d="m238.933594 145.066406h196.265625v17.066406h-196.265625zm0 0"></path><path d="m238.933594 179.199219h196.265625v17.066406h-196.265625zm0 0"></path><path d="m238.933594 213.332031h162.132812v17.070313h-162.132812zm0 0"></path></g><path d="m42.667969 196.265625v-17.066406h-25.601563v-17.066407h-17.066406v221.867188h17.066406v-153.601562h25.601563v-17.066407h-25.601563v-17.066406zm0 0" fill="#a67c52"></path><path d="m494.933594 162.132812v17.066407h-25.601563v17.066406h25.601563v17.066406h-25.601563v17.066407h25.601563v153.601562h17.066406v-221.867188zm0 0" fill="#a67c52"></path><path d="m93.867188 0h281.601562v17.066406h-281.601562zm0 0" fill="#b3b3b3"></path><path d="m392.535156 0h17.066406v17.066406h-17.066406zm0 0" fill="#b3b3b3"></path></svg>