<!-- icon666.com - MILLIONS OF FREE VECTOR ICONS --><svg version="1.1" id="Capa_1" xmlns="http://www.w3.org/2000/svg" xmlns:xlink="http://www.w3.org/1999/xlink" x="0px" y="0px" viewBox="0 0 512.001 512.001" style="enable-background:new 0 0 512.001 512.001;" xml:space="preserve"><path style="fill:#FF7400;" d="M360.614,107.471c-2.93,0-5.607-1.657-6.914-4.279l-13.664-27.406 c-1.904-3.819-0.352-8.458,3.467-10.362c3.82-1.906,8.458-0.351,10.362,3.467l6.75,13.538l6.75-13.538 c1.904-3.818,6.545-5.37,10.362-3.467c3.818,1.904,5.371,6.543,3.467,10.362l-13.664,27.406 C366.221,105.814,363.544,107.471,360.614,107.471z"></path><path style="fill:#D8AD8F;" d="M502.993,397.548H218.236c-6.717,0-11.059-7.093-8.007-13.08l42.109-82.606l14.703-28.825 l8.222-16.121l44.173-86.636l8.222-16.121l29.518-57.899c1.435-2.814,5.456-2.814,6.891,0l29.517,57.899l8.222,16.121l44.173,86.636 l8.222,16.121l56.812,111.431C514.053,390.455,509.711,397.548,502.993,397.548z"></path><path style="fill:#C19476;" d="M301.133,397.548h-82.896c-6.717,0-11.059-7.093-8.007-13.08l42.109-82.606L301.133,397.548z"></path><path style="fill:#87776F;" d="M394.979,397.539h-67.927v-43.291c0-18.758,15.206-33.964,33.964-33.964l0,0 c18.758,0,33.964,15.206,33.964,33.964L394.979,397.539L394.979,397.539z"></path><path style="fill:#6D615A;" d="M394.976,354.253v43.291h-20.678v-43.291c0-9.383-3.805-17.873-9.952-24.021 c-3.783-3.783-8.448-6.674-13.671-8.351c3.257-1.043,6.739-1.601,10.339-1.601c9.372,0,17.862,3.805,24.01,9.952 C391.171,336.38,394.976,344.87,394.976,354.253z"></path><g><path style="fill:#C19476;" d="M502.988,397.544h-4.663l-71.697-140.632l-44.173-86.636l-31.512-61.809l6.227-12.213 c1.435-2.814,5.456-2.814,6.89,0l37.74,74.022l44.173,86.636l65.028,127.551C514.053,390.448,509.705,397.544,502.988,397.544z"></path><polygon style="fill:#C19476;" points="454.195,273.033 267.037,273.033 275.259,256.912 319.431,170.276 327.653,154.154 393.579,154.154 401.801,170.276 445.973,256.912 "></polygon></g><polygon style="fill:#0087FF;" points="445.973,256.912 275.259,256.912 287.79,232.343 306.9,194.845 319.431,170.276 401.801,170.276 414.332,194.845 433.442,232.343 "></polygon><polygon style="fill:#FF7400;" points="433.442,232.343 287.79,232.343 306.9,194.845 414.332,194.845 "></polygon><path style="fill:#FF9300;" d="M151.383,152.235L151.383,152.235c-2.93,0-5.608-1.657-6.914-4.279l-13.664-27.406 c-1.904-3.819-0.352-8.459,3.467-10.362c3.818-1.905,8.458-0.351,10.362,3.467l6.749,13.538l6.75-13.538 c1.904-3.818,6.545-5.371,10.362-3.467c3.818,1.904,5.371,6.543,3.467,10.362l-13.664,27.406 C156.991,150.578,154.313,152.235,151.383,152.235z"></path><path style="fill:#EFCDB1;" d="M293.759,447.391H9.001c-6.717,0-11.059-7.093-8.007-13.08L57.806,322.88l8.222-16.121l44.173-86.636 l8.222-16.121l29.518-57.899c1.435-2.814,5.456-2.814,6.891,0l29.518,57.899l8.222,16.121l44.173,86.636l8.222,16.121 l56.812,111.431C304.818,440.297,300.476,447.391,293.759,447.391z"></path><path style="fill:#87776F;" d="M185.748,447.386h-67.927v-43.291c0-18.758,15.206-33.964,33.964-33.964l0,0 c18.758,0,33.964,15.206,33.964,33.964v43.291H185.748z"></path><path style="fill:#6D615A;" d="M185.745,404.099v43.291h-20.678v-43.291c0-9.383-3.805-17.873-9.952-24.021 c-3.783-3.783-8.448-6.674-13.671-8.351c3.257-1.043,6.739-1.601,10.339-1.601c9.372,0,17.862,3.805,24.01,9.952 C181.941,386.226,185.745,394.717,185.745,404.099z"></path><g><path style="fill:#D8AD8F;" d="M293.757,447.391h-4.663l-71.697-140.632l-44.173-86.636l-31.512-61.809l6.227-12.213 c1.435-2.814,5.456-2.814,6.89,0l37.74,74.022l44.173,86.636L301.77,434.31C304.822,440.295,300.475,447.391,293.757,447.391z"></path><polygon style="fill:#D8AD8F;" points="244.965,322.88 57.806,322.88 66.028,306.758 110.201,220.122 118.423,204.001 184.348,204.001 192.57,220.122 236.743,306.758 "></polygon></g><polygon style="fill:#54CE3E;" points="236.743,306.758 66.028,306.758 78.56,282.19 97.669,244.691 110.201,220.122 192.57,220.122 205.102,244.691 224.211,282.19 "></polygon><polygon style="fill:#FF9300;" points="224.211,282.19 78.56,282.19 97.669,244.691 205.102,244.691 "></polygon></svg>