<!-- icon666.com - MILLIONS OF FREE VECTOR ICONS --><svg id="icons" viewBox="0 0 60 60" xmlns="http://www.w3.org/2000/svg"><path d="m21.423 59.47a.5.5 0 0 1 -.261-.927l1.148-.7-2.7 1.56a.5.5 0 0 1 -.517-.855l16.719-10.58-19.805 11.432a.5.5 0 0 1 -.518-.855l20.555-13.013-24.025 13.868a.5.5 0 0 1 -.516-.856l21.927-13.744-25.294 14.6a.5.5 0 0 1 -.515-.857l23.422-14.574-26.5 15.3a.5.5 0 0 1 -.508-.862l6.06-3.648-6.495 3.747a.5.5 0 0 1 -.506-.861l.258-.156-.068.039a.5.5 0 0 1 -.509-.86l10.188-6.15-9.683 5.591a.5.5 0 0 1 -.507-.861l1.836-1.1-1.329.767a.5.5 0 0 1 -.507-.861l1.921-1.154-1.414.817a.5.5 0 0 1 -.509-.861l11.311-6.836-10.802 6.236a.5.5 0 0 1 -.51-.86l19.948-12.196-19.438 11.224a.5.5 0 0 1 -.512-.858l26.057-16.124-25.545 14.748a.5.5 0 0 1 -.509-.859l16.272-9.894-15.763 9.1a.5.5 0 0 1 -.513-.857l26.667-16.526-26.154 15.1a.5.5 0 0 1 -.513-.858l25.694-15.958-25.181 14.539a.5.5 0 0 1 -.513-.858l23.2-14.408-22.687 13.098a.5.5 0 0 1 -.509-.861l8.566-5.2-8.057 4.652a.5.5 0 0 1 -.509-.86l5.414-3.277-4.905 2.837a.5.5 0 0 1 -.51-.86l10.117-6.18-9.607 5.54a.5.5 0 0 1 -.512-.858l13.443-8.288-12.931 7.47a.5.5 0 0 1 -.51-.86l8.139-4.983-7.629 4.4a.5.5 0 0 1 -.515-.856l15.577-9.76-15.062 8.699a.5.5 0 0 1 -.515-.856l13.969-8.769-13.454 7.768a.5.5 0 0 1 -.518-.854l14.795-9.405-14.277 8.242a.5.5 0 0 1 -.521-.852l15.223-9.832-14.702 8.488a.5.5 0 0 1 -.514-.856l5.928-3.7-5.414 3.123a.5.5 0 0 1 -.52-.854l10.64-6.837-10.12 5.842a.5.5 0 0 1 -.513-.858l.534-.332-.021.012a.5.5 0 0 1 -.534-.844l9.03-6.232-8.5 4.9a.5.5 0 0 1 -.535-.842l3.823-2.662-3.288 1.9a.5.5 0 0 1 -.57-.817l2.608-2.177-2.034 1.179a.5.5 0 0 1 -.706-.637l.445-.99a.5.5 0 0 1 -.239-.933l1.028-.594a.5.5 0 0 1 .706.638l-.394.877 5.725-3.305a.5.5 0 0 1 .57.817l-2.61 2.178 8.51-4.913a.5.5 0 0 1 .536.843l-3.824 2.662 9.009-5.2a.5.5 0 0 1 .534.844l-9.03 6.231 16.209-9.357a.5.5 0 0 1 .514.857l-.532.33 1.369-.787a.5.5 0 0 1 .52.854l-10.643 6.835 12.24-7.066a.5.5 0 0 1 .514.856l-5.919 3.7 7.046-4.069a.5.5 0 0 1 .522.853l-15.223 9.829 17.218-9.94a.5.5 0 0 1 .519.854l-14.8 9.4 16.592-9.572a.5.5 0 0 1 .515.857l-13.971 8.769 15.583-9a.5.5 0 0 1 .516.857l-15.574 9.761 17.259-9.965a.5.5 0 0 1 .51.86l-8.165 5 9.3-5.371a.5.5 0 0 1 .513.858l-13.442 8.288 14.86-8.578a.5.5 0 0 1 .511.859l-10.09 6.162 11.289-6.517a.5.5 0 0 1 .509.86l-5.416 3.28 6.4-3.7a.5.5 0 0 1 .51.861l-8.553 5.187 9.65-5.57a.5.5 0 0 1 .514.857l-23.214 14.419 25.19-14.542a.5.5 0 0 1 .513.858l-25.682 15.95 27-15.588a.5.5 0 0 1 .513.858l-26.668 16.525 26.154-15.1a.5.5 0 0 1 .509.86l-16.272 9.894 15.763-9.1a.5.5 0 0 1 .512.857l-26.07 16.132 25.558-14.755a.5.5 0 0 1 .51.859l-19.948 12.2 19.438-11.227a.5.5 0 0 1 .509.86l-11.311 6.837 10.8-6.236a.5.5 0 0 1 .507.861l-1.876 1.129 1.371-.791a.5.5 0 0 1 .507.862l-1.879 1.129 1.372-.8a.5.5 0 0 1 .509.86l-10.169 6.14 9.66-5.578a.5.5 0 0 1 .507.862l-.453.271a.5.5 0 0 1 .454.889l-6.06 3.656 5.552-3.21a.5.5 0 0 1 .514.858l-23.422 14.576 22.908-13.224a.5.5 0 0 1 .515.857l-21.93 13.743 21.415-12.36a.5.5 0 0 1 .517.856l-20.555 13.016 20.038-11.569a.5.5 0 0 1 .517.856l-16.722 10.578 16.2-9.356a.5.5 0 0 1 .51.86l-1.125.689.617-.356a.5.5 0 0 1 .52.853l-14.507 9.341 13.99-8.076a.5.5 0 0 1 .512.857l-1.772 1.1 1.26-.727a.5.5 0 0 1 .522.852l-10.726 6.98 10.2-5.89a.5.5 0 0 1 .516.855l-2.558 1.614 2.046-1.173a.5.5 0 0 1 .521.852l-5.176 3.348 4.655-2.688a.5.5 0 0 1 .539.841l-8.759 6.211 8.222-4.746a.5.5 0 0 1 .535.844l-4.629 3.207 4.094-2.364a.5.5 0 0 1 .553.83l-4.92 3.765 4.365-2.519a.5.5 0 0 1 .558.826l-2.567 2.017 2.009-1.16a.5.5 0 0 1 .621.768l-2.09 2.312 1.469-.844a.5.5 0 0 1 .64.744l-.545.684a.5.5 0 0 1 .119.915l-1.655.956a.5.5 0 0 1 -.64-.744l.294-.369-1.933 1.114a.5.5 0 0 1 -.621-.767l2.09-2.313-5.335 3.08a.5.5 0 0 1 -.559-.826l2.57-2.018-4.928 2.844a.5.5 0 0 1 -.554-.829l4.918-3.771-7.966 4.6a.5.5 0 0 1 -.535-.843l4.628-3.206-7.016 4.049a.5.5 0 0 1 -.539-.84l8.759-6.208-12.212 7.048a.5.5 0 0 1 -.521-.852l5.181-3.358-7.29 4.21a.5.5 0 0 1 -.516-.855l2.55-1.609-4.269 2.464a.5.5 0 0 1 -.523-.851l10.733-6.988-13.579 7.839a.5.5 0 0 1 -.513-.857l1.747-1.077-3.358 1.934a.5.5 0 0 1 -.521-.852l14.511-9.343-17.659 10.195a.5.5 0 0 1 -.25.07z" fill="#d3e5f4"></path><path d="m57.124 13.427a.5.5 0 0 1 -.426-.762l.806-1.313-2.369 1.367a.5.5 0 0 1 -.614-.777l.772-.813-1.893 1.093a.5.5 0 0 1 -.656-.724l1.156-1.612-2.871 1.657a.5.5 0 0 1 -.663-.715l1.168-1.711-2.976 1.718a.5.5 0 0 1 -.658-.735l1.135-1.517-2.766 1.6a.494.494 0 0 1 -.626-.1.5.5 0 0 1 -.019-.635l1.118-1.448-2.683 1.549a.5.5 0 0 1 -.61-.78l.707-.731-1.781 1.028a.5.5 0 0 1 -.648-.734l1.128-1.491-2.737 1.579a.5.5 0 0 1 -.586-.8l.072-.065-.836.482a.5.5 0 0 1 -.626-.762l.959-1.1-2.262 1.3a.5.5 0 0 1 -.632-.754l1.019-1.208-2.4 1.386a.5.5 0 0 1 -.6-.787l.566-.563-1.552.9a.5.5 0 0 1 -.6-.787l.579-.577-1.571.907a.5.5 0 0 1 -.632-.756l1.016-1.2-3.6 2.079a.5.5 0 0 1 -.586-.8l.936-.849-5.345 3.076a.5.5 0 0 1 -.554-.829l1.69-1.3-6.2 3.582a.5.5 0 0 1 -.541-.839l1.473-1.056-5.6 3.23a.5.5 0 0 1 -.536-.843l.667-.465-4.366 2.521a.5.5 0 0 1 -.553-.831l2.583-1.96-7.6 4.386a.5.5 0 0 1 -.535-.844l.377-.261-1.69.976a.5.5 0 0 1 -.6-.794l2.3-2.2-2.259 1.3a.5.5 0 0 1 -.668-.708l.288-.436a.477.477 0 0 1 -.459-.249.5.5 0 0 1 .183-.683l1.538-.888a.5.5 0 0 1 .668.708l-.22.341 4.024-2.323a.5.5 0 0 1 .595.794l-2.3 2.2 8.613-4.971a.5.5 0 0 1 .535.843l-.376.26 3.954-2.283a.5.5 0 0 1 .553.831l-2.584 1.962 7.6-4.388a.5.5 0 0 1 .537.843l-.664.463 4.365-2.52a.5.5 0 0 1 .541.839l-1.478 1.058 3.883-2.241a.5.5 0 0 1 .555.829l-1.694 1.304 2.846-1.642a.5.5 0 0 1 .586.8l-.936.848 2.029-1.171a.5.5 0 0 1 .632.756l-1.017 1.2 2.4-1.382a.5.5 0 0 1 .6.787l-.581.578 1.573-.907a.5.5 0 0 1 .6.787l-.565.56 1.551-.89a.5.5 0 0 1 .632.755l-1.02 1.209 2.4-1.387a.5.5 0 0 1 .626.762l-.959 1.1 2.261-1.3a.5.5 0 0 1 .585.8l-.075.069.84-.485a.5.5 0 0 1 .649.735l-1.128 1.49 2.739-1.586a.5.5 0 0 1 .609.78l-.708.731 1.784-1.029a.5.5 0 0 1 .645.738l-1.114 1.445 2.682-1.551a.5.5 0 0 1 .651.732l-1.135 1.52 2.766-1.6a.5.5 0 0 1 .663.715l-1.168 1.714 2.975-1.718a.5.5 0 0 1 .657.724l-1.157 1.613 2.87-1.656a.5.5 0 0 1 .614.776l-.771.814 1.1-.633a.5.5 0 0 1 .676.694l-.928 1.513a.5.5 0 0 1 .173.928l-1.258.724a.49.49 0 0 1 -.252.067z" fill="#4285a9"></path><path d="m8.051 21.47a.5.5 0 0 1 -.362-.846l2.111-2.2-2.52 1.454a.5.5 0 0 1 -.593-.8l.526-.5a.508.508 0 0 1 -.537-.112.5.5 0 0 1 -.078-.605l.393-.678a.5.5 0 0 1 -.158-.923l1.161-.67a.5.5 0 0 1 .683.683l-.273.468 2-1.151a.5.5 0 0 1 .593.8l-.507.478 1.853-1.068a.5.5 0 0 1 .611.778l-2.111 2.2 1.877-1.078a.5.5 0 0 1 .648.735l-.656.865h.008a.5.5 0 0 1 .5.865l-2.155 1.235a.5.5 0 0 1 -.648-.734l.657-.866-2.774 1.6a.49.49 0 0 1 -.249.07z" fill="#3cb2af"></path><path d="m20.054 21.47a.5.5 0 0 1 -.4-.8l1.512-2.065-3.8 2.2a.5.5 0 0 1 -.594-.795l1.52-1.447-1 .58a.5.5 0 0 1 -.705-.639l.594-1.311a.5.5 0 0 1 -.336-.925l1.161-.67a.5.5 0 0 1 .705.638l-.583 1.264 3.294-1.9a.5.5 0 0 1 .595.8l-1.517 1.44 2.223-1.283a.5.5 0 0 1 .653.728l-1.516 2.065.86-.5a.5.5 0 0 1 .5.865l-2.92 1.685a.49.49 0 0 1 -.246.07z" fill="#3cb2af"></path><path d="m38.893 21.47a.5.5 0 0 1 -.355-.853l1.4-1.408-2.614 1.509a.5.5 0 0 1 -.59-.8l1.337-1.242-.794.458a.5.5 0 0 1 -.7-.64l.592-1.3a.5.5 0 0 1 -.334-.925l1.161-.67a.5.5 0 0 1 .7.639l-.569 1.252 3.281-1.89a.5.5 0 0 1 .59.8l-1.337 1.243 2.046-1.181a.5.5 0 0 1 .6.785l-1.4 1.408.812-.467a.5.5 0 0 1 .69.669l-.489.914a.489.489 0 0 1 .44.25.5.5 0 0 1 -.182.682l-1.219.7a.494.494 0 0 1 -.6-.073.5.5 0 0 1 -.092-.6l.432-.807-2.556 1.477a.493.493 0 0 1 -.25.07z" fill="#3cb2af"></path><path d="m48.446 21.47a.5.5 0 0 1 -.346-.861l1.517-1.463-2.33 1.345a.5.5 0 0 1 -.6-.785l1.353-1.358-.756.435a.5.5 0 0 1 -.693-.664l.481-.919a.5.5 0 0 1 -.235-.932l1.161-.67a.5.5 0 0 1 .693.664l-.416.795 2.525-1.457a.5.5 0 0 1 .6.785l-1.348 1.355 2.6-1.5a.5.5 0 0 1 .6.793l-1.519 1.464.986-.568a.5.5 0 0 1 .656.724l-.543.756a.5.5 0 0 1 .387.914l-1.873 1.077a.5.5 0 0 1 -.657-.724l.523-.727-2.512 1.451a.49.49 0 0 1 -.254.07z" fill="#3cb2af"></path><path d="m28.813 21.47a.5.5 0 0 1 -.4-.2.5.5 0 0 1 .069-.665l.7-.639-1.737 1a.5.5 0 0 1 -.588-.8l1.543-1.415-1.115.643a.5.5 0 0 1 -.712-.624l.66-1.591a.5.5 0 0 1 -.4-.911l1.161-.67a.5.5 0 0 1 .712.624l-.65 1.569 3.782-2.184a.5.5 0 0 1 .588.8l-1.541 1.414 1.835-1.058a.5.5 0 0 1 .586.8l-.7.639.117-.067a.5.5 0 0 1 .6.076.5.5 0 0 1 .087.6l-.5.9a.525.525 0 0 1 .472.249.5.5 0 0 1 -.183.682l-1.306.755a.5.5 0 0 1 -.688-.674l.456-.823-2.594 1.5a.49.49 0 0 1 -.254.07z" fill="#3cb2af"></path><path d="m9.589 59.5a.5.5 0 0 1 -.266-.924l18.2-11.412-19.244 11.108a.5.5 0 0 1 -.515-.856l16.552-10.388-16.037 9.259a.5.5 0 0 1 -.52-.853l17.727-11.382-17.208 9.934a.5.5 0 0 1 -.515-.856l8.91-5.574-8.396 4.844a.5.5 0 0 1 -.52-.852l12.29-7.926-11.771 6.797a.5.5 0 0 1 -.515-.856l3.249-2.034-2.734 1.578a.5.5 0 0 1 -.527-.848l10.483-6.982-9.957 5.748a.5.5 0 0 1 -.534-.843l9.467-6.538-8.934 5.156a.5.5 0 0 1 -.527-.849l4.176-2.787-3.649 2.107a.5.5 0 0 1 -.547-.834l6.188-4.581-5.642 3.257a.5.5 0 0 1 -.564-.821l4.523-3.667-3.96 2.285a.5.5 0 0 1 -.557-.827l1.291-1-.734.423a.5.5 0 0 1 -.625-.764l1.54-1.744-.916.528a.5.5 0 0 1 -.621-.1.5.5 0 0 1 -.034-.628l.469-.647a.5.5 0 0 1 -.189-.186.5.5 0 0 1 .183-.684l1.184-.681a.5.5 0 0 1 .655.726l-.116.16 1.536-.886a.5.5 0 0 1 .625.763l-1.54 1.737 4.346-2.5a.5.5 0 0 1 .557.827l-1.3 1.01 3.186-1.837a.5.5 0 0 1 .564.821l-4.522 3.667 7.776-4.488a.5.5 0 0 1 .548.835l-6.185 4.578 9.377-5.414a.5.5 0 0 1 .527.848l-4.184 2.792 6.307-3.64a.5.5 0 0 1 .534.844l-9.466 6.537 12.787-7.382a.5.5 0 0 1 .528.848l-10.479 6.974 13.559-7.828a.5.5 0 0 1 .515.856l-3.277 2.052 5.036-2.907a.5.5 0 0 1 .521.852l-12.287 7.923 15.2-8.777a.5.5 0 0 1 .515.856l-8.888 5.563 11.121-6.42a.5.5 0 0 1 .52.853l-17.722 11.379 21.188-12.233a.5.5 0 0 1 .516.856l-16.567 10.4 19.468-11.245a.5.5 0 0 1 .516.856l-18.2 11.415 18.663-10.771a.5.5 0 0 1 .513.857l-12.66 7.856 12.149-7.013a.5.5 0 0 1 .515.856l-13.038 8.171 12.525-7.227a.5.5 0 0 1 .514.856l-8.6 5.36 8.084-4.667a.5.5 0 0 1 .518.855l-10.98 6.988 10.468-6.043a.5.5 0 0 1 .513.858l-1.609 1 1.1-.633a.5.5 0 0 1 .521.853l-7.867 5.053 7.345-4.24a.5.5 0 0 1 .533.846l-10.606 7.239 10.076-5.817a.5.5 0 0 1 .53.848l-6.539 4.408 6.011-3.47a.5.5 0 0 1 .525.85l-1.523 1 1-.576a.5.5 0 0 1 .531.847l-2.27 1.534 1.741-1.005a.5.5 0 0 1 .546.836l-3.587 2.633 3.038-1.754a.5.5 0 0 1 .54.84l-.446.318a.5.5 0 0 1 .5.838l-2.282 2.158 1.69-.975a.5.5 0 0 1 .59.8l-.329.306a.5.5 0 0 1 .475.625l-.274 1.06a.5.5 0 0 1 .042.887l-.5.289a.5.5 0 0 1 -.734-.557l.2-.775-2.31 1.332a.5.5 0 0 1 -.59-.8l.093-.086-1.536.886a.5.5 0 0 1 -.594-.8l2.283-2.158-5.122 2.956a.5.5 0 0 1 -.54-.84l.357-.255-1.9 1.1a.5.5 0 0 1 -.545-.836l3.583-2.634-6.009 3.474a.5.5 0 0 1 -.53-.847l2.268-1.535-4.13 2.384a.5.5 0 0 1 -.524-.851l1.531-1-3.215 1.852a.5.5 0 0 1 -.529-.848l6.541-4.409-9.109 5.259a.5.5 0 0 1 -.533-.846l10.6-7.238-14.004 8.087a.5.5 0 0 1 -.52-.854l7.874-5.059-10.249 5.915a.5.5 0 0 1 -.514-.858l1.585-.983-3.193 1.843a.5.5 0 0 1 -.518-.855l10.989-6.992-13.6 7.849a.5.5 0 0 1 -.515-.857l8.6-5.36-10.773 6.219a.5.5 0 0 1 -.516-.857l13.041-8.171-15.648 9.03a.5.5 0 0 1 -.514-.858l12.676-7.865-15.112 8.725a.494.494 0 0 1 -.25.068z" fill="#b7ccdb"></path><path d="m14.041 59.5a.5.5 0 0 1 -.354-.852l2.277-2.288-2.684 1.54a.5.5 0 0 1 -.651-.133.5.5 0 0 1 .058-.664l1.613-1.512-1.019.588a.5.5 0 0 1 -.706-.637l.605-1.351a.507.507 0 0 1 -.529-.241.5.5 0 0 1 .183-.682l1.166-.668a.5.5 0 0 1 .706.636l-.585 1.309 3.4-1.967a.5.5 0 0 1 .593.8l-1.614 1.511 2.223-1.283a.5.5 0 0 1 .6.786l-2.276 2.286 1.681-.971a.5.5 0 0 1 .684.682l-.7 1.229.03-.017a.5.5 0 1 1 .5.865l-1.637.945a.5.5 0 0 1 -.683-.682l.7-1.229-3.338 1.928a.489.489 0 0 1 -.243.072z" fill="#6d4b34"></path><path d="m19.048 59.5a.5.5 0 0 1 -.33-.876l2.086-1.83-1.524.88a.5.5 0 0 1 -.614-.776l1.634-1.737-1.021.589a.5.5 0 0 1 -.738-.539l.312-1.425a.5.5 0 0 1 -.074-.9l.5-.288a.5.5 0 0 1 .739.54l-.258 1.181 2.981-1.72a.5.5 0 0 1 .614.775l-1.633 1.735 2.978-1.718a.5.5 0 0 1 .58.808l-2.089 1.831 1.538-.887a.5.5 0 0 1 .623.766l-.964 1.074.351-.2a.5.5 0 0 1 .732.568l-.249.886a.5.5 0 0 1 .026.88l-.5.29a.5.5 0 0 1 -.731-.567l.162-.577-2.006 1.157a.5.5 0 0 1 -.622-.767l.964-1.074-3.215 1.854a.489.489 0 0 1 -.252.067z" fill="#6d4b34"></path><path d="m18.646 53.487a.5.5 0 0 1 -.374-.831l1.3-1.467-3.289 1.9a.5.5 0 0 1 -.58-.809l2.024-1.78-1.447.834a.5.5 0 0 1 -.618-.771l1.348-1.463-.73.421a.5.5 0 0 1 -.68-.687l.379-.643a.5.5 0 0 1 -.146-.921l1.161-.67a.5.5 0 0 1 .681.686l-.246.417 1.912-1.1a.5.5 0 0 1 .618.771l-1.349 1.461 2.99-1.727a.5.5 0 0 1 .58.809l-2.024 1.783 1.572-.906a.5.5 0 0 1 .624.764l-1.3 1.467.683-.4a.5.5 0 0 1 .724.593l-.306.9a.5.5 0 0 1 .092.907l-.659.381a.5.5 0 0 1 -.724-.593l.224-.659-2.186 1.266a.489.489 0 0 1 -.254.067z" fill="#8e6546"></path><path d="m35.755 59.5a.5.5 0 0 1 -.356-.851l2.601-2.637-2.72 1.571a.5.5 0 0 1 -.595-.794l1.325-1.268-.73.421a.5.5 0 0 1 -.7-.652l.535-1.091a.5.5 0 0 1 -.283-.931l1.168-.668a.5.5 0 0 1 .7.652l-.5 1.004 2.907-1.679a.5.5 0 0 1 .6.794l-1.328 1.271 2.347-1.355a.5.5 0 0 1 .605.784l-2.6 2.633 2.009-1.16a.5.5 0 0 1 .654.727l-.8 1.09.152-.088a.5.5 0 0 1 .5.866l-2.208 1.275a.5.5 0 0 1 -.653-.727l.8-1.091-3.176 1.833a.489.489 0 0 1 -.254.071z" fill="#6d4b34"></path><path d="m41.205 59.5a.5.5 0 0 1 -.322-.882l1.455-1.227-1.058.609a.5.5 0 0 1 -.626-.762l1.983-2.268-1.357.783a.494.494 0 0 1 -.545-.029.5.5 0 0 1 -.193-.51l.312-1.428a.5.5 0 0 1 -.074-.9l.5-.288a.5.5 0 0 1 .739.54l-.259 1.184 2.987-1.722a.5.5 0 0 1 .626.761l-1.982 2.268 3.33-1.922a.5.5 0 0 1 .572.815l-1.457 1.228.894-.516a.5.5 0 0 1 .619.771l-.844.919.234-.135a.5.5 0 0 1 .732.568l-.248.881a.5.5 0 0 1 .025.879l-.5.29a.5.5 0 0 1 -.731-.568l.16-.569-1.993 1.15a.5.5 0 0 1 -.619-.771l.845-.919-2.953 1.7a.491.491 0 0 1 -.252.07z" fill="#6d4b34"></path><path d="m39.086 53.5a.5.5 0 0 1 -.342-.865l1.717-1.609-2.181 1.254a.5.5 0 0 1 -.617-.772l2.215-2.394-1.6.922a.5.5 0 0 1 -.7-.645l.563-1.194a.508.508 0 0 1 -.491-.247.5.5 0 0 1 .183-.682l1.161-.67a.5.5 0 0 1 .7.645l-.532 1.128 3.075-1.771a.5.5 0 0 1 .617.772l-2.215 2.4 3.084-1.781a.5.5 0 0 1 .591.8l-1.714 1.598 1.134-.655a.5.5 0 0 1 .715.618l-.592 1.494a.5.5 0 0 1 .39.913l-1.125.649a.5.5 0 0 1 -.715-.617l.583-1.473-3.653 2.11a.489.489 0 0 1 -.251.072z" fill="#8e6546"></path><path d="m9.513 34.5a.5.5 0 0 1 -.29-.907l2.611-1.859-3.554 2.051a.5.5 0 0 1 -.555-.828l3.622-2.806-3.067 1.771a.5.5 0 0 1 -.6-.788l2.758-2.722-2.158 1.244a.5.5 0 0 1 -.676-.692l.927-1.523a.5.5 0 0 1 -.464-.884l1.659-.957a.5.5 0 0 1 .676.692l-.925 1.519 3.834-2.211a.5.5 0 0 1 .6.788l-2.759 2.723 6.084-3.511a.5.5 0 0 1 .556.828l-3.621 2.8 6.292-3.628a.5.5 0 0 1 .54.84l-2.612 1.86 4.674-2.7a.5.5 0 0 1 .538.842l-1.971 1.378 3.847-2.22a.5.5 0 0 1 .564.822l-4.836 3.886 8.154-4.708a.5.5 0 0 1 .533.845l-.7.476 2.291-1.321a.5.5 0 0 1 .546.836l-3.457 2.533 5.836-3.369a.5.5 0 0 1 .558.827l-4.513 3.513 7.519-4.34a.5.5 0 0 1 .547.834l-3.73 2.766 6.239-3.6a.5.5 0 0 1 .557.828l-4.459 3.458 7.425-4.286a.5.5 0 0 1 .564.821l-4.857 3.919 8.215-4.74a.5.5 0 0 1 .67.161.5.5 0 0 1 -.128.678l-2.9 2.085 4.61-2.661a.5.5 0 0 1 .55.832l-3.631 2.725 4.012-2.32a.5.5 0 0 1 .578.811l-3.479 3.02 2.972-1.716a.5.5 0 0 1 .589.8l-1.389 1.285.807-.466a.5.5 0 0 1 .711.627l-.572 1.359a.5.5 0 0 1 .555.236.5.5 0 0 1 -.183.682l-1.147.662a.5.5 0 0 1 -.711-.627l.559-1.33-3.394 1.96a.5.5 0 0 1 -.59-.8l1.39-1.285-3.615 2.087a.5.5 0 0 1 -.578-.81l3.481-3.021-6.642 3.836a.5.5 0 0 1 -.551-.832l3.626-2.726-6.167 3.56a.5.5 0 0 1 -.542-.839l2.905-2.087-5.071 2.928a.5.5 0 0 1 -.564-.821l4.857-3.921-8.22 4.745a.5.5 0 0 1 -.556-.828l4.461-3.46-7.432 4.29a.5.5 0 0 1 -.548-.834l3.726-2.764-6.238 3.6a.5.5 0 0 1 -.557-.827l4.514-3.514-7.524 4.343a.5.5 0 0 1 -.546-.836l3.459-2.534-5.842 3.372a.5.5 0 0 1 -.532-.846l.694-.474-2.289 1.322a.5.5 0 0 1 -.563-.827l4.837-3.885-8.157 4.715a.5.5 0 0 1 -.537-.843l1.968-1.377-3.848 2.222a.491.491 0 0 1 -.25.068z" fill="#5f7d84"></path><g fill="#262626"><path d="m58.345 8.459c-9.075-2.392-18.345-5.909-27.527-7.886-3.65-.313-8.08 1.927-11.507 2.911-3.311 1.431-26.062 4.468-16.761 10.088 2.289 59.047-14.624 44.128 45.181 46.028 9.278 1.216 10.864-.319 9.718-9.666q0-18.273 0-36.547a2.851 2.851 0 0 0 .896-4.928zm-49.127-1.092c24.882-8.648 24.361-4.593 48.517 2.074 4.721 7.412-21.779-4.221-25.013-4.048-6.456-2.514-25.652 8.829-30.685 6.278-2.344-2.913 5.685-3.871 7.181-4.304zm42.332 24.923v1.127q-21.732 0-43.465 0c-.4-6.774 2.631-7.617 8.92-6.818h19.856c4.28.206 8.764-.35 13 0 2.449.86 1.689 3.681 1.689 5.691zm-37.55 21.31c1.341-.242 2.995.113 4.413 0v4.8h-4.963c.289-1.395-.75-3.885.55-4.8zm3.1-6.014c5.446-.39 4.406-.049 4.439 4.828-1.692.007-3.376-.021-5.068-.014.319-1.479-.765-3.906.629-4.814zm7.308 8.814v2h-4.816v-4.814c.9-.126 2.07.269 2.83-.186 2.338-.533 2.178 1.4 1.986 3zm11.5-2.879a4.815 4.815 0 0 1 1.814-.042 11.159 11.159 0 0 0 2.682.118v4.8h-4.873c.269-1.397-.656-3.818.382-4.874zm3.131-5.921c5.373-.376 4.535-.1 4.512 4.8h-5.1c.319-1.469-.743-3.877.588-4.8zm7.37 9v1.8h-4.818v-4.8c.879-.122 1.99.271 2.744-.2 2.411-.488 2.279 1.542 2.074 3.2zm1.182 1.8c-.055-2.587.935-6.8-3.138-5.859.016-2.841.83-7.046-3.419-6.14-4.221-.926-3.569 3.191-3.489 6.068-3.939-.8-3.031 3.426-3.076 5.931h-8.877c-.043-2.555.885-6.734-3.121-5.86.008-2.75.807-6.93-3.308-6.125-4.508-.915-3.663 2.875-3.633 5.974-4.013-.843-2.857 3.538-2.98 6.011-1.048-.015-2.9.363-4.074.1.006-7.987-.124-15.791-.412-23.917h43.486v23.817zm8.959-2.406c-.488 2.274-2.183 2.556-4.1 2.512-.68-45.018 8.055-30.857-35.806-33.106-4.619-.42-10.347-1-9.093 5.567q0 13.857 0 27.723c-6.967.41-3.946-7.89-4.101-11.959v-33.152c30.023-9.816 22.865-9.182 53.1-.207-.424 14.138.704 28.561 0 42.622z"></path><path d="m10.51 15.531c-1.35 0-3.75-.442-4.069 1.4.059 1.352-.494 3.221.559 4.269 1.52.641 3.376.118 5 .265 2.039-.33 1.613-2.567 1.586-4.121-.036-1.944-1.562-1.813-3.076-1.813zm-2.286 5c-.81-.3-.639-1.086-.639-1.765-.769-3.287 2.063-2.221 4.191-2.3.855.237.639 1.127.639 1.765.749 3.269-2.03 2.23-4.191 2.3z"></path><path d="m22.609 15.592c-1.872.065-5.564-1.057-6.174 1.444.093 1.336-.471 3.148.567 4.178 3.356.669 7.512 1.107 6.566-3.763.001-.785-.082-1.572-.959-1.859zm-4.36 4.924c-.88-.218-.68-1.159-.68-1.824-.255-1.765 0-2.635 1.983-2.207a7.939 7.939 0 0 1 2.2 0c.81.288.68 1.018.68 1.711.768 3.331-1.999 2.204-4.183 2.32z"></path><path d="m40.442 15.545c-1.357 0-3.853-.448-4.033 1.5.131 1.34-.5 3.169.636 4.152 1.543.611 3.4.125 5.031.251 1.991-.322 1.542-2.608 1.515-4.117-.034-1.939-1.669-1.786-3.149-1.786zm-2.2 5c-.789-.257-.652-1.021-.652-1.681-.714-3.371 1.927-2.365 4.167-2.41.817.268.651 1.112.651 1.795.738 3.209-2.072 2.251-4.165 2.296z"></path><path d="m50.27 15.546c-1.31 0-3.683-.446-3.862 1.417.118 1.407-.574 3.5.915 4.322a18.966 18.966 0 0 0 5.067.093c1.661-.423 1.262-2.788 1.2-4.136-.081-1.904-1.913-1.696-3.32-1.696zm-2.2 5c-.665-.211-.478-1.144-.478-1.716-.737-3.089 2.338-2.441 4.338-2.376.687.218.478 1.243.478 1.833.776 3.042-2.396 2.272-4.338 2.259z"></path><path d="m30.529 15.461c-1.413 0-3.7-.427-4.022 1.49.053 1.368-.476 3.209.507 4.307 1.441.67 3.256.113 4.815.282 2.128-.186 1.715-2.693 1.69-4.221-.007-1.959-1.447-1.858-2.99-1.858zm1.525 5c-3.565.3-5.428.5-4.37-3.75.377-.378 1.4-.176 1.906-.176 1.465-.205 3.395-.172 2.891 1.835 0 .476.295 1.957-.427 2.095z"></path><path d="m48.185 29.465h-36c-.559 0-1.052 1.07-.37 1.07h36c.559 0 1.052-1.07.37-1.07z"></path></g></svg>