<svg width="865" height="303" viewBox="0 0 865 303" fill="none" xmlns="http://www.w3.org/2000/svg">
<mask id="mask0_24_1179" style="mask-type:luminance" maskUnits="userSpaceOnUse" x="0" y="47" width="325" height="245">
<path d="M0.350586 47.4951H324.351V291.495H0.350586V47.4951Z" fill="white"/>
</mask>
<g mask="url(#mask0_24_1179)">
<path fill-rule="evenodd" clip-rule="evenodd" d="M1.20475 80.2663V112.787H105.101C205.804 112.787 209.205 112.844 215.955 114.574C242.387 121.334 260.95 146.245 259.194 172.6C257.569 196.98 239.7 218.469 216.043 224.485C209.267 226.209 196.147 226.209 188.866 224.495C185.778 223.766 180.746 221.902 177.679 220.355C174.616 218.808 156.049 205.381 136.413 190.511C90.5693 155.798 86.8089 153.209 77.861 150.266C46.9079 140.074 14.8454 156.074 3.73079 187.261C1.66829 193.053 1.65267 193.449 1.39225 242.219L1.13184 291.344H65.7777V255.454C65.7777 235.714 66.0485 219.563 66.3714 219.563C66.6995 219.563 70.637 222.339 75.1162 225.735C132.272 269.011 136.939 272.391 146.288 277.251C165.111 287.032 180.58 290.751 202.554 290.782C224.288 290.813 239.965 287.058 258.538 277.381C290.996 260.464 313.814 230.568 321.851 194.438C324.163 184.032 324.632 161.61 322.772 150.292C314.476 99.8079 274.262 59.0059 223.517 49.584C217.038 48.3809 201.252 48.1569 108.606 47.9642L1.20475 47.7402V80.2663Z" fill="#07EA3D"/>
</g>
<path d="M398.693 196.811C407.886 196.811 415.204 194.092 420.652 188.644C426.094 183.201 428.818 175.988 428.818 166.998V81.4355H470.485V167.331C470.485 180.998 467.386 193.227 461.193 204.019C454.995 214.811 446.506 223.258 435.714 229.352C424.922 235.436 412.579 238.477 398.693 238.477C384.803 238.477 372.407 235.436 361.506 229.352C350.615 223.258 342.073 214.811 335.881 204.019C329.683 193.227 326.589 180.998 326.589 167.331V81.4355H368.256V166.998C368.256 175.988 371.032 183.201 376.589 188.644C382.141 194.092 389.511 196.811 398.693 196.811Z" fill="white"/>
<path d="M599.313 116.686L531.043 193.602H600.897V235.269H469.501V200.019L537.772 123.102H474.313V81.4355H599.313V116.686Z" fill="white"/>
<path d="M672.031 196.811C681.224 196.811 688.541 194.092 693.989 188.644C699.432 183.201 702.156 175.988 702.156 166.998V81.4355H743.823V167.331C743.823 180.998 740.724 193.227 734.531 204.019C728.333 214.811 719.843 223.258 709.052 229.352C698.26 235.436 685.916 238.477 672.031 238.477C658.14 238.477 645.744 235.436 634.843 229.352C623.953 223.258 615.411 214.811 609.218 204.019C603.021 193.227 599.927 180.998 599.927 167.331V81.4355H641.593V166.998C641.593 175.988 644.369 183.201 649.927 188.644C655.479 194.092 662.849 196.811 672.031 196.811Z" fill="white"/>
<path d="M819.756 78.2275V119.894C810.573 119.894 803.203 122.623 797.651 128.082C792.094 133.53 789.318 140.738 789.318 149.707V235.269H747.651V149.373C747.651 135.488 750.745 123.201 756.943 112.519C763.136 101.842 771.677 93.4567 782.568 87.3734C793.469 81.2796 805.865 78.2275 819.756 78.2275Z" fill="white"/>
<path d="M831.609 7.72754C839.078 7.72754 845.219 10.1338 850.026 14.9359C854.844 19.7432 857.255 25.889 857.255 33.3734C857.255 40.639 854.844 46.7275 850.026 51.6442C845.219 56.5505 839.078 58.9984 831.609 58.9984C824.344 58.9984 818.255 56.5505 813.338 51.6442C808.422 46.7275 805.963 40.639 805.963 33.3734C805.963 25.889 808.422 19.7432 813.338 14.9359C818.255 10.1338 824.344 7.72754 831.609 7.72754ZM810.776 235.269V81.4359H852.443V235.269H810.776Z" fill="white"/>
<path d="M367.955 286.357V287.795C367.955 290.602 367.33 293.087 366.08 295.253C364.83 297.41 363.122 299.097 360.955 300.316C358.788 301.524 356.273 302.128 353.413 302.128C350.59 302.128 348.085 301.524 345.893 300.316C343.71 299.097 341.997 297.41 340.747 295.253C339.507 293.087 338.893 290.602 338.893 287.795C338.893 285.003 339.507 282.535 340.747 280.378C341.997 278.212 343.71 276.524 345.893 275.316C348.085 274.097 350.59 273.482 353.413 273.482C355.632 273.482 357.669 273.889 359.518 274.691C361.377 275.482 362.965 276.597 364.288 278.024C365.622 279.456 366.606 281.123 367.247 283.024H360.934C360.153 281.748 359.111 280.743 357.809 280.003C356.518 279.253 355.049 278.878 353.413 278.878C351.731 278.878 350.231 279.264 348.913 280.024C347.59 280.774 346.559 281.826 345.809 283.17C345.07 284.519 344.705 286.061 344.705 287.795C344.705 289.519 345.07 291.061 345.809 292.42C346.559 293.769 347.59 294.826 348.913 295.587C350.231 296.352 351.731 296.732 353.413 296.732C355.273 296.732 356.893 296.285 358.268 295.378C359.653 294.477 360.684 293.269 361.351 291.753H352.163V286.357H367.955Z" fill="white"/>
<path d="M396.515 283.399C396.515 285.707 395.854 287.665 394.536 289.274C393.229 290.873 391.421 291.951 389.119 292.504C389.729 293.686 390.645 294.618 391.869 295.295C393.104 295.978 394.583 296.316 396.307 296.316H397.348V301.712H396.098C393.526 301.712 391.244 301.165 389.244 300.066C387.255 298.957 385.703 297.431 384.578 295.483C383.453 293.524 382.89 291.285 382.89 288.754V287.504H385.598C387.14 287.504 388.375 287.144 389.307 286.42C390.234 285.686 390.703 284.681 390.703 283.399C390.703 282.097 390.25 281.087 389.348 280.379C388.442 279.66 387.192 279.295 385.598 279.295H380.828V301.712H375.015V273.899H385.598C387.776 273.899 389.682 274.295 391.307 275.087C392.942 275.868 394.223 276.972 395.14 278.399C396.057 279.832 396.515 281.498 396.515 283.399Z" fill="white"/>
<path d="M403.16 287.795C403.16 285.003 403.775 282.535 405.015 280.378C406.265 278.212 407.978 276.524 410.16 275.316C412.353 274.097 414.858 273.482 417.681 273.482C420.541 273.482 423.061 274.097 425.244 275.316C427.421 276.524 429.14 278.212 430.39 280.378C431.64 282.535 432.265 285.003 432.265 287.795C432.265 289.852 431.9 291.753 431.181 293.503C430.457 295.243 429.436 296.753 428.119 298.045C426.811 299.326 425.27 300.326 423.494 301.045C421.728 301.764 419.791 302.128 417.681 302.128C414.858 302.128 412.353 301.524 410.16 300.316C407.978 299.097 406.265 297.41 405.015 295.253C403.775 293.087 403.16 290.602 403.16 287.795ZM408.973 287.795C408.973 289.519 409.337 291.061 410.077 292.42C410.827 293.769 411.858 294.826 413.181 295.587C414.499 296.352 415.999 296.732 417.681 296.732C419.374 296.732 420.874 296.347 422.181 295.566C423.499 294.79 424.541 293.727 425.306 292.378C426.067 291.019 426.452 289.493 426.452 287.795C426.452 286.061 426.077 284.519 425.327 283.17C424.577 281.826 423.541 280.774 422.223 280.024C420.916 279.264 419.4 278.878 417.681 278.878C415.999 278.878 414.499 279.264 413.181 280.024C411.858 280.774 410.827 281.826 410.077 283.17C409.337 284.519 408.973 286.061 408.973 287.795Z" fill="white"/>
<path d="M450.533 296.733C452.074 296.733 453.355 296.233 454.387 295.233C455.413 294.233 455.928 292.978 455.928 291.462V273.899H461.741V291.462C461.741 293.535 461.251 295.373 460.283 296.983C459.309 298.582 457.98 299.837 456.303 300.754C454.637 301.67 452.71 302.129 450.533 302.129C448.366 302.129 446.434 301.67 444.741 300.754C443.059 299.837 441.73 298.582 440.762 296.983C439.803 295.373 439.324 293.535 439.324 291.462V273.899H445.137V291.462C445.137 292.978 445.642 294.233 446.658 295.233C447.684 296.233 448.975 296.733 450.533 296.733Z" fill="white"/>
<path d="M490.715 283.399C490.715 285.29 490.256 286.957 489.34 288.399C488.423 289.832 487.142 290.941 485.506 291.733C483.881 292.514 481.975 292.899 479.798 292.899H475.444V301.712H469.631V273.899H479.798C481.975 273.899 483.881 274.295 485.506 275.087C487.142 275.868 488.423 276.972 489.34 278.399C490.256 279.832 490.715 281.498 490.715 283.399ZM484.902 283.399C484.902 282.097 484.449 281.087 483.548 280.379C482.642 279.66 481.392 279.295 479.798 279.295H475.444V287.504H479.798C481.34 287.504 482.574 287.144 483.506 286.42C484.433 285.686 484.902 284.681 484.902 283.399Z" fill="white"/>
<path d="M508.987 287.795C508.987 285.003 509.601 282.535 510.841 280.378C512.091 278.212 513.805 276.524 515.987 275.316C518.18 274.097 520.685 273.482 523.508 273.482C526.367 273.482 528.888 274.097 531.07 275.316C533.247 276.524 534.966 278.212 536.216 280.378C537.466 282.535 538.091 285.003 538.091 287.795C538.091 289.852 537.726 291.753 537.008 293.503C536.284 295.243 535.263 296.753 533.945 298.045C532.638 299.326 531.096 300.326 529.32 301.045C527.555 301.764 525.617 302.128 523.508 302.128C520.685 302.128 518.18 301.524 515.987 300.316C513.805 299.097 512.091 297.41 510.841 295.253C509.601 293.087 508.987 290.602 508.987 287.795ZM514.799 287.795C514.799 289.519 515.164 291.061 515.903 292.42C516.653 293.769 517.685 294.826 519.008 295.587C520.325 296.352 521.825 296.732 523.508 296.732C525.2 296.732 526.7 296.347 528.008 295.566C529.325 294.79 530.367 293.727 531.133 292.378C531.893 291.019 532.278 289.493 532.278 287.795C532.278 286.061 531.903 284.519 531.153 283.17C530.403 281.826 529.367 280.774 528.049 280.024C526.742 279.264 525.226 278.878 523.508 278.878C521.825 278.878 520.325 279.264 519.008 280.024C517.685 280.774 516.653 281.826 515.903 283.17C515.164 284.519 514.799 286.061 514.799 287.795Z" fill="white"/>
<path d="M564.067 273.899V279.295H550.963V285.608H562.88V291.004H550.963V301.712H545.151V273.899H564.067Z" fill="white"/>
<path d="M582.763 287.795C582.763 285.003 583.377 282.535 584.617 280.378C585.867 278.212 587.58 276.524 589.763 275.316C591.955 274.097 594.461 273.482 597.284 273.482C599.502 273.482 601.539 273.889 603.388 274.691C605.247 275.482 606.836 276.597 608.159 278.024C609.492 279.456 610.476 281.123 611.117 283.024H604.804C604.023 281.748 602.981 280.743 601.679 280.003C600.388 279.253 598.919 278.878 597.284 278.878C595.601 278.878 594.101 279.264 592.784 280.024C591.461 280.774 590.429 281.826 589.679 283.17C588.94 284.519 588.575 286.061 588.575 287.795C588.575 289.519 588.94 291.061 589.679 292.42C590.429 293.769 591.461 294.826 592.784 295.587C594.101 296.352 595.601 296.732 597.284 296.732C598.919 296.732 600.388 296.357 601.679 295.607C602.981 294.857 604.023 293.852 604.804 292.587H611.117C610.476 294.462 609.492 296.123 608.159 297.566C606.836 298.998 605.247 300.118 603.388 300.92C601.539 301.722 599.502 302.128 597.284 302.128C594.461 302.128 591.955 301.524 589.763 300.316C587.58 299.097 585.867 297.41 584.617 295.253C583.377 293.087 582.763 290.602 582.763 287.795Z" fill="white"/>
<path d="M616.931 287.795C616.931 285.003 617.545 282.535 618.785 280.378C620.035 278.212 621.748 276.524 623.931 275.316C626.123 274.097 628.629 273.482 631.451 273.482C634.311 273.482 636.832 274.097 639.014 275.316C641.191 276.524 642.91 278.212 644.16 280.378C645.41 282.535 646.035 285.003 646.035 287.795C646.035 289.852 645.67 291.753 644.951 293.503C644.228 295.243 643.207 296.753 641.889 298.045C640.582 299.326 639.04 300.326 637.264 301.045C635.498 301.764 633.561 302.128 631.451 302.128C628.629 302.128 626.123 301.524 623.931 300.316C621.748 299.097 620.035 297.41 618.785 295.253C617.545 293.087 616.931 290.602 616.931 287.795ZM622.743 287.795C622.743 289.519 623.108 291.061 623.847 292.42C624.597 293.769 625.629 294.826 626.951 295.587C628.269 296.352 629.769 296.732 631.451 296.732C633.144 296.732 634.644 296.347 635.951 295.566C637.269 294.79 638.311 293.727 639.076 292.378C639.837 291.019 640.222 289.493 640.222 287.795C640.222 286.061 639.847 284.519 639.097 283.17C638.347 281.826 637.311 280.774 635.993 280.024C634.686 279.264 633.17 278.878 631.451 278.878C629.769 278.878 628.269 279.264 626.951 280.024C625.629 280.774 624.597 281.826 623.847 283.17C623.108 284.519 622.743 286.061 622.743 287.795Z" fill="white"/>
<path d="M661.261 273.899L667.949 292.795L674.636 273.899H682.824V301.712H677.011V283.191L670.449 301.712H665.449L658.907 283.191V301.712H653.094V273.899H661.261Z" fill="white"/>
<path d="M711.792 283.399C711.792 285.29 711.333 286.957 710.417 288.399C709.5 289.832 708.219 290.941 706.583 291.733C704.958 292.514 703.052 292.899 700.875 292.899H696.521V301.712H690.708V273.899H700.875C703.052 273.899 704.958 274.295 706.583 275.087C708.219 275.868 709.5 276.972 710.417 278.399C711.333 279.832 711.792 281.498 711.792 283.399ZM705.979 283.399C705.979 282.097 705.526 281.087 704.625 280.379C703.719 279.66 702.469 279.295 700.875 279.295H696.521V287.504H700.875C702.417 287.504 703.651 287.144 704.583 286.42C705.51 285.686 705.979 284.681 705.979 283.399Z" fill="white"/>
<path d="M720.138 301.712H713.867L724.7 273.899H730.096L740.888 301.712H734.617L732.763 296.733H722.013L720.138 301.712ZM727.409 282.483L724.075 291.337H730.721L727.409 282.483Z" fill="white"/>
<path d="M763.818 273.899H769.631V301.712H763.61L752.527 284.024V301.712H746.714V273.899H752.735L763.818 291.587V273.899Z" fill="white"/>
<path d="M777.52 273.899H783.332V301.712H777.52V273.899Z" fill="white"/>
<path d="M810.721 273.899V279.295H797.033V284.899H809.283V290.295H797.033V296.316H810.721V301.712H791.221V273.899H810.721Z" fill="white"/>
<path d="M839.665 293.607C839.665 295.331 839.227 296.837 838.352 298.128C837.477 299.41 836.248 300.394 834.665 301.087C833.092 301.779 831.233 302.128 829.082 302.128C826.717 302.128 824.67 301.738 822.936 300.962C821.212 300.186 819.884 299.097 818.957 297.691C818.04 296.274 817.582 294.602 817.582 292.67H823.394C823.394 293.936 823.894 294.93 824.894 295.649C825.904 296.373 827.3 296.732 829.082 296.732C830.509 296.732 831.654 296.462 832.519 295.92C833.378 295.378 833.811 294.68 833.811 293.816C833.811 292.972 833.399 292.274 832.582 291.732C831.759 291.191 830.415 290.727 828.54 290.337C825.108 289.618 822.592 288.561 820.998 287.17C819.415 285.769 818.623 283.982 818.623 281.816C818.623 280.165 819.04 278.712 819.873 277.462C820.717 276.212 821.884 275.243 823.373 274.545C824.873 273.837 826.608 273.482 828.582 273.482C830.54 273.482 832.274 273.852 833.79 274.587C835.3 275.311 836.483 276.311 837.332 277.587C838.191 278.868 838.623 280.331 838.623 281.982H832.811C832.811 281.107 832.404 280.378 831.602 279.795C830.811 279.212 829.79 278.92 828.54 278.92C827.259 278.92 826.259 279.144 825.54 279.587C824.832 280.035 824.477 280.639 824.477 281.399C824.477 282.18 824.904 282.831 825.769 283.357C826.644 283.889 828.092 284.389 830.123 284.857C833.441 285.607 835.858 286.686 837.373 288.087C838.899 289.477 839.665 291.316 839.665 293.607Z" fill="white"/>
<mask id="mask1_24_1179" style="mask-type:luminance" maskUnits="userSpaceOnUse" x="803" y="0" width="62" height="62">
<path d="M803.965 0.65625H864.351V61.0417H803.965V0.65625Z" fill="white"/>
</mask>
<g mask="url(#mask1_24_1179)">
<mask id="mask2_24_1179" style="mask-type:luminance" maskUnits="userSpaceOnUse" x="803" y="0" width="62" height="62">
<path d="M834.158 0.65625C817.481 0.65625 803.965 14.1719 803.965 30.849C803.965 47.526 817.481 61.0417 834.158 61.0417C850.835 61.0417 864.351 47.526 864.351 30.849C864.351 14.1719 850.835 0.65625 834.158 0.65625Z" fill="white"/>
</mask>
<g mask="url(#mask2_24_1179)">
<path d="M803.965 0.65625H864.351V61.0417H803.965V0.65625Z" fill="#07EA3D"/>
</g>
</g>
</svg>
