<svg width="583" height="622" viewBox="0 0 583 622" fill="none" xmlns="http://www.w3.org/2000/svg">
<path fill-rule="evenodd" clip-rule="evenodd" d="M167.877 37.4337C138.466 43.8312 95.3621 67.172 71.6145 89.5541C35.1387 123.941 10.0177 171.034 2.83829 218.497C0.739126 232.382 -0.13361 270.879 0.417592 324.964L1.29033 409.685L16.9537 389.248C25.5662 378.01 41.8083 359.846 53.039 348.894C73.4473 328.986 127.851 286.737 149.366 274.092C170.28 261.793 228.946 233.565 241.206 229.898C258.775 224.642 256.033 221.976 235.928 224.777C211.96 228.116 171.777 242.268 142.366 257.733C128.82 264.856 116.845 270.683 115.752 270.683C112.169 270.683 113.685 242.67 117.934 230.413C126.859 204.659 152.288 182.473 183.541 173.176C217.123 163.182 268.214 167.681 303.955 183.778L316.789 189.558L314.842 217.8C311.3 269.074 299.968 299.004 275.679 321.241C244.628 349.665 195.139 353.926 153.312 331.787C137.566 323.453 137.198 323.402 128.999 328.481C103.038 344.554 59.7545 394.35 35.6624 435.855C14.0231 473.136 6.9769 497.043 7.01824 533.062C7.0412 558.91 7.88179 563.67 14.7351 576.952C30.6832 607.864 58.8037 623.259 94.9166 620.855C127.382 618.695 155.066 600.33 170.165 570.933C177.087 557.455 177.79 552.877 178.754 514.945L179.802 473.637L203.03 475.433C261.66 479.978 326.403 456.16 367.83 414.796C393.053 389.622 405.951 371.538 402.611 366.033C401.284 363.854 401.711 363.321 403.755 364.607C406.856 366.562 409.318 362.161 422.675 330.781C441.15 287.411 439.174 213.194 418.265 164.861C391.661 103.373 335.957 55.4478 271.623 38.6963C245.252 31.8265 196.374 31.2325 167.877 37.4337Z" fill="white"/>
<mask id="mask0_23_142" style="mask-type:luminance" maskUnits="userSpaceOnUse" x="434" y="0" width="149" height="149">
<path d="M434.277 0.0722656H582.238V148.029H434.277V0.0722656Z" fill="white"/>
</mask>
<g mask="url(#mask0_23_142)">
<mask id="mask1_23_142" style="mask-type:luminance" maskUnits="userSpaceOnUse" x="434" y="0" width="149" height="149">
<path d="M508.257 0.0722656C467.4 0.0722656 434.277 33.1913 434.277 74.0528C434.277 114.91 467.4 148.029 508.257 148.029C549.114 148.029 582.238 114.91 582.238 74.0528C582.238 33.1913 549.114 0.0722656 508.257 0.0722656Z" fill="white"/>
</mask>
<g mask="url(#mask1_23_142)">
<path d="M434.277 0.0722656H582.238V148.029H434.277V0.0722656Z" fill="#07EA3D"/>
</g>
</g>
</svg>
