<svg width="865" height="461" viewBox="0 0 865 461" fill="none" xmlns="http://www.w3.org/2000/svg">
<path d="M383.425 200.345C392.675 200.345 400.034 197.605 405.508 192.116C410.993 186.632 413.737 179.376 413.737 170.345V84.2617H455.654V170.678C455.654 184.428 452.534 196.736 446.3 207.595C440.06 218.46 431.514 226.949 420.654 233.074C409.805 239.199 397.394 242.262 383.425 242.262C369.451 242.262 356.987 239.199 346.029 233.074C335.071 226.949 326.472 218.46 320.237 207.595C313.998 196.736 310.883 184.428 310.883 170.678V84.2617H352.8V170.345C352.8 179.376 355.592 186.632 361.175 192.116C366.769 197.605 374.185 200.345 383.425 200.345Z" fill="white"/>
<path d="M585.253 119.741L516.566 197.116H586.857V239.033H454.67V203.574L523.336 126.178H459.503V84.2617H585.253V119.741Z" fill="white"/>
<path d="M658.419 200.345C667.669 200.345 675.028 197.605 680.502 192.116C685.987 186.632 688.732 179.376 688.732 170.345V84.2617H730.648V170.678C730.648 184.428 727.528 196.736 721.294 207.595C715.055 218.46 706.508 226.949 695.648 233.074C684.799 239.199 672.388 242.262 658.419 242.262C644.445 242.262 631.982 239.199 621.023 233.074C610.065 226.949 601.466 218.46 595.232 207.595C588.992 196.736 585.877 184.428 585.877 170.678V84.2617H627.794V170.345C627.794 179.376 630.586 186.632 636.169 192.116C641.763 197.605 649.18 200.345 658.419 200.345Z" fill="white"/>
<path d="M807.039 81.0332V122.95C797.799 122.95 790.382 125.695 784.789 131.179C779.205 136.669 776.414 143.924 776.414 152.95V239.033H734.497V152.617C734.497 138.648 737.612 126.283 743.851 115.533C750.086 104.783 758.685 96.3457 769.643 90.2207C780.601 84.0957 793.065 81.0332 807.039 81.0332Z" fill="white"/>
<path d="M818.963 10.0957C826.489 10.0957 832.671 12.5228 837.504 17.3665C842.338 22.1999 844.754 28.377 844.754 35.8874C844.754 43.2103 842.338 49.3405 837.504 54.2832C832.671 59.2311 826.489 61.6999 818.963 61.6999C811.655 61.6999 805.53 59.2311 800.588 54.2832C795.64 49.3405 793.171 43.2103 793.171 35.8874C793.171 28.377 795.64 22.1999 800.588 17.3665C805.53 12.5228 811.655 10.0957 818.963 10.0957ZM798.004 239.033V84.2624H839.921V239.033H798.004Z" fill="white"/>
<mask id="mask0_24_878" style="mask-type:luminance" maskUnits="userSpaceOnUse" x="789" y="0" width="76" height="77">
<path d="M789.344 0.985352H864.86V76.501H789.344V0.985352Z" fill="white"/>
</mask>
<g mask="url(#mask0_24_878)">
<mask id="mask1_24_878" style="mask-type:luminance" maskUnits="userSpaceOnUse" x="789" y="0" width="76" height="77">
<path d="M827.105 0.985352C806.251 0.985352 789.344 17.8916 789.344 38.7458C789.344 59.5947 806.251 76.501 827.105 76.501C847.954 76.501 864.86 59.5947 864.86 38.7458C864.86 17.8916 847.954 0.985352 827.105 0.985352Z" fill="white"/>
</mask>
<g mask="url(#mask1_24_878)">
<path d="M789.344 0.985352H864.86V76.501H789.344V0.985352Z" fill="#38B6FF"/>
</g>
</g>
<mask id="mask2_24_878" style="mask-type:luminance" maskUnits="userSpaceOnUse" x="0" y="71" width="295" height="390">
<path d="M0.860107 71.668H294.86V460.73H0.860107V71.668Z" fill="white"/>
</mask>
<g mask="url(#mask2_24_878)">
<path d="M114.798 75.1886C133.959 71.0896 166.834 71.4855 184.563 76.0219C227.829 87.0844 265.292 118.741 283.183 159.36C297.246 191.282 298.574 240.303 286.152 268.954C277.167 289.678 275.511 292.59 273.423 291.298C272.048 290.449 271.761 290.798 272.657 292.241C274.902 295.876 266.225 307.819 249.266 324.449C221.402 351.772 177.865 367.506 138.433 364.501L122.813 363.319L122.11 390.6C121.459 415.657 120.99 418.678 116.334 427.584C106.183 447.001 87.5633 459.131 65.7299 460.558C41.4435 462.147 22.532 451.975 11.8081 431.558C7.19869 422.788 6.63099 419.642 6.61536 402.569C6.59453 384.345 5.12057 361.366 4.43307 351.61L104.433 290.303L124.423 295.288C135.423 298.032 149.407 300.069 155.506 299.819C183.871 298.657 215.152 264.897 215.584 234.98C215.704 226.84 214.928 218.642 213.855 216.756C212.782 214.871 200.6 221.204 186.787 230.834C172.975 240.465 159.563 247.907 156.99 247.387C154.417 246.86 147.506 238.814 141.636 229.501L130.949 212.569L156.475 193.491C170.511 182.996 182.36 173.298 182.813 171.939C185.011 165.277 146.568 159.631 128.845 164.017C111.542 168.298 106.73 171.397 94.7716 185.954C87.1154 195.277 79.9852 210.22 78.9279 219.147C77.0424 235.168 43.9383 244.819 2.20911 268.355L2.17786 265.11C1.80286 229.386 2.3914 203.954 3.80807 194.788C8.63619 163.433 25.5268 132.324 50.0581 109.616C66.0268 94.8292 95.0164 79.4125 114.798 75.1886ZM3.13099 328.241L2.7664 321.074L2.71953 316.829L3.13099 328.241Z" fill="#38B6FF"/>
</g>
<path d="M341.3 296.01C338.034 296.01 335.3 297.104 333.091 299.281C330.883 301.448 329.779 304.198 329.779 307.531C329.779 310.797 330.883 313.531 333.091 315.74C335.3 317.948 338.034 319.052 341.3 319.052C343.675 319.052 345.768 318.479 347.591 317.323C349.409 316.172 350.768 314.672 351.675 312.823H364.737C363.956 316.406 362.466 319.625 360.258 322.469C358.05 325.318 355.31 327.542 352.05 329.135C348.784 330.729 345.201 331.531 341.3 331.531C336.826 331.531 332.779 330.464 329.154 328.323C325.539 326.172 322.659 323.292 320.508 319.677C318.367 316.068 317.3 312.021 317.3 307.531C317.3 302.99 318.367 298.917 320.508 295.302C322.659 291.677 325.539 288.813 329.154 286.698C332.779 284.589 336.826 283.531 341.3 283.531C345.201 283.531 348.784 284.333 352.05 285.927C355.31 287.526 358.05 289.734 360.258 292.552C362.466 295.375 363.956 298.609 364.737 302.26H351.675C350.768 300.401 349.409 298.896 347.591 297.74C345.768 296.589 343.675 296.01 341.3 296.01Z" fill="white"/>
<path d="M370.483 307.531C370.483 302.99 371.551 298.917 373.692 295.302C375.843 291.677 378.723 288.813 382.338 286.698C385.963 284.589 390.009 283.531 394.483 283.531C399.025 283.531 403.098 284.589 406.713 286.698C410.338 288.813 413.202 291.677 415.317 295.302C417.426 298.917 418.483 302.99 418.483 307.531C418.483 312.021 417.426 316.068 415.317 319.677C413.202 323.292 410.338 326.172 406.713 328.323C403.098 330.464 399.025 331.531 394.483 331.531C390.009 331.531 385.963 330.464 382.338 328.323C378.723 326.172 375.843 323.292 373.692 319.677C371.551 316.068 370.483 312.021 370.483 307.531ZM382.963 307.531C382.963 310.797 384.067 313.531 386.275 315.74C388.483 317.948 391.218 319.052 394.483 319.052C397.817 319.052 400.567 317.948 402.733 315.74C404.91 313.531 406.004 310.797 406.004 307.531C406.004 304.198 404.91 301.448 402.733 299.281C400.567 297.104 397.817 296.01 394.483 296.01C391.218 296.01 388.483 297.104 386.275 299.281C384.067 301.448 382.963 304.198 382.963 307.531Z" fill="white"/>
<path d="M447.764 296.01C445.014 296.01 442.806 296.833 441.139 298.469C439.473 300.094 438.639 302.255 438.639 304.948V330.573H426.16V304.844C426.16 300.693 427.087 297.021 428.952 293.823C430.811 290.615 433.374 288.104 436.639 286.281C439.9 284.448 443.608 283.531 447.764 283.531C451.931 283.531 455.624 284.448 458.848 286.281C462.082 288.104 464.624 290.615 466.473 293.823C468.332 297.021 469.264 300.693 469.264 304.844V330.573H456.785V304.948C456.785 302.255 455.962 300.094 454.327 298.469C452.702 296.833 450.514 296.01 447.764 296.01Z" fill="white"/>
<path d="M517.364 301.302H504.885C504.885 299.443 504.135 297.938 502.635 296.781C501.135 295.63 499.135 295.052 496.635 295.052C494.645 295.052 493.031 295.443 491.781 296.219C490.531 296.984 489.906 297.969 489.906 299.177C489.906 300.458 490.64 301.609 492.114 302.635C493.583 303.667 495.473 304.719 497.781 305.802C500.083 306.885 502.531 308.125 505.114 309.51C507.708 310.885 510.161 312.521 512.468 314.406C514.77 316.281 516.661 318.531 518.135 321.156C519.604 323.781 520.343 326.922 520.343 330.573H507.864C507.864 328.271 507.124 326.318 505.656 324.719C504.182 323.125 502.291 321.698 499.989 320.448C497.682 319.198 495.229 317.948 492.635 316.698C490.052 315.448 487.604 314.063 485.302 312.531C482.994 310.99 481.104 309.151 479.635 307.01C478.161 304.859 477.427 302.25 477.427 299.177C477.427 296.177 478.27 293.5 479.968 291.135C481.677 288.76 484.031 286.901 487.031 285.552C490.041 284.208 493.437 283.531 497.218 283.531C501.177 283.531 504.677 284.292 507.718 285.802C510.76 287.302 513.124 289.38 514.822 292.031C516.515 294.688 517.364 297.776 517.364 301.302ZM484.531 317.135C486.583 317.135 488.312 317.844 489.718 319.26C491.119 320.667 491.822 322.385 491.822 324.427C491.822 326.417 491.119 328.094 489.718 329.469C488.312 330.844 486.583 331.531 484.531 331.531C482.541 331.531 480.864 330.844 479.489 329.469C478.114 328.094 477.427 326.417 477.427 324.427C477.427 322.385 478.114 320.667 479.489 319.26C480.864 317.844 482.541 317.135 484.531 317.135Z" fill="white"/>
<path d="M523.701 296.969V284.49H529.472V272.011H541.951V284.49H551.055V296.969H541.951V309.157C541.951 311.854 542.774 314.021 544.43 315.657C546.097 317.282 548.305 318.094 551.055 318.094V330.573C546.899 330.573 543.191 329.667 539.93 327.844C536.665 326.011 534.102 323.485 532.243 320.261C530.394 317.026 529.472 313.36 529.472 309.261V296.969H523.701Z" fill="white"/>
<path d="M579.86 283.531V296.01C577.11 296.01 574.902 296.833 573.235 298.469C571.569 300.094 570.735 302.255 570.735 304.948V330.573H558.256V304.844C558.256 300.693 559.183 297.021 561.048 293.823C562.907 290.615 565.47 288.104 568.735 286.281C571.996 284.448 575.704 283.531 579.86 283.531Z" fill="white"/>
<path d="M607.22 319.052C609.97 319.052 612.158 318.239 613.783 316.614C615.418 314.979 616.241 312.812 616.241 310.114V284.489H628.72V310.218C628.72 314.317 627.788 317.984 625.929 321.218C624.08 324.442 621.538 326.968 618.304 328.802C615.08 330.619 611.387 331.531 607.22 331.531C603.064 331.531 599.356 330.619 596.095 328.802C592.83 326.968 590.267 324.442 588.408 321.218C586.543 317.984 585.616 314.317 585.616 310.218V284.489H598.095V310.114C598.095 312.812 598.929 314.979 600.595 316.614C602.262 318.239 604.47 319.052 607.22 319.052Z" fill="white"/>
<path d="M660.403 296.01C657.138 296.01 654.403 297.104 652.195 299.281C649.987 301.448 648.882 304.198 648.882 307.531C648.882 310.797 649.987 313.531 652.195 315.74C654.403 317.948 657.138 319.052 660.403 319.052C662.778 319.052 664.872 318.479 666.695 317.323C668.513 316.172 669.872 314.672 670.778 312.823H683.841C683.06 316.406 681.57 319.625 679.362 322.469C677.153 325.318 674.414 327.542 671.153 329.135C667.888 330.729 664.304 331.531 660.403 331.531C655.929 331.531 651.882 330.464 648.257 328.323C644.643 326.172 641.763 323.292 639.612 319.677C637.471 316.068 636.403 312.021 636.403 307.531C636.403 302.99 637.471 298.917 639.612 295.302C641.763 291.677 644.643 288.813 648.257 286.698C651.882 284.589 655.929 283.531 660.403 283.531C664.304 283.531 667.888 284.333 671.153 285.927C674.414 287.526 677.153 289.734 679.362 292.552C681.57 295.375 683.06 298.609 683.841 302.26H670.778C669.872 300.401 668.513 298.896 666.695 297.74C664.872 296.589 662.778 296.01 660.403 296.01Z" fill="white"/>
<path d="M688.149 296.969V284.49H693.92V272.011H706.399V284.49H715.503V296.969H706.399V309.157C706.399 311.854 707.222 314.021 708.878 315.657C710.545 317.282 712.753 318.094 715.503 318.094V330.573C711.347 330.573 707.639 329.667 704.378 327.844C701.112 326.011 698.55 323.485 696.691 320.261C694.842 317.026 693.92 313.36 693.92 309.261V296.969H688.149Z" fill="white"/>
<path d="M728.954 262.406C731.188 262.406 733.027 263.13 734.475 264.573C735.917 266.021 736.641 267.859 736.641 270.094C736.641 272.276 735.917 274.104 734.475 275.573C733.027 277.047 731.188 277.781 728.954 277.781C726.772 277.781 724.943 277.047 723.475 275.573C722.001 274.104 721.266 272.276 721.266 270.094C721.266 267.859 722.001 266.021 723.475 264.573C724.943 263.13 726.772 262.406 728.954 262.406ZM722.704 330.573V284.49H735.183V330.573H722.704Z" fill="white"/>
<path d="M742.867 307.531C742.867 302.99 743.935 298.917 746.076 295.302C748.227 291.677 751.107 288.813 754.721 286.698C758.346 284.589 762.393 283.531 766.867 283.531C771.409 283.531 775.482 284.589 779.096 286.698C782.721 288.813 785.586 291.677 787.701 295.302C789.81 298.917 790.867 302.99 790.867 307.531C790.867 312.021 789.81 316.068 787.701 319.677C785.586 323.292 782.721 326.172 779.096 328.323C775.482 330.464 771.409 331.531 766.867 331.531C762.393 331.531 758.346 330.464 754.721 328.323C751.107 326.172 748.227 323.292 746.076 319.677C743.935 316.068 742.867 312.021 742.867 307.531ZM755.346 307.531C755.346 310.797 756.451 313.531 758.659 315.74C760.867 317.948 763.602 319.052 766.867 319.052C770.201 319.052 772.951 317.948 775.117 315.74C777.294 313.531 778.388 310.797 778.388 307.531C778.388 304.198 777.294 301.448 775.117 299.281C772.951 297.104 770.201 296.01 766.867 296.01C763.602 296.01 760.867 297.104 758.659 299.281C756.451 301.448 755.346 304.198 755.346 307.531Z" fill="white"/>
<path d="M820.148 296.01C817.398 296.01 815.19 296.833 813.523 298.469C811.856 300.094 811.023 302.255 811.023 304.948V330.573H798.544V304.844C798.544 300.693 799.471 297.021 801.336 293.823C803.195 290.615 805.757 288.104 809.023 286.281C812.284 284.448 815.992 283.531 820.148 283.531C824.315 283.531 828.007 284.448 831.231 286.281C834.466 288.104 837.007 290.615 838.856 293.823C840.716 297.021 841.648 300.693 841.648 304.844V330.573H829.169V304.948C829.169 302.255 828.346 300.094 826.711 298.469C825.086 296.833 822.898 296.01 820.148 296.01Z" fill="white"/>
</svg>
