<svg width="629" height="489" viewBox="0 0 629 489" fill="none" xmlns="http://www.w3.org/2000/svg">
<mask id="mask0_23_426" style="mask-type:luminance" maskUnits="userSpaceOnUse" x="0" y="62" width="566" height="427">
<path d="M0.707275 62.3213H565.717V488.464H0.707275V62.3213Z" fill="white"/>
</mask>
<g mask="url(#mask0_23_426)">
<path fill-rule="evenodd" clip-rule="evenodd" d="M1.3702 119.426V176.28H182.977C359.009 176.28 364.949 176.373 376.75 179.395C422.952 191.218 455.395 234.758 452.329 280.831C449.49 323.446 418.253 361.006 376.901 371.521C365.06 374.533 342.131 374.538 329.396 371.534C324.003 370.262 315.201 367.009 309.844 364.303C304.491 361.598 272.03 338.126 237.713 312.139C157.583 251.458 151.006 246.933 135.365 241.784C81.2652 223.968 25.2163 251.939 5.78879 306.457C2.1845 316.576 2.15335 317.27 1.69948 402.518L1.24561 488.389H114.247V425.652C114.247 391.149 114.714 362.92 115.283 362.92C115.853 362.92 122.732 367.774 130.568 373.706C230.474 449.347 238.635 455.256 254.974 463.751C287.88 480.855 314.912 487.356 353.322 487.41C391.318 487.459 418.72 480.9 451.185 463.978C507.919 434.409 547.807 382.151 561.85 319.005C565.895 300.815 566.714 261.617 563.461 241.833C548.964 153.591 478.671 82.2703 389.966 65.7973C378.641 63.6926 351.053 63.3055 189.105 62.9629L1.3702 62.5713V119.426Z" fill="white"/>
</g>
<mask id="mask1_23_426" style="mask-type:luminance" maskUnits="userSpaceOnUse" x="504" y="0" width="125" height="124">
<path d="M504.849 0.532227H628.071V123.754H504.849V0.532227Z" fill="white"/>
</mask>
<g mask="url(#mask1_23_426)">
<mask id="mask2_23_426" style="mask-type:luminance" maskUnits="userSpaceOnUse" x="504" y="0" width="125" height="124">
<path d="M566.46 0.532227C532.433 0.532227 504.849 28.1161 504.849 62.1433C504.849 96.1704 532.433 123.754 566.46 123.754C600.487 123.754 628.071 96.1704 628.071 62.1433C628.071 28.1161 600.487 0.532227 566.46 0.532227Z" fill="white"/>
</mask>
<g mask="url(#mask2_23_426)">
<path d="M504.849 0.532227H628.071V123.754H504.849V0.532227Z" fill="#07EA3D"/>
</g>
</g>
</svg>
