<svg width="590" height="649" viewBox="0 0 590 649" fill="none" xmlns="http://www.w3.org/2000/svg">
<mask id="mask0_24_1163" style="mask-type:luminance" maskUnits="userSpaceOnUse" x="446" y="0" width="144" height="144">
<path d="M446.292 0.0478516H589.717V143.477H446.292V0.0478516Z" fill="white"/>
</mask>
<g mask="url(#mask0_24_1163)">
<mask id="mask1_24_1163" style="mask-type:luminance" maskUnits="userSpaceOnUse" x="446" y="0" width="144" height="144">
<path d="M518.004 0.0478516C478.397 0.0478516 446.292 32.1578 446.292 71.7605C446.292 111.367 478.397 143.477 518.004 143.477C557.607 143.477 589.717 111.367 589.717 71.7605C589.717 32.1578 557.607 0.0478516 518.004 0.0478516Z" fill="white"/>
</mask>
<g mask="url(#mask1_24_1163)">
<path d="M446.292 0.0478516H589.717V143.477H446.292V0.0478516Z" fill="#FF5757"/>
</g>
</g>
<mask id="mask2_24_1163" style="mask-type:luminance" maskUnits="userSpaceOnUse" x="0" y="55" width="447" height="594">
<path d="M0.683105 55.6865H446.026V648.192H0.683105V55.6865Z" fill="white"/>
</mask>
<g mask="url(#mask2_24_1163)">
<path d="M172.241 60.9804C201.38 54.7522 251.36 55.348 278.326 62.2449C344.119 79.0736 401.078 127.211 428.284 188.97C449.669 237.514 451.688 312.06 432.798 355.624C419.141 387.138 416.621 391.557 413.449 389.598C411.357 388.304 410.924 388.84 412.283 391.034C415.691 396.564 402.501 414.721 376.714 440.007C334.351 481.556 268.142 505.479 208.183 500.914L184.431 499.109L183.36 540.598C182.374 578.7 181.654 583.3 174.577 596.836C159.141 626.362 130.829 644.811 97.626 646.975C60.6937 649.393 31.9401 633.927 15.6301 602.88C8.6217 589.541 7.76869 584.761 7.73868 558.798C7.7001 522.698 3.91515 474.329 3.89801 474.119L2.89069 454.496L2.24772 441.94C6.98855 438.486 11.9909 435.459 17.0489 433.059C39.4371 422.424 55.0913 421.85 96.6058 430.135C126.778 436.158 131.185 436.544 159.475 435.622C182.301 434.876 193.686 433.539 205.101 430.247C247.974 417.889 288.867 388.788 312.151 354.068C327.839 330.677 330.283 320.582 320.248 320.625C310.505 320.663 290.8 332.057 260.85 354.968C243.777 368.025 236.169 372.474 220.112 378.784C207.304 383.816 203.703 384.292 177.723 384.365C151.704 384.437 147.975 383.97 133.109 378.754C124.185 375.62 116.225 372.418 115.419 371.629C114.613 370.841 131.498 370.223 152.939 370.245C189.674 370.288 192.533 370.013 202.567 365.478C208.423 362.834 213.211 359.949 213.211 359.079C213.211 358.204 208.418 356.845 202.567 356.061C196.712 355.272 172.296 349.678 148.318 343.622C109.427 333.806 102.418 332.614 83.4249 332.58C67.2135 332.55 58.9877 333.561 48.9488 336.815C41.7004 339.168 28.7381 341.628 20.148 342.284C10.2077 343.047 6.0241 343.077 0.914623 341.316C0.524554 291.447 1.43329 256.049 3.46936 242.842C10.8078 195.168 36.4966 147.867 73.8018 113.331C98.0846 90.8485 142.162 67.4058 172.241 60.9804ZM282.3 206.969C272.222 183.741 243.032 184.499 216.584 208.671L205.889 218.448L196.215 209.172C183.544 197.033 168.829 190.23 155.185 190.205C146.286 190.187 143.495 191.161 137.61 196.33C129.436 203.51 124.185 217.077 124.185 231.033C124.185 251.887 140.195 280.593 161.396 297.756C175.177 308.918 197.796 320.578 205.748 320.625C215.525 320.68 241.248 306.239 255.66 292.604C284.97 264.875 294.345 234.737 282.3 206.969Z" fill="white"/>
</g>
</svg>
