<svg width="859" height="430" viewBox="0 0 859 430" fill="none" xmlns="http://www.w3.org/2000/svg">
<path d="M368.292 205.446C377.779 205.446 385.343 202.636 390.984 197.011C396.619 191.376 399.44 183.913 399.44 174.618V86.126H442.528V174.958C442.528 189.097 439.319 201.744 432.903 212.904C426.497 224.069 417.717 232.801 406.557 239.101C395.408 245.39 382.655 248.534 368.292 248.534C353.93 248.534 341.107 245.39 329.836 239.101C318.575 232.801 309.737 224.069 303.32 212.904C296.915 201.744 293.717 189.097 293.717 174.958V86.126H336.805V174.618C336.805 183.913 339.673 191.376 345.41 197.011C351.157 202.636 358.784 205.446 368.292 205.446Z" fill="white"/>
<path d="M575.77 122.585L505.168 202.132H577.427V245.22H441.535V208.761L512.137 129.214H446.506V86.126H575.77V122.585Z" fill="white"/>
<path d="M651.002 205.446C660.489 205.446 668.053 202.636 673.694 197.011C679.329 191.376 682.15 183.913 682.15 174.618V86.126H725.238V174.958C725.238 189.097 722.03 201.744 715.613 212.904C709.207 224.069 700.427 232.801 689.267 239.101C678.118 245.39 665.365 248.534 651.002 248.534C636.64 248.534 623.818 245.39 612.546 239.101C601.286 232.801 592.447 224.069 586.031 212.904C579.625 201.744 576.427 189.097 576.427 174.958V86.126H619.515V174.618C619.515 183.913 622.383 191.376 628.12 197.011C633.867 202.636 641.495 205.446 651.002 205.446Z" fill="white"/>
<path d="M803.792 82.8115V125.899C794.284 125.899 786.656 128.72 780.909 134.356C775.172 139.996 772.304 147.454 772.304 156.728V245.22H729.216V156.388C729.216 142.041 732.414 129.341 738.82 118.293C745.236 107.245 754.075 98.5711 765.335 92.2662C776.607 85.9666 789.429 82.8115 803.792 82.8115Z" fill="white"/>
<path d="M816.052 9.91406C823.785 9.91406 830.138 12.3999 835.11 17.3716C840.082 22.3433 842.567 28.696 842.567 36.4297C842.567 43.9403 840.082 50.2346 835.11 55.3178C830.138 60.4064 823.785 62.9453 816.052 62.9453C808.541 62.9453 802.247 60.4064 797.164 55.3178C792.075 50.2346 789.536 43.9403 789.536 36.4297C789.536 28.696 792.075 22.3433 797.164 17.3716C802.247 12.3999 808.541 9.91406 816.052 9.91406ZM794.508 245.219V86.1253H837.596V245.219H794.508Z" fill="white"/>
<mask id="mask0_24_1044" style="mask-type:luminance" maskUnits="userSpaceOnUse" x="779" y="0" width="80" height="80">
<path d="M779.037 0.15625H858.35V79.4694H779.037V0.15625Z" fill="white"/>
</mask>
<g mask="url(#mask0_24_1044)">
<mask id="mask1_24_1044" style="mask-type:luminance" maskUnits="userSpaceOnUse" x="779" y="0" width="80" height="80">
<path d="M818.694 0.15625C796.794 0.15625 779.037 17.913 779.037 39.8128C779.037 61.718 796.794 79.4694 818.694 79.4694C840.594 79.4694 858.35 61.718 858.35 39.8128C858.35 17.913 840.594 0.15625 818.694 0.15625Z" fill="white"/>
</mask>
<g mask="url(#mask1_24_1044)">
<path d="M779.037 0.15625H858.35V79.4694H779.037V0.15625Z" fill="#FF5757"/>
</g>
</g>
<path d="M323.59 262.142V276.292C320.243 276.292 317.683 277.131 315.898 278.799C314.124 280.456 313.243 282.878 313.243 286.065H323.59V300.215H313.243V338.289H299.114V300.215H292.57V286.065H299.114C299.114 281.279 300.123 277.094 302.152 273.508C304.176 269.928 307.039 267.135 310.736 265.137C314.443 263.14 318.73 262.142 323.59 262.142Z" fill="white"/>
<path d="M331.963 312.177C331.963 307.035 333.174 302.42 335.596 298.324C338.029 294.218 341.295 290.968 345.39 288.572C349.48 286.182 354.07 284.981 359.158 284.981C364.3 284.981 368.916 286.182 373.011 288.572C377.117 290.968 380.367 294.218 382.763 298.324C385.153 302.42 386.354 307.035 386.354 312.177C386.354 317.266 385.153 321.855 382.763 325.945C380.367 330.04 377.117 333.307 373.011 335.739C368.916 338.161 364.3 339.372 359.158 339.372C354.07 339.372 349.48 338.161 345.39 335.739C341.295 333.307 338.029 330.04 335.596 325.945C333.174 321.855 331.963 317.266 331.963 312.177ZM346.092 312.177C346.092 315.874 347.334 318.976 349.831 321.483C352.338 323.99 355.445 325.244 359.158 325.244C362.924 325.244 366.042 323.99 368.507 321.483C370.971 318.976 372.204 315.874 372.204 312.177C372.204 308.411 370.971 305.293 368.507 302.829C366.042 300.364 362.924 299.132 359.158 299.132C355.445 299.132 352.338 300.364 349.831 302.829C347.334 305.293 346.092 308.411 346.092 312.177Z" fill="white"/>
<path d="M423.542 325.243C426.655 325.243 429.136 324.319 430.979 322.46C432.832 320.606 433.762 318.157 433.762 315.108V286.064H447.912V315.236C447.912 319.868 446.855 324.021 444.746 327.686C442.648 331.341 439.764 334.204 436.099 336.27C432.445 338.336 428.259 339.372 423.542 339.372C418.826 339.372 414.619 338.336 410.922 336.27C407.225 334.204 404.32 331.341 402.211 327.686C400.113 324.021 399.066 319.868 399.066 315.236V286.064H413.217V315.108C413.217 318.157 414.157 320.606 416.042 322.46C417.923 324.319 420.424 325.243 423.542 325.243Z" fill="white"/>
<path d="M487.284 299.132C484.166 299.132 481.664 300.061 479.784 301.915C477.898 303.758 476.958 306.201 476.958 309.245V338.289H462.808V309.139C462.808 304.422 463.854 300.252 465.952 296.625C468.061 293.002 470.966 290.155 474.663 288.083C478.36 286.017 482.567 284.981 487.284 284.981C492 284.981 496.186 286.017 499.84 288.083C503.505 290.155 506.39 293.002 508.488 296.625C510.596 300.252 511.653 304.422 511.653 309.139V338.289H497.503V309.245C497.503 306.201 496.574 303.758 494.72 301.915C492.877 300.061 490.396 299.132 487.284 299.132Z" fill="white"/>
<path d="M563.538 288.784V265.413H577.667V317.616H563.538V311.645C563.538 308.023 562.337 305.032 559.947 302.679C557.552 300.316 554.577 299.131 551.024 299.131C547.465 299.131 544.49 300.316 542.1 302.679C539.705 305.032 538.51 308.023 538.51 311.645C538.51 315.188 539.705 318.158 542.1 320.548C544.49 322.943 547.465 324.138 551.024 324.138H577.667V338.289H551.024C546.02 338.289 541.505 337.115 537.468 334.762C533.442 332.398 530.255 329.19 527.908 325.137C525.554 321.074 524.381 316.575 524.381 311.645C524.381 306.631 525.517 302.116 527.801 298.09C530.08 294.069 533.177 290.882 537.086 288.529C541.006 286.166 545.362 284.981 550.153 284.981C552.617 284.981 554.976 285.31 557.228 285.958C559.48 286.612 561.583 287.552 563.538 288.784Z" fill="white"/>
<path d="M629.563 312.729V306.737H643.692V316.426C643.692 319.103 644.488 321.243 646.093 322.842C647.691 324.446 649.901 325.243 652.722 325.243V339.372C649.163 339.372 645.923 338.74 642.991 337.481C640.059 336.206 637.536 334.443 635.427 332.191C633.031 334.443 630.275 336.206 627.162 337.481C624.044 338.74 620.671 339.372 617.049 339.372C612.119 339.372 607.62 338.198 603.557 335.845C599.488 333.481 596.28 330.273 593.932 326.22C591.579 322.157 590.406 317.658 590.406 312.729C590.406 307.731 591.579 303.221 593.932 299.195C596.28 295.158 599.467 291.966 603.493 289.613C607.53 287.249 612.045 286.064 617.049 286.064H643.692V300.215H617.049C613.49 300.215 610.515 301.415 608.125 303.805C605.73 306.201 604.534 309.175 604.534 312.729C604.534 316.288 605.73 319.262 608.125 321.652C610.515 324.048 613.49 325.243 617.049 325.243C620.602 325.243 623.577 324.048 625.972 321.652C628.362 319.262 629.563 316.288 629.563 312.729Z" fill="white"/>
<path d="M658.371 300.215V286.064H664.915V271.936H679.044V286.064H689.391V300.215H679.044V314.025C679.044 317.074 679.984 319.522 681.87 321.376C683.75 323.219 686.257 324.138 689.391 324.138V338.288C684.674 338.288 680.467 337.258 676.771 335.186C673.074 333.12 670.168 330.257 668.059 326.603C665.961 322.938 664.915 318.779 664.915 314.131V300.215H658.371Z" fill="white"/>
<path d="M708.638 261.058C711.171 261.058 713.253 261.876 714.884 263.501C716.509 265.132 717.327 267.214 717.327 269.747C717.327 272.212 716.509 274.284 714.884 275.951C713.253 277.625 711.171 278.459 708.638 278.459C706.173 278.459 704.101 277.625 702.434 275.951C700.76 274.284 699.927 272.212 699.927 269.747C699.927 267.214 700.76 265.132 702.434 263.501C704.101 261.876 706.173 261.058 708.638 261.058ZM701.562 338.289V286.065H715.713V338.289H701.562Z" fill="white"/>
<path d="M728.438 312.177C728.438 307.035 729.649 302.42 732.071 298.324C734.504 294.218 737.77 290.968 741.866 288.572C745.955 286.182 750.545 284.981 755.633 284.981C760.775 284.981 765.391 286.182 769.486 288.572C773.592 290.968 776.843 294.218 779.238 298.324C781.628 302.42 782.829 307.035 782.829 312.177C782.829 317.266 781.628 321.855 779.238 325.945C776.843 330.04 773.592 333.307 769.486 335.739C765.391 338.161 760.775 339.372 755.633 339.372C750.545 339.372 745.955 338.161 741.866 335.739C737.77 333.307 734.504 330.04 732.071 325.945C729.649 321.855 728.438 317.266 728.438 312.177ZM742.567 312.177C742.567 315.874 743.81 318.976 746.306 321.483C748.813 323.99 751.92 325.244 755.633 325.244C759.399 325.244 762.517 323.99 764.982 321.483C767.446 318.976 768.679 315.874 768.679 312.177C768.679 308.411 767.446 305.293 764.982 302.829C762.517 300.364 759.399 299.132 755.633 299.132C751.92 299.132 748.813 300.364 746.306 302.829C743.81 305.293 742.567 308.411 742.567 312.177Z" fill="white"/>
<path d="M820.018 299.132C816.9 299.132 814.399 300.061 812.518 301.915C810.633 303.758 809.692 306.201 809.692 309.245V338.289H795.542V309.139C795.542 304.422 796.589 300.252 798.687 296.625C800.795 293.002 803.701 290.155 807.398 288.083C811.095 286.017 815.301 284.981 820.018 284.981C824.735 284.981 828.92 286.017 832.575 288.083C836.24 290.155 839.124 293.002 841.222 296.625C843.331 300.252 844.388 304.422 844.388 309.139V338.289H830.238V309.245C830.238 306.201 829.308 303.758 827.454 301.915C825.611 300.061 823.131 299.132 820.018 299.132Z" fill="white"/>
<mask id="mask2_24_1044" style="mask-type:luminance" maskUnits="userSpaceOnUse" x="0" y="62" width="277" height="368">
<path d="M0.491699 62.748H276.733V429.723H0.491699V62.748Z" fill="white"/>
</mask>
<g mask="url(#mask2_24_1044)">
<path d="M107.409 66.063C125.432 62.2068 156.345 62.5786 173.019 66.8439C213.711 77.2493 248.932 107.021 265.76 145.217C278.986 175.238 280.234 221.338 268.554 248.278C260.103 267.772 258.546 270.502 256.586 269.291C255.29 268.494 255.025 268.824 255.864 270.178C257.973 273.599 249.814 284.828 233.863 300.465C207.666 326.163 166.719 340.956 129.639 338.135L114.952 337.02L114.288 362.675C113.677 386.237 113.236 389.084 108.854 397.455C99.3092 415.717 81.8021 427.126 61.2673 428.465C38.4274 429.957 20.644 420.391 10.5573 401.195C6.22297 392.94 5.69712 389.987 5.67587 373.93C5.65462 351.605 3.3122 321.696 3.30157 321.563L2.68011 309.426L2.28174 301.66C5.21376 299.525 8.30512 297.655 11.4337 296.168C25.2811 289.592 34.9589 289.236 60.6353 294.362C79.295 298.085 82.0199 298.324 99.5164 297.751C113.635 297.294 120.673 296.465 127.737 294.431C154.247 286.788 179.536 268.792 193.936 247.317C203.64 232.853 205.154 226.607 198.945 226.633C192.921 226.66 180.736 233.709 162.209 247.875C151.655 255.948 146.944 258.7 137.016 262.604C129.097 265.716 126.871 266.009 110.804 266.056C94.7147 266.099 92.4041 265.812 83.2097 262.583C77.6909 260.649 72.7723 258.668 72.273 258.179C71.7737 257.691 82.2164 257.308 95.4742 257.324C118.192 257.351 119.961 257.181 126.165 254.376C129.787 252.74 132.751 250.955 132.751 250.419C132.751 249.877 129.787 249.038 126.165 248.549C122.548 248.061 107.447 244.603 92.6166 240.858C68.5655 234.787 64.2312 234.049 52.4819 234.027C42.4589 234.011 37.3703 234.638 31.1664 236.651C26.678 238.101 18.6628 239.626 13.3512 240.029C7.20562 240.502 4.61885 240.518 1.45844 239.434C1.2141 208.59 1.77713 186.701 3.03599 178.531C7.57743 149.052 23.4645 119.795 46.5329 98.4374C61.5489 84.5316 88.8081 70.0361 107.409 66.063ZM175.478 156.345C169.242 141.982 151.193 142.45 134.833 157.402L128.22 163.446L122.239 157.71C114.405 150.205 105.301 145.992 96.8605 145.976C91.3577 145.966 89.6367 146.571 85.993 149.769C80.9363 154.204 77.6909 162.597 77.6909 171.228C77.6909 184.125 87.5918 201.881 100.706 212.494C109.226 219.394 123.217 226.607 128.135 226.633C134.18 226.671 150.088 217.737 159.001 209.307C177.13 192.161 182.925 173.517 175.478 156.345Z" fill="#FF5757"/>
</g>
</svg>
