<svg width="679" height="425" viewBox="0 0 679 425" fill="none" xmlns="http://www.w3.org/2000/svg">
<path d="M354.749 134.251C360.971 134.251 365.924 132.409 369.616 128.717C373.304 125.029 375.151 120.146 375.151 114.063V56.1172H403.362V114.292C403.362 123.551 401.258 131.836 397.058 139.147C392.867 146.45 387.111 152.164 379.801 156.29C372.498 160.416 364.148 162.479 354.749 162.479C345.339 162.479 336.943 160.416 329.567 156.29C322.187 152.164 316.394 146.45 312.195 139.147C308.003 131.836 305.907 123.551 305.907 114.292V56.1172H334.119V114.063C334.119 120.146 336.002 125.029 339.768 128.717C343.533 132.409 348.527 134.251 354.749 134.251Z" fill="white"/>
<path d="M490.608 79.9897L444.369 132.09H491.688V160.302H402.699V136.429L448.937 84.3287H405.957V56.1172H490.608V79.9897Z" fill="white"/>
<path d="M539.873 134.251C546.095 134.251 551.048 132.409 554.741 128.717C558.429 125.029 560.275 120.146 560.275 114.063V56.1172H588.486V114.292C588.486 123.551 586.382 131.836 582.182 139.147C577.991 146.45 572.236 152.164 564.925 156.29C557.622 160.416 549.272 162.479 539.873 162.479C530.463 162.479 522.067 160.416 514.691 156.29C507.311 152.164 501.519 146.45 497.319 139.147C493.127 131.836 491.031 123.551 491.031 114.292V56.1172H519.243V114.063C519.243 120.146 521.126 125.029 524.892 128.717C528.658 132.409 533.652 134.251 539.873 134.251Z" fill="white"/>
<path d="M639.923 53.9404V82.1519C633.701 82.1519 628.707 84.0021 624.942 87.7025C621.176 91.3947 619.293 96.274 619.293 102.34V160.302H591.081V102.128C591.081 92.721 593.177 84.4033 597.369 77.1744C601.568 69.9373 607.361 64.2557 614.741 60.1296C622.117 56.0035 630.513 53.9404 639.923 53.9404Z" fill="white"/>
<path d="M647.948 6.19531C653.011 6.19531 657.17 7.82447 660.424 11.0746C663.675 14.3288 665.304 18.4877 665.304 23.5512C665.304 28.4755 663.675 32.6016 660.424 35.9295C657.17 39.2615 653.011 40.9234 647.948 40.9234C643.024 40.9234 638.897 39.2615 635.57 35.9295C632.238 32.6016 630.576 28.4755 630.576 23.5512C630.576 18.4877 632.238 14.3288 635.57 11.0746C638.897 7.82447 643.024 6.19531 647.948 6.19531ZM633.834 160.302V56.118H662.045V160.302H633.834Z" fill="white"/>
<mask id="mask0_24_944" style="mask-type:luminance" maskUnits="userSpaceOnUse" x="628" y="0" width="51" height="51">
<path d="M628.005 0.0507812H678.841V50.8863H628.005V0.0507812Z" fill="white"/>
</mask>
<g mask="url(#mask0_24_944)">
<mask id="mask1_24_944" style="mask-type:luminance" maskUnits="userSpaceOnUse" x="628" y="0" width="51" height="51">
<path d="M653.421 0.0507812C639.385 0.0507812 628.005 11.4303 628.005 25.4665C628.005 39.5067 639.385 50.8863 653.421 50.8863C667.461 50.8863 678.841 39.5067 678.841 25.4665C678.841 11.4303 667.461 0.0507812 653.421 0.0507812Z" fill="white"/>
</mask>
<g mask="url(#mask1_24_944)">
<path d="M628.005 0.0507812H678.841V50.8863H628.005V0.0507812Z" fill="#07EA3D"/>
</g>
</g>
<path d="M379.702 231.797V219.845H407.93V239.165C407.93 244.528 409.518 248.801 412.695 251.986C415.879 255.162 420.296 256.75 425.941 256.75V284.978C418.843 284.978 412.367 283.709 406.506 281.18C400.652 278.65 395.625 275.138 391.426 270.651C386.653 275.138 381.159 278.65 374.938 281.18C368.716 283.709 361.986 284.978 354.749 284.978C344.9 284.978 335.924 282.629 327.815 277.921C319.714 273.218 313.312 266.816 308.609 258.715C303.914 250.606 301.568 241.634 301.568 231.797C301.568 221.809 303.914 212.8 308.609 204.765C313.312 196.733 319.681 190.368 327.717 185.673C335.748 180.97 344.761 178.616 354.749 178.616H407.93V206.828H354.749C347.651 206.828 341.716 209.218 336.935 213.999C332.162 218.772 329.78 224.703 329.78 231.797C329.78 238.883 332.162 244.814 336.935 249.595C341.716 254.368 347.651 256.75 354.749 256.75C361.831 256.75 367.758 254.368 372.531 249.595C377.312 244.814 379.702 238.883 379.702 231.797Z" fill="white"/>
<path d="M490.387 231.797V219.845H518.615V274.123C518.615 284.25 516.224 293.435 511.443 301.679C506.67 309.931 500.231 316.44 492.122 321.213C484.022 325.994 474.906 328.384 464.779 328.384C456.24 328.384 448.356 326.649 441.119 323.178C433.882 319.706 427.762 314.86 422.764 308.638C417.775 302.416 414.271 295.248 412.253 287.14H442.2C444.512 291.188 447.656 294.368 451.631 296.685C455.614 299.01 459.998 300.173 464.779 300.173C471.578 300.173 477.329 298.069 482.036 293.869C486.74 289.677 489.454 284.25 490.174 277.594C482.356 282.518 473.53 284.978 463.698 284.978C454.144 284.978 445.462 282.629 437.648 277.921C429.83 273.218 423.64 266.816 419.08 258.715C414.529 250.606 412.253 241.634 412.253 231.797C412.253 221.809 414.598 212.8 419.293 204.765C423.997 196.733 430.366 190.368 438.401 185.673C446.432 180.97 455.446 178.616 465.434 178.616H518.615V206.828H465.434C458.336 206.828 452.4 209.218 447.619 213.999C442.846 218.772 440.464 224.703 440.464 231.797C440.464 238.883 442.846 244.814 447.619 249.595C452.4 254.368 458.336 256.75 465.434 256.75C472.515 256.75 478.442 254.368 483.215 249.595C487.996 244.814 490.387 238.883 490.387 231.797Z" fill="white"/>
<path d="M570.041 176.439V204.651C563.819 204.651 558.825 206.501 555.06 210.202C551.294 213.894 549.411 218.773 549.411 224.839V282.801H521.199V224.627C521.199 215.22 523.295 206.902 527.487 199.673C531.686 192.436 537.479 186.755 544.859 182.629C552.235 178.503 560.631 176.439 570.041 176.439Z" fill="white"/>
<path d="M557.442 230.701C557.442 220.431 559.865 211.209 564.712 203.03C569.558 194.856 576.067 188.384 584.245 183.611C592.42 178.83 601.573 176.439 611.704 176.439C621.974 176.439 631.196 178.83 639.375 183.611C647.549 188.384 654.021 194.856 658.794 203.03C663.575 211.209 665.965 220.431 665.965 230.701C665.965 240.832 663.575 249.985 658.794 258.159C654.021 266.338 647.549 272.855 639.375 277.709C631.196 282.556 621.974 284.979 611.704 284.979C601.573 284.979 592.42 282.556 584.245 277.709C576.067 272.855 569.558 266.338 564.712 258.159C559.865 249.985 557.442 240.832 557.442 230.701ZM585.654 230.701C585.654 238.081 588.146 244.271 593.136 249.269C598.134 254.258 604.323 256.751 611.704 256.751C619.223 256.751 625.445 254.258 630.369 249.269C635.29 244.271 637.754 238.081 637.754 230.701C637.754 223.182 635.29 216.96 630.369 212.035C625.445 207.115 619.223 204.651 611.704 204.651C604.323 204.651 598.134 207.115 593.136 212.035C588.146 216.96 585.654 223.182 585.654 230.701Z" fill="white"/>
<path fill-rule="evenodd" clip-rule="evenodd" d="M115.668 30.3293C95.4343 34.6519 65.7779 50.4195 49.4413 65.5445C24.349 88.7784 7.06679 120.604 2.1302 152.676C0.681148 162.054 0.0794233 188.067 0.464199 224.613L1.06183 281.862L11.8356 268.056C17.7627 260.458 28.9376 248.186 36.6618 240.786C50.702 227.335 88.1317 198.784 102.933 190.241C117.317 181.931 157.682 162.856 166.11 160.375C178.202 156.827 176.311 155.025 162.484 156.917C145.991 159.172 118.349 168.738 98.1195 179.184C88.7949 183.998 80.559 187.936 79.8099 187.936C77.3416 187.936 78.3854 169.008 81.3081 160.728C87.4482 143.323 104.939 128.333 126.442 122.049C149.544 115.295 184.694 118.337 209.283 129.213L218.112 133.118L216.77 152.201C214.334 186.851 206.54 207.077 189.827 222.099C168.468 241.305 134.419 244.187 105.647 229.226C94.8162 223.593 94.5583 223.561 88.9218 226.991C71.0583 237.851 41.2832 271.498 24.7092 299.546C9.82163 324.736 4.97508 340.893 5.00374 365.232C5.02011 382.698 5.59728 385.912 10.3128 394.884C21.283 415.773 40.6283 426.174 65.475 424.553C87.8084 423.096 106.855 410.685 117.24 390.82C122 381.712 122.487 378.621 123.146 352.989L123.871 325.076L139.847 326.292C180.187 329.362 224.723 313.267 253.225 285.317C270.577 268.305 279.451 256.087 277.155 252.366C276.242 250.892 276.533 250.536 277.941 251.404C280.074 252.722 281.768 249.75 290.958 228.546C303.668 199.238 302.305 149.09 287.921 116.433C269.619 74.8815 231.301 42.4988 187.04 31.1807C168.898 26.5388 135.271 26.1377 115.668 30.3293Z" fill="#07EA3D"/>
</svg>
