<svg width="584" height="611" viewBox="0 0 584 611" fill="none" xmlns="http://www.w3.org/2000/svg">
<mask id="mask0_23_79" style="mask-type:luminance" maskUnits="userSpaceOnUse" x="435" y="0" width="149" height="149">
<path d="M435.277 0.282227H583.238V148.239H435.277V0.282227Z" fill="white"/>
</mask>
<g mask="url(#mask0_23_79)">
<mask id="mask1_23_79" style="mask-type:luminance" maskUnits="userSpaceOnUse" x="435" y="0" width="149" height="149">
<path d="M509.257 0.282227C468.4 0.282227 435.277 33.4013 435.277 74.2627C435.277 115.12 468.4 148.239 509.257 148.239C550.114 148.239 583.238 115.12 583.238 74.2627C583.238 33.4013 550.114 0.282227 509.257 0.282227Z" fill="white"/>
</mask>
<g mask="url(#mask1_23_79)">
<path d="M435.277 0.282227H583.238V148.239H435.277V0.282227Z" fill="#FFBD59"/>
</g>
</g>
<path d="M167.406 37.5607C195.836 31.4773 244.592 32.0618 270.9 38.7971C335.083 55.2307 390.647 102.239 417.188 162.555C438.046 209.963 440.016 282.761 421.59 325.304C408.263 356.081 405.808 360.397 402.715 358.482C400.674 357.223 400.251 357.744 401.573 359.884C404.9 365.284 392.032 383.017 366.876 407.715C325.547 448.284 260.963 471.655 202.472 467.191L179.299 465.428L178.255 505.948C177.293 543.159 176.592 547.65 169.686 560.869C154.628 589.703 127.008 607.715 94.6216 609.833C58.5935 612.193 30.5417 597.091 14.6341 566.768C7.79536 553.743 6.95907 549.076 6.93659 523.717C6.89612 488.453 3.20024 441.207 3.18675 441.027L2.20208 421.86L1.22191 402.697L0.354145 319.598C0.26422 311.011 0.214761 302.823 0.196777 295.076C38.446 303.821 83.3091 309.729 120.434 309.729C153.634 309.729 160.981 318.623 156.233 353.095C153.958 369.61 154.983 381.736 158.85 384.11C166.215 388.624 327.52 276.161 337.381 259.637C343.1 250.06 335.151 240.209 278.031 186.079C241.764 151.706 209.954 123.582 207.346 123.582C199.855 123.582 190.854 143.954 186.569 170.59C184.411 184.06 177.909 199.343 172.136 204.545C155.082 219.9 34.1881 237.781 1.28936 232.336C1.68053 224.809 2.17511 219.018 2.76861 215.165C9.93106 168.607 34.9884 122.413 71.3762 88.687C95.0667 66.7275 138.064 43.8329 167.406 37.5607Z" fill="white"/>
</svg>
