<svg width="756" height="445" viewBox="0 0 756 445" fill="none" xmlns="http://www.w3.org/2000/svg">
<path d="M374.519 158.231C381.84 158.231 387.666 156.067 392.004 151.729C396.351 147.382 398.524 141.633 398.524 134.477V66.2441H431.748V134.729C431.748 145.626 429.274 155.373 424.335 163.975C419.391 172.582 412.618 179.316 404.016 184.177C395.41 189.029 385.58 191.454 374.519 191.454C363.442 191.454 353.56 189.029 344.866 184.177C336.181 179.316 329.37 172.582 324.431 163.975C319.487 155.373 317.017 145.626 317.017 134.729V66.2441H350.241V134.477C350.241 141.633 352.453 147.382 356.878 151.729C361.312 156.067 367.193 158.231 374.519 158.231Z" fill="white"/>
<path d="M534.437 94.364L480.021 155.669H535.718V188.893H430.962V160.792L485.377 99.4679H434.785V66.2441H534.437V94.364Z" fill="white"/>
<path d="M592.426 158.231C599.748 158.231 605.574 156.067 609.912 151.729C614.259 147.382 616.432 141.633 616.432 134.477V66.2441H649.656V134.729C649.656 145.626 647.182 155.373 642.243 163.975C637.299 172.582 630.526 179.316 621.924 184.177C613.318 189.029 603.488 191.454 592.426 191.454C581.35 191.454 571.468 189.029 562.773 184.177C554.089 179.316 547.277 172.582 542.339 163.975C537.395 155.373 534.925 145.626 534.925 134.729V66.2441H568.149V134.477C568.149 141.633 570.361 147.382 574.786 151.729C579.22 156.067 585.101 158.231 592.426 158.231Z" fill="white"/>
<path d="M710.194 63.7012V96.9055C702.868 96.9055 696.988 99.0791 692.554 103.426C688.129 107.773 685.917 113.527 685.917 120.678V188.892H652.693V120.426C652.693 109.355 655.163 99.5594 660.106 91.0448C665.045 82.5205 671.857 75.8302 680.541 70.9786C689.235 66.127 699.118 63.7012 710.194 63.7012Z" fill="white"/>
<path d="M719.629 7.48145C725.591 7.48145 730.487 9.40268 734.319 13.2452C738.147 17.0779 740.064 21.9683 740.064 27.9164C740.064 33.7141 738.147 38.5705 734.319 42.4906C730.487 46.4107 725.591 48.3708 719.629 48.3708C713.831 48.3708 708.975 46.4107 705.055 42.4906C701.144 38.5705 699.194 33.7141 699.194 27.9164C699.194 21.9683 701.144 17.0779 705.055 13.2452C708.975 9.40268 713.831 7.48145 719.629 7.48145ZM703.017 188.893V66.2441H736.241V188.893H703.017Z" fill="white"/>
<mask id="mask0_24_1105" style="mask-type:luminance" maskUnits="userSpaceOnUse" x="696" y="0" width="61" height="61">
<path d="M696.163 0.260742H756.003V60.1004H696.163V0.260742Z" fill="white"/>
</mask>
<g mask="url(#mask0_24_1105)">
<mask id="mask1_24_1105" style="mask-type:luminance" maskUnits="userSpaceOnUse" x="696" y="0" width="61" height="61">
<path d="M726.083 0.260742C709.558 0.260742 696.163 13.656 696.163 30.1806C696.163 46.7051 709.558 60.1004 726.083 60.1004C742.607 60.1004 756.003 46.7051 756.003 30.1806C756.003 13.656 742.607 0.260742 726.083 0.260742Z" fill="white"/>
</mask>
<g mask="url(#mask1_24_1105)">
<path d="M696.163 0.260742H756.003V60.1004H696.163V0.260742Z" fill="#FFBD59"/>
</g>
</g>
<mask id="mask2_24_1105" style="mask-type:luminance" maskUnits="userSpaceOnUse" x="0" y="41" width="304" height="404">
<path d="M0.860107 41.7998H303.911V444.124H0.860107V41.7998Z" fill="white"/>
</mask>
<g mask="url(#mask2_24_1105)">
<path d="M117.808 45.3464C137.607 41.1158 171.564 41.5184 189.888 46.2051C234.586 57.6403 273.287 90.345 291.772 132.306C306.298 165.288 307.671 215.934 294.838 245.533C285.557 266.948 283.844 269.951 281.69 268.617C280.269 267.739 279.978 268.103 280.899 269.592C283.214 273.347 274.253 285.69 256.734 302.869C227.949 331.096 182.965 347.354 142.231 344.249L126.09 343.021L125.362 371.209C124.692 397.097 124.207 400.222 119.394 409.42C108.91 429.482 89.6735 442.013 67.1136 443.483C42.0211 445.128 22.4885 434.62 11.4026 413.525C6.6432 404.462 6.061 401.216 6.0416 383.576C6.01734 359.041 3.44114 326.172 3.43144 326.046L2.74736 312.708L2.06328 299.381L1.46168 241.565C1.39861 235.587 1.3598 229.896 1.3501 224.506C27.9903 230.59 59.2346 234.7 85.0936 234.7C108.216 234.7 113.33 240.885 110.026 264.867C108.44 276.355 109.153 284.792 111.85 286.447C116.978 289.586 229.322 211.344 236.187 199.851C240.17 193.184 234.635 186.334 194.856 148.676C169.594 124.762 147.442 105.191 145.627 105.191C140.407 105.191 134.138 119.367 131.155 137.9C129.651 147.269 125.124 157.904 121.102 161.518C109.225 172.201 25.0259 184.641 2.1118 180.856C2.38349 175.622 2.72795 171.59 3.14034 168.907C8.12779 136.518 25.579 104.381 50.9238 80.9135C67.4241 65.6406 97.373 49.7128 117.808 45.3464Z" fill="#FFBD59"/>
</g>
<path d="M325.001 195.508H339.537V270.397H325.001V195.508Z" fill="white"/>
<path d="M348.476 243.577C348.476 238.289 349.723 233.539 352.221 229.333C354.715 225.117 358.067 221.779 362.274 219.319C366.49 216.864 371.206 215.632 376.421 215.632C381.709 215.632 386.459 216.864 390.665 219.319C394.881 221.779 398.219 225.117 400.679 229.333C403.134 233.539 404.366 238.289 404.366 243.577C404.366 248.793 403.134 253.508 400.679 257.724C398.219 261.931 394.881 265.283 390.665 267.777C386.459 270.275 381.709 271.522 376.421 271.522C371.206 271.522 366.49 270.275 362.274 267.777C358.067 265.283 354.715 261.931 352.221 257.724C349.723 253.508 348.476 248.793 348.476 243.577ZM363.011 243.577C363.011 247.371 364.292 250.554 366.854 253.125C369.425 255.701 372.617 256.987 376.421 256.987C380.288 256.987 383.49 255.701 386.027 253.125C388.56 250.554 389.831 247.371 389.831 243.577C389.831 239.696 388.56 236.489 386.027 233.951C383.49 231.419 380.288 230.148 376.421 230.148C372.617 230.148 369.425 231.419 366.854 233.951C364.292 236.489 363.011 239.696 363.011 243.577Z" fill="white"/>
<path d="M451.294 244.121V237.988H465.83V265.934C465.83 271.144 464.598 275.874 462.143 280.12C459.683 284.36 456.364 287.712 452.187 290.172C448.02 292.642 443.328 293.879 438.117 293.879C433.717 293.879 429.656 292.976 425.93 291.181C422.204 289.396 419.051 286.897 416.479 283.69C413.903 280.493 412.098 276.806 411.065 272.629H426.493C427.682 274.71 429.297 276.345 431.345 277.539C433.402 278.742 435.658 279.343 438.117 279.343C441.611 279.343 444.565 278.261 446.986 276.102C449.417 273.939 450.819 271.144 451.197 267.719C447.171 270.256 442.625 271.523 437.555 271.523C432.635 271.523 428.167 270.315 424.145 267.894C420.118 265.463 416.931 262.164 414.578 257.996C412.234 253.819 411.065 249.196 411.065 244.121C411.065 238.988 412.273 234.354 414.694 230.226C417.11 226.087 420.39 222.808 424.533 220.387C428.671 217.956 433.31 216.738 438.447 216.738H465.83V231.274H438.447C434.799 231.274 431.742 232.506 429.288 234.961C426.828 237.421 425.6 240.472 425.6 244.121C425.6 247.784 426.828 250.845 429.288 253.3C431.742 255.76 434.799 256.987 438.447 256.987C442.096 256.987 445.147 255.76 447.607 253.3C450.062 250.845 451.294 247.784 451.294 244.121Z" fill="white"/>
<path d="M484.261 191.025C486.872 191.025 489.016 191.87 490.685 193.548C492.364 195.232 493.208 197.371 493.208 199.972C493.208 202.509 492.364 204.639 490.685 206.356C489.016 208.064 486.872 208.918 484.261 208.918C481.739 208.918 479.614 208.064 477.896 206.356C476.188 204.639 475.334 202.509 475.334 199.972C475.334 197.371 476.188 195.232 477.896 193.548C479.614 191.87 481.739 191.025 484.261 191.025ZM477.003 270.398V216.739H491.539V270.398H477.003Z" fill="white"/>
<path d="M547.539 236.3H533.003C533.003 234.141 532.12 232.394 530.364 231.06C528.618 229.716 526.294 229.042 523.397 229.042C521.078 229.042 519.191 229.488 517.731 230.381C516.28 231.273 515.557 232.428 515.557 233.835C515.557 235.339 516.411 236.683 518.119 237.872C519.836 239.065 522.039 240.293 524.717 241.559C527.405 242.83 530.257 244.266 533.275 245.867C536.302 247.473 539.155 249.375 541.833 251.573C544.511 253.761 546.704 256.385 548.412 259.452C550.13 262.508 550.993 266.156 550.993 270.397H536.477C536.477 267.719 535.614 265.448 533.896 263.585C532.188 261.722 529.986 260.068 527.298 258.617C524.62 257.157 521.767 255.701 518.74 254.251C515.722 252.79 512.879 251.165 510.201 249.38C507.523 247.594 505.32 245.455 503.603 242.956C501.895 240.462 501.041 237.42 501.041 233.835C501.041 230.342 502.021 227.217 503.991 224.462C505.97 221.706 508.707 219.547 512.2 217.98C515.703 216.418 519.657 215.632 524.057 215.632C528.676 215.632 532.751 216.505 536.283 218.252C539.825 219.998 542.59 222.419 544.57 225.51C546.549 228.605 547.539 232.2 547.539 236.3ZM509.308 254.755C511.685 254.755 513.699 255.58 515.344 257.22C516.983 258.85 517.808 260.858 517.808 263.236C517.808 265.555 516.983 267.515 515.344 269.116C513.699 270.717 511.685 271.522 509.308 271.522C506.989 271.522 505.029 270.717 503.428 269.116C501.837 267.515 501.041 265.555 501.041 263.236C501.041 260.858 501.837 258.85 503.428 257.22C505.029 255.58 506.989 254.755 509.308 254.755Z" fill="white"/>
<path d="M554.9 231.274V216.739H561.615V202.203H576.15V216.739H586.766V231.274H576.15V245.479C576.15 248.599 577.111 251.107 579.042 253.009C580.983 254.911 583.554 255.862 586.766 255.862V270.397C581.914 270.397 577.586 269.34 573.783 267.215C569.989 265.094 567.015 262.15 564.856 258.385C562.692 254.62 561.615 250.35 561.615 245.576V231.274H554.9Z" fill="white"/>
<path d="M602.399 191.025C605.009 191.025 607.153 191.87 608.822 193.548C610.501 195.232 611.345 197.371 611.345 199.972C611.345 202.509 610.501 204.639 608.822 206.356C607.153 208.064 605.009 208.918 602.399 208.918C599.876 208.918 597.751 208.064 596.033 206.356C594.326 204.639 593.472 202.509 593.472 199.972C593.472 197.371 594.326 195.232 596.033 193.548C597.751 191.87 599.876 191.025 602.399 191.025ZM595.141 270.398V216.739H609.676V270.398H595.141Z" fill="white"/>
<path d="M646.56 230.148C642.757 230.148 639.564 231.419 636.993 233.951C634.431 236.489 633.151 239.696 633.151 243.577C633.151 247.371 634.431 250.554 636.993 253.125C639.564 255.701 642.757 256.987 646.56 256.987C649.316 256.987 651.752 256.317 653.877 254.969C655.997 253.625 657.583 251.873 658.631 249.709H673.826C672.934 253.892 671.197 257.642 668.626 260.965C666.064 264.279 662.881 266.865 659.078 268.728C655.274 270.591 651.102 271.522 646.56 271.522C641.345 271.522 636.629 270.275 632.413 267.777C628.207 265.283 624.854 261.931 622.361 257.724C619.862 253.508 618.615 248.793 618.615 243.577C618.615 238.289 619.862 233.539 622.361 229.333C624.854 225.117 628.207 221.779 632.413 219.319C636.629 216.864 641.345 215.632 646.56 215.632C651.102 215.632 655.274 216.563 659.078 218.426C662.881 220.289 666.064 222.861 668.626 226.131C671.197 229.406 672.934 233.17 673.826 237.425H658.631C657.583 235.266 655.997 233.515 653.877 232.166C651.752 230.822 649.316 230.148 646.56 230.148Z" fill="white"/>
<path d="M727.594 236.3H713.059C713.059 234.141 712.176 232.394 710.42 231.06C708.673 229.716 706.349 229.042 703.453 229.042C701.134 229.042 699.246 229.488 697.786 230.381C696.335 231.273 695.612 232.428 695.612 233.835C695.612 235.339 696.466 236.683 698.174 237.872C699.892 239.065 702.094 240.293 704.772 241.559C707.46 242.83 710.313 244.266 713.33 245.867C716.358 247.473 719.211 249.375 721.889 251.573C724.567 253.761 726.76 256.385 728.467 259.452C730.185 262.508 731.049 266.156 731.049 270.397H716.533C716.533 267.719 715.669 265.448 713.951 263.585C712.244 261.722 710.041 260.068 707.353 258.617C704.675 257.157 701.822 255.701 698.795 254.251C695.777 252.79 692.934 251.165 690.256 249.38C687.578 247.594 685.376 245.455 683.658 242.956C681.95 240.462 681.096 237.42 681.096 233.835C681.096 230.342 682.076 227.217 684.046 224.462C686.026 221.706 688.762 219.547 692.255 217.98C695.758 216.418 699.712 215.632 704.112 215.632C708.731 215.632 712.807 216.505 716.338 218.252C719.88 219.998 722.646 222.419 724.625 225.51C726.604 228.605 727.594 232.2 727.594 236.3ZM689.364 254.755C691.741 254.755 693.754 255.58 695.399 257.22C697.039 258.85 697.864 260.858 697.864 263.236C697.864 265.555 697.039 267.515 695.399 269.116C693.754 270.717 691.741 271.522 689.364 271.522C687.045 271.522 685.084 270.717 683.483 269.116C681.892 267.515 681.096 265.555 681.096 263.236C681.096 260.858 681.892 258.85 683.483 257.22C685.084 255.58 687.045 254.755 689.364 254.755Z" fill="white"/>
</svg>
