<svg width="590" height="610" viewBox="0 0 590 610" fill="none" xmlns="http://www.w3.org/2000/svg">
<path d="M168.186 36.2058C196.711 30.1106 245.629 30.6979 272.022 37.4466C336.407 53.9135 392.159 101.027 418.784 161.471C439.707 208.987 441.687 281.94 423.203 324.577C409.833 355.423 407.366 359.747 404.259 357.828C402.218 356.564 401.792 357.085 403.118 359.23C406.461 364.639 393.551 382.418 368.308 407.168C326.845 447.826 262.053 471.24 203.37 466.774L180.121 465.008L179.07 505.614C178.108 542.904 177.403 547.404 170.474 560.655C155.366 589.549 127.661 607.602 95.1676 609.724C59.0229 612.087 30.8819 596.951 14.9171 566.57C8.05467 553.513 7.21641 548.834 7.19273 523.426C7.15958 496.298 4.96684 462.105 3.94387 447.584L152.771 356.346L182.517 363.763C198.885 367.845 219.699 370.881 228.773 370.511C270.985 368.783 317.539 318.539 318.183 274.012C318.363 261.902 317.203 249.702 315.607 246.894C314.011 244.085 295.882 253.519 275.323 267.841C254.769 282.172 234.812 293.259 230.985 292.477C227.154 291.696 216.867 279.719 208.129 265.861L192.221 240.666L230.213 212.269C251.103 196.65 268.74 182.215 269.412 180.193C272.685 170.28 215.475 161.884 189.096 168.41C163.342 174.775 156.181 179.388 138.388 201.055C126.988 214.931 116.38 237.166 114.808 250.455C111.999 274.296 62.7359 288.655 0.638183 323.682L0.590823 318.856C0.0319816 265.686 0.908133 227.841 3.01089 214.197C10.1953 167.538 35.3337 121.244 71.8431 87.4439C95.6128 65.436 138.752 42.4951 168.186 36.2058ZM2.00687 412.808L1.46224 402.138L1.39593 395.82L2.00687 412.808Z" fill="white"/>
<mask id="mask0_23_259" style="mask-type:luminance" maskUnits="userSpaceOnUse" x="433" y="0" width="157" height="157">
<path d="M433.387 0.173828H589.238V156.02H433.387V0.173828Z" fill="white"/>
</mask>
<g mask="url(#mask0_23_259)">
<mask id="mask1_23_259" style="mask-type:luminance" maskUnits="userSpaceOnUse" x="433" y="0" width="157" height="157">
<path d="M511.312 0.173828C468.277 0.173828 433.387 35.0635 433.387 78.099C433.387 121.135 468.277 156.02 511.312 156.02C554.348 156.02 589.238 121.135 589.238 78.099C589.238 35.0635 554.348 0.173828 511.312 0.173828Z" fill="white"/>
</mask>
<g mask="url(#mask1_23_259)">
<path d="M433.387 0.173828H589.238V156.02H433.387V0.173828Z" fill="#38B6FF"/>
</g>
</g>
</svg>
